<?xml version="1.0" encoding="UTF-8" standalone="no"?>
<svg
   xmlns:dc="http://purl.org/dc/elements/1.1/"
   xmlns:cc="http://creativecommons.org/ns#"
   xmlns:rdf="http://www.w3.org/1999/02/22-rdf-syntax-ns#"
   xmlns:svg="http://www.w3.org/2000/svg"
   xmlns="http://www.w3.org/2000/svg"
   id="svg5717"
   version="1.1"
   viewBox="0 0 39.540226 9.000001"
   height="9.000001mm"
   width="39.540226mm">
  <defs
     id="defs5711" />
  <metadata
     id="metadata5714">
    <rdf:RDF>
      <cc:Work
         rdf:about="">
        <dc:format>image/svg+xml</dc:format>
        <dc:type
           rdf:resource="http://purl.org/dc/dcmitype/StillImage" />
        <dc:title></dc:title>
      </cc:Work>
    </rdf:RDF>
  </metadata>
  <g
     transform="translate(-74.525285,-150.32165)"
     id="layer1">
    <g
       transform="matrix(0.03537243,0,0,0.03093361,75.690906,150.469)"
       id="g5775">
      <g
         style="display:inline;opacity:1;fill:#ffffff"
         id="g5111"
         transform="matrix(0.56825335,0,0,0.56825335,-79.478563,-4.7633996)">
        <g
           id="g5097"
           style="fill:#ffffff">
          <path
             id="path5091"
             style="fill:#ffffff"
             d="m 311.406,149.531 c 20.156,20.156 118.719,92.188 118.719,188.344 C 430.125,434.031 352.172,512 256,512 159.844,512 81.875,434.031 81.875,337.875 c 0,-96.156 98.563,-168.188 118.719,-188.344 z"
             class="st0" />
          <path
             id="path5093"
             style="fill:#ffffff"
             d="m 311.406,97.125 c 0,0 5.125,-17.594 32.75,-39.906 26.5,-21.406 6.156,-50.969 -32.75,-40.063 C 284.547,24.656 293.672,0 256,0 218.328,0 227.453,24.656 200.594,17.156 161.703,6.25 141.36,35.812 167.86,57.219 c 27.609,22.313 32.734,39.906 32.734,39.906 z"
             class="st0" />
          <path
             id="path5095"
             style="fill:#ffffff"
             d="m 323.891,123.328 c 0,6.297 -5.109,11.406 -11.391,11.406 H 199.516 c -6.297,0 -11.406,-5.109 -11.406,-11.406 v 0 c 0,-6.297 5.109,-11.391 11.406,-11.391 H 312.5 c 6.281,0.001 11.391,5.094 11.391,11.391 z"
             class="st0" />
        </g>
      </g>
      <g
         style="display:inline;opacity:1;fill:#808080"
         id="g5500"
         transform="matrix(0.21177115,0,0,0.21177115,11.270417,130.43576)">
        <g
           id="g5488"
           style="fill:#808080">
          <path
             id="path5486"
             style="fill:#808080"
             d="M 404.563,188.938 C 381.485,152.875 365.61,128.36 339.657,67.782 c 0,0 -18.75,24.531 -33.172,60.578 C 299.782,105.157 287.563,94.782 273.313,70.657 254.563,38.938 251.672,0 251.672,0 c 0,0 -30.281,17.313 -50.484,60.563 -20.172,43.281 -18.75,93.75 -41.813,116.844 -8.656,-46.156 -30.297,-59.125 -30.297,-59.125 0,0 -12.984,38.906 -21.625,64.875 -23.078,46.156 -37.5,91.406 -37.5,142.797 0,51.359 20.813,97.891 54.5,131.547 C 158.125,491.188 204.641,512 256,512 c 51.375,0 97.891,-20.813 131.563,-54.5 33.672,-33.656 54.484,-80.188 54.484,-131.547 0,-51.39 -17.281,-102.406 -37.484,-137.015 z m -68,249.312 c -21.516,21.5 -50.125,33.375 -80.563,33.375 -30.438,0 -59.047,-11.875 -80.563,-33.375 -21.531,-21.531 -33.375,-50.141 -33.375,-80.563 0,-10.656 0.844,-21.188 2.594,-31.875 6.063,-24.375 15.688,-59 15.688,-59 0,0 24.406,22.156 28.828,36.531 7.703,25 19.234,-15.375 29.328,-37.969 8.656,-10.094 18.625,-42.344 25.297,-62.5 l 59.797,108.656 40.5,-51.328 c 12.813,23.219 25.859,60 25.859,97.484 0,30.423 -11.875,59.033 -33.39,80.564 z"
             class="st0" />
        </g>
      </g>
      <g
         style="display:inline;opacity:1;fill:#999999"
         id="g5564"
         transform="matrix(0.27162495,0,0,0.27162495,-3.1734171,117.61477)">
        <g
           id="g5552"
           style="fill:#999999">
          <path
             id="path5550"
             style="fill:#999999"
             d="M 256,0 C 114.613,0 0,114.615 0,256 0,397.385 114.613,512 256,512 397.383,512 512,397.385 512,256 512,114.615 397.383,0 256,0 Z M 99.594,144.848 367.15,412.406 C 335.754,434.781 297.402,448 256,448 150.129,448 64,361.869 64,256 64,214.596 77.217,176.244 99.594,144.848 Z M 412.404,367.15 144.848,99.594 C 176.242,77.219 214.594,64 256,64 c 105.867,0 192,86.131 192,192 0,41.404 -13.219,79.756 -35.596,111.15 z"
             class="st0" />
        </g>
      </g>
    </g>
    <g
       id="text5779"
       style="font-style:normal;font-variant:normal;font-weight:bold;font-stretch:normal;font-size:7.76111126px;line-height:1.25;font-family:'Noto Sans CJK JP';-inkscape-font-specification:'Noto Sans CJK JP, Bold';font-variant-ligatures:normal;font-variant-caps:normal;font-variant-numeric:normal;font-feature-settings:normal;text-align:start;letter-spacing:0px;word-spacing:0px;writing-mode:lr-tb;text-anchor:start;fill:#ffffff;fill-opacity:1;stroke:none;stroke-width:0.26458332"
       aria-label="不燃ごみ">
      <path
         id="path5781"
         style="fill:#ffffff;stroke-width:0.26458332"
         d="m 87.755343,155.06856 v -0.80716 c 0.162984,-0.23283 0.318206,-0.47343 0.450145,-0.71402 h 2.413705 v -0.94686 H 83.89031 v 0.94686 h 3.096683 c -0.721783,1.18745 -1.932516,2.39042 -3.345039,3.05012 0.201789,0.20955 0.48895,0.58984 0.636412,0.8382 0.931333,-0.48119 1.761772,-1.15641 2.468033,-1.90924 v 3.78742 h 1.008944 v -4.02025 c 0.8382,0.64417 1.893712,1.52894 2.3749,2.10326 l 0.783873,-0.70626 c -0.5588,-0.61313 -1.754011,-1.50566 -2.58445,-2.10326 z" />
      <path
         id="path5783"
         style="fill:#ffffff;stroke-width:0.26458332"
         d="m 98.620899,153.33783 c -0.07761,-0.31045 -0.248355,-0.76835 -0.442383,-1.12536 l -0.574322,0.23283 c 0.170744,0.35701 0.34925,0.83044 0.411338,1.14865 z m -6.767689,2.42147 c 0.287161,-0.55104 0.372533,-1.40477 0.364772,-2.17312 l -0.574322,-0.0699 c 0.0078,0.69074 -0.08537,1.47462 -0.318205,1.917 z m 2.087739,1.70744 c -0.116417,-0.18627 -0.597605,-0.92357 -0.830439,-1.24954 0.03881,-0.47343 0.04657,-0.95462 0.04657,-1.42028 v -0.1009 l 0.248355,0.10866 c 0.201789,-0.37253 0.434623,-0.97014 0.659695,-1.45909 l -0.667456,-0.24836 c -0.05433,0.26388 -0.147461,0.58209 -0.240594,0.89253 v -1.90147 h -0.791633 v 2.70863 c 0,1.34267 -0.09313,2.794 -0.954617,3.89608 0.178505,0.1397 0.465666,0.42686 0.589844,0.62865 0.496711,-0.60537 0.783873,-1.29611 0.946856,-2.01789 0.155222,0.2794 0.294922,0.5588 0.388055,0.76835 z m 0.5588,-2.72415 c 0.06209,-0.11642 0.116417,-0.24059 0.178506,-0.37253 0.194027,0.10089 0.395816,0.23283 0.551039,0.34925 -0.04657,0.14746 -0.108656,0.28716 -0.170745,0.4191 -0.155222,-0.13194 -0.364772,-0.27164 -0.5588,-0.39582 z m 1.063272,-1.2573 c -0.03104,0.20179 -0.07761,0.40358 -0.124177,0.58984 -0.162984,-0.10089 -0.34925,-0.20178 -0.527756,-0.28716 0.03104,-0.10089 0.06985,-0.20179 0.100894,-0.30268 z m 0.62865,0.97014 h 0.597606 c -0.108656,0.84596 -0.442383,1.72297 -1.412522,2.40594 0.170744,0.12418 0.442383,0.39582 0.5588,0.57433 0.682977,-0.48895 1.094316,-1.0788 1.334911,-1.69193 0.20955,0.65194 0.512233,1.2185 0.915811,1.59103 0.124178,-0.21731 0.380294,-0.52775 0.574322,-0.67522 -0.551039,-0.43462 -0.915811,-1.2961 -1.102078,-2.20415 h 0.946856 v -0.76059 h -1.008945 v -0.0854 -1.49014 h -0.760588 v 1.47462 0.10089 h -0.5588 c 0.04657,-0.25612 0.08537,-0.51999 0.116416,-0.79939 l -0.473428,-0.1397 -0.1397,0.031 H 95.20601 c 0.05433,-0.20179 0.100895,-0.41134 0.1397,-0.62089 l -0.729544,-0.11642 c -0.217311,1.20298 -0.62865,2.34386 -1.241778,3.06564 0.170744,0.1009 0.473428,0.34925 0.589844,0.47343 0.07761,-0.10089 0.155223,-0.20179 0.225073,-0.31044 0.201789,0.13194 0.403577,0.29492 0.551039,0.44238 -0.287162,0.45791 -0.62865,0.82268 -1.016706,1.06327 0.155222,0.13194 0.364772,0.41134 0.481189,0.61313 l -0.02328,-0.008 c -0.155223,0.56656 -0.442384,1.16417 -0.861484,1.54446 l 0.682978,0.38806 c 0.442383,-0.41134 0.6985,-1.0788 0.877006,-1.69193 l -0.636412,-0.21731 c 0.939095,-0.67521 1.598789,-1.77729 1.948039,-3.32175 z m -1.086555,3.22862 c 0.09313,0.49671 0.147461,1.14088 0.131939,1.55222 l 0.776111,-0.11641 c 0,-0.4191 -0.06209,-1.04775 -0.170745,-1.54446 z m 1.071033,0.0233 c 0.194028,0.48895 0.357011,1.12537 0.395817,1.5367 l 0.752828,-0.22507 c -0.05433,-0.41134 -0.232834,-1.03223 -0.434623,-1.51341 z m 1.109839,-0.12417 c 0.294922,0.54327 0.589844,1.26506 0.675217,1.69968 l 0.799394,-0.2794 c -0.108655,-0.45014 -0.426861,-1.14088 -0.737305,-1.66088 z" />
      <path
         id="path5785"
         style="fill:#ffffff;stroke-width:0.26458332"
         d="m 100.07223,156.27153 c -0.0621,0.29492 -0.147464,0.66745 -0.147464,1.10984 0,1.05551 0.877004,1.64535 2.638774,1.64535 1.0788,0 2.00237,-0.10089 2.66983,-0.25611 l -0.008,-1.08656 c -0.68297,0.18627 -1.66087,0.30268 -2.70086,0.30268 -1.10984,0 -1.56775,-0.35701 -1.56775,-0.84596 0,-0.25611 0.0543,-0.49671 0.12418,-0.77611 z m 4.29189,-3.7331 c 0.10866,0.15523 0.22507,0.35702 0.33373,0.5588 -0.58985,0.0543 -1.43581,0.1009 -2.17311,0.1009 -0.80716,0 -1.52118,-0.031 -2.08774,-0.0931 v 1.02446 c 0.62089,0.0466 1.28834,0.0854 2.0955,0.0854 0.72954,0 1.68416,-0.0543 2.21968,-0.0931 v -0.92357 c 0.0776,0.15522 0.15522,0.30268 0.21731,0.42686 l 0.62865,-0.27164 c -0.14746,-0.28716 -0.42686,-0.77611 -0.62089,-1.06327 z m 0.91581,-0.34925 c 0.21731,0.29493 0.46567,0.74507 0.62865,1.07104 l 0.61313,-0.26388 c -0.13194,-0.27164 -0.4191,-0.76835 -0.62865,-1.05551 z" />
      <path
         id="path5787"
         style="fill:#ffffff;stroke-width:0.26458332"
         d="m 108.6793,157.17182 c -0.1397,0.19403 -0.24836,0.26388 -0.40358,0.26388 -0.15522,0 -0.28716,-0.14747 -0.28716,-0.36478 0,-0.48119 0.46567,-1.00118 1.31939,-1.13312 -0.21731,0.47343 -0.43462,0.94686 -0.62865,1.23402 z m 5.38621,-0.61313 c -0.22507,-0.14746 -0.50447,-0.33373 -0.82268,-0.51223 0.0776,-0.43463 0.11642,-0.91581 0.14746,-1.42805 l -1.00894,-0.11641 c 0.031,0.24835 0.0233,0.54327 0.008,0.8382 -0.008,0.0854 -0.0155,0.17074 -0.0233,0.26387 -0.49671,-0.21731 -1.05551,-0.40357 -1.65312,-0.49671 0.27164,-0.65193 0.55104,-1.31939 0.75283,-1.64535 0.0621,-0.10866 0.14746,-0.20955 0.25611,-0.32597 l -0.61312,-0.48119 c -0.13194,0.0543 -0.33373,0.1009 -0.52,0.11642 -0.35701,0.031 -1.17969,0.0621 -1.61431,0.0621 -0.17074,0 -0.43462,-0.008 -0.63641,-0.031 l 0.0388,0.99342 c 0.19402,-0.031 0.46566,-0.0621 0.62865,-0.0699 0.34925,-0.0233 1.00894,-0.0466 1.31162,-0.0543 -0.1785,0.36477 -0.39581,0.88476 -0.61312,1.38147 -1.54447,0.0699 -2.62326,0.98567 -2.62326,2.17312 0,0.77611 0.50447,1.24177 1.17969,1.24177 0.52775,0 0.89253,-0.20955 1.19521,-0.67521 0.27164,-0.42686 0.60537,-1.18745 0.89253,-1.84715 0.65193,0.0931 1.2573,0.32597 1.80058,0.62089 -0.25612,0.6985 -0.79164,1.43581 -1.9558,1.93252 l 0.82267,0.66745 c 1.02447,-0.53551 1.60655,-1.21073 1.94804,-2.07997 0.23284,0.17074 0.45791,0.35701 0.6597,0.53551 z" />
    </g>
  </g>
</svg>
