<?xml version="1.0" encoding="UTF-8" standalone="no"?>
<svg
   xmlns:dc="http://purl.org/dc/elements/1.1/"
   xmlns:cc="http://creativecommons.org/ns#"
   xmlns:rdf="http://www.w3.org/1999/02/22-rdf-syntax-ns#"
   xmlns:svg="http://www.w3.org/2000/svg"
   xmlns="http://www.w3.org/2000/svg"
   id="svg4917"
   version="1.1"
   viewBox="0 0 30.423555 7.3808198"
   height="7.3808198mm"
   width="30.423555mm">
  <defs
     id="defs4911" />
  <metadata
     id="metadata4914">
    <rdf:RDF>
      <cc:Work
         rdf:about="">
        <dc:format>image/svg+xml</dc:format>
        <dc:type
           rdf:resource="http://purl.org/dc/dcmitype/StillImage" />
        <dc:title></dc:title>
      </cc:Work>
    </rdf:RDF>
  </metadata>
  <g
     transform="translate(-57.724016,-118.68544)"
     id="layer1">
    <g
       id="text4921"
       style="font-style:normal;font-variant:normal;font-weight:bold;font-stretch:normal;font-size:7.76111126px;line-height:1.25;font-family:'Noto Sans CJK JP';-inkscape-font-specification:'Noto Sans CJK JP, Bold';font-variant-ligatures:normal;font-variant-caps:normal;font-variant-numeric:normal;font-feature-settings:normal;text-align:start;letter-spacing:0px;word-spacing:0px;writing-mode:lr-tb;text-anchor:start;fill:#000000;fill-opacity:1;stroke:none;stroke-width:0.26458332"
       aria-label="不燃ごみ">
      <path
         id="path4923"
         style="fill:#ffffff;stroke-width:0.26458332"
         d="m 61.837405,121.81317 v -0.80716 c 0.162984,-0.23283 0.318206,-0.47342 0.450145,-0.71402 h 2.413705 v -0.94685 h -6.728883 v 0.94685 h 3.096683 c -0.721783,1.18745 -1.932517,2.39042 -3.345039,3.05012 0.201789,0.20955 0.48895,0.58984 0.636411,0.8382 0.931334,-0.48119 1.761773,-1.15641 2.468034,-1.90923 v 3.78742 h 1.008944 v -4.02026 c 0.8382,0.64417 1.893711,1.52894 2.3749,2.10326 l 0.783872,-0.70626 c -0.5588,-0.61313 -1.754011,-1.50565 -2.58445,-2.10326 z" />
      <path
         id="path4925"
         style="fill:#ffffff;stroke-width:0.26458332"
         d="m 72.702961,120.08244 c -0.07761,-0.31044 -0.248356,-0.76835 -0.442383,-1.12536 l -0.574323,0.23283 c 0.170745,0.35702 0.34925,0.83044 0.411339,1.14865 z m -6.767689,2.42147 c 0.287161,-0.55104 0.372533,-1.40476 0.364772,-2.17311 l -0.574322,-0.0699 c 0.0078,0.69074 -0.08537,1.47461 -0.318206,1.91699 z m 2.087739,1.70744 c -0.116417,-0.18626 -0.597606,-0.92357 -0.830439,-1.24954 0.03881,-0.47342 0.04657,-0.95461 0.04657,-1.42028 v -0.10089 l 0.248355,0.10865 c 0.201789,-0.37253 0.434622,-0.97014 0.659695,-1.45909 l -0.667456,-0.24835 c -0.05433,0.26388 -0.147461,0.58208 -0.240594,0.89253 v -1.90148 h -0.791634 v 2.70863 c 0,1.34267 -0.09313,2.794 -0.954616,3.89608 0.178505,0.1397 0.465666,0.42686 0.589844,0.62865 0.496711,-0.60537 0.783872,-1.29611 0.946856,-2.01789 0.155222,0.2794 0.294922,0.5588 0.388055,0.76835 z m 0.5588,-2.72415 c 0.06209,-0.11641 0.116417,-0.24059 0.178505,-0.37253 0.194028,0.10089 0.395817,0.23283 0.551039,0.34925 -0.04657,0.14746 -0.108655,0.28716 -0.170744,0.4191 -0.155222,-0.13194 -0.364772,-0.27164 -0.5588,-0.39582 z m 1.063272,-1.2573 c -0.03104,0.20179 -0.07761,0.40358 -0.124178,0.58985 -0.162983,-0.1009 -0.34925,-0.20179 -0.527755,-0.28716 0.03104,-0.1009 0.06985,-0.20179 0.100894,-0.30269 z m 0.62865,0.97014 h 0.597606 c -0.108656,0.84596 -0.442384,1.72297 -1.412523,2.40595 0.170745,0.12417 0.442384,0.39581 0.5588,0.57432 0.682978,-0.48895 1.094317,-1.0788 1.334912,-1.69192 0.20955,0.65193 0.512233,1.21849 0.915811,1.59102 0.124177,-0.21731 0.380294,-0.52775 0.574322,-0.67521 -0.551039,-0.43462 -0.915811,-1.29611 -1.102078,-2.20416 h 0.946856 v -0.76059 h -1.008945 v -0.0854 -1.49013 h -0.760589 v 1.47461 0.10089 h -0.5588 c 0.04657,-0.25611 0.08537,-0.51999 0.116417,-0.79939 l -0.473428,-0.1397 -0.1397,0.031 h -0.574322 c 0.05433,-0.20179 0.100894,-0.41134 0.1397,-0.62089 l -0.729544,-0.11641 c -0.217312,1.20297 -0.62865,2.34385 -1.241778,3.06564 0.170744,0.10089 0.473428,0.34925 0.589844,0.47342 0.07761,-0.10089 0.155222,-0.20178 0.225072,-0.31044 0.201789,0.13194 0.403578,0.29492 0.551039,0.44238 -0.287161,0.45791 -0.62865,0.82268 -1.016705,1.06328 0.155222,0.13193 0.364772,0.41133 0.481189,0.61312 l -0.02328,-0.008 c -0.155222,0.56656 -0.442383,1.16417 -0.861483,1.54446 l 0.682978,0.38806 c 0.442383,-0.41134 0.6985,-1.0788 0.877005,-1.69192 l -0.636411,-0.21731 c 0.939095,-0.67522 1.598789,-1.7773 1.948039,-3.32176 z m -1.086555,3.22862 c 0.09313,0.49672 0.147461,1.14089 0.131938,1.55223 l 0.776112,-0.11642 c 0,-0.4191 -0.06209,-1.04775 -0.170745,-1.54446 z m 1.071033,0.0233 c 0.194028,0.48895 0.357011,1.12536 0.395817,1.5367 l 0.752827,-0.22507 c -0.05433,-0.41134 -0.232833,-1.03223 -0.434622,-1.51342 z m 1.109839,-0.12418 c 0.294922,0.54328 0.589844,1.26506 0.675216,1.69968 l 0.799395,-0.2794 c -0.108656,-0.45014 -0.426861,-1.14088 -0.737306,-1.66087 z" />
      <path
         id="path4927"
         style="fill:#ffffff;stroke-width:0.26458332"
         d="m 74.154289,123.01614 c -0.06209,0.29492 -0.147461,0.66746 -0.147461,1.10984 0,1.05551 0.877005,1.64536 2.638777,1.64536 1.078795,0 2.002367,-0.1009 2.669823,-0.25612 l -0.0078,-1.08656 c -0.682978,0.18627 -1.660878,0.30269 -2.700867,0.30269 -1.109839,0 -1.567745,-0.35701 -1.567745,-0.84596 0,-0.25612 0.05433,-0.49671 0.124178,-0.77611 z m 4.291894,-3.73309 c 0.108656,0.15522 0.225073,0.35701 0.333728,0.5588 -0.589844,0.0543 -1.435806,0.10089 -2.173111,0.10089 -0.807156,0 -1.521178,-0.031 -2.087739,-0.0931 v 1.02447 c 0.620889,0.0466 1.288344,0.0854 2.0955,0.0854 0.729544,0 1.684161,-0.0543 2.219678,-0.0931 v -0.92357 c 0.07761,0.15522 0.155222,0.30269 0.217311,0.42686 l 0.62865,-0.27164 c -0.147461,-0.28716 -0.426861,-0.77611 -0.620889,-1.06327 z m 0.915811,-0.34925 c 0.217312,0.29492 0.465667,0.74506 0.62865,1.07103 l 0.613128,-0.26388 c -0.131939,-0.27164 -0.4191,-0.76835 -0.62865,-1.05551 z" />
      <path
         id="path4929"
         style="fill:#ffffff;stroke-width:0.26458332"
         d="m 82.76136,123.91643 c -0.1397,0.19403 -0.248355,0.26388 -0.403578,0.26388 -0.155222,0 -0.287161,-0.14746 -0.287161,-0.36477 0,-0.48119 0.465667,-1.00119 1.319389,-1.13313 -0.217311,0.47343 -0.434622,0.94686 -0.62865,1.23402 z m 5.386211,-0.61313 c -0.225072,-0.14746 -0.504472,-0.33372 -0.822677,-0.51223 0.07761,-0.43462 0.116416,-0.91581 0.147461,-1.42804 l -1.008945,-0.11642 c 0.03105,0.24835 0.02328,0.54328 0.0078,0.8382 -0.0078,0.0854 -0.01552,0.17074 -0.02328,0.26388 -0.496711,-0.21731 -1.055511,-0.40358 -1.653117,-0.49671 0.271639,-0.65194 0.551039,-1.31939 0.752828,-1.64536 0.06209,-0.10866 0.147461,-0.20955 0.256117,-0.32597 l -0.613128,-0.48119 c -0.131939,0.0543 -0.333728,0.1009 -0.519994,0.11642 -0.357012,0.0311 -1.179689,0.0621 -1.614312,0.0621 -0.170744,0 -0.434622,-0.008 -0.636411,-0.031 l 0.03881,0.99342 c 0.194028,-0.0311 0.465667,-0.0621 0.62865,-0.0699 0.34925,-0.0233 1.008944,-0.0466 1.311628,-0.0543 -0.178506,0.36477 -0.395817,0.88477 -0.613128,1.38148 -1.544461,0.0699 -2.623256,0.98566 -2.623256,2.17311 0,0.77611 0.504472,1.24178 1.179689,1.24178 0.527756,0 0.892528,-0.20955 1.195211,-0.67522 0.271639,-0.42686 0.605367,-1.18745 0.892528,-1.84714 0.651933,0.0931 1.2573,0.32596 1.800578,0.62088 -0.256117,0.6985 -0.791633,1.43581 -1.9558,1.93252 l 0.822678,0.66746 c 1.024466,-0.53552 1.60655,-1.21074 1.948039,-2.07998 0.232833,0.17074 0.457905,0.35701 0.659694,0.53552 z" />
    </g>
  </g>
</svg>
