<?xml version="1.0" encoding="UTF-8" standalone="no"?>
<svg
   xmlns:dc="http://purl.org/dc/elements/1.1/"
   xmlns:cc="http://creativecommons.org/ns#"
   xmlns:rdf="http://www.w3.org/1999/02/22-rdf-syntax-ns#"
   xmlns:svg="http://www.w3.org/2000/svg"
   xmlns="http://www.w3.org/2000/svg"
   width="41.217121mm"
   height="9.8391924mm"
   viewBox="0 0 41.217121 9.8391924"
   version="1.1"
   id="svg851">
  <defs
     id="defs845" />
  <metadata
     id="metadata848">
    <rdf:RDF>
      <cc:Work
         rdf:about="">
        <dc:format>image/svg+xml</dc:format>
        <dc:type
           rdf:resource="http://purl.org/dc/dcmitype/StillImage" />
        <dc:title></dc:title>
      </cc:Work>
    </rdf:RDF>
  </metadata>
  <g
     id="layer1"
     transform="translate(-52.024876,-86.355042)">
    <g
       id="text855"
       style="font-style:normal;font-weight:normal;font-size:10.58333302px;line-height:1.25;font-family:sans-serif;letter-spacing:0px;word-spacing:0px;fill:#000000;fill-opacity:1;stroke:none;stroke-width:0.26458332"
       aria-label="不燃ごみ">
      <path
         id="path1259"
         style="fill:#f7f9f9;fill-opacity:1;stroke-width:0.26458332"
         d="m 60.541151,93.217672 q -1.364257,-1.529623 -2.89388,-2.439128 l 0.578776,-0.74414 q 1.612305,0.826823 3.059245,2.397786 z m -8.144205,-5.78776 h 8.68164 v 0.909505 h -3.596679 q -0.124024,0.413411 -0.372071,0.868164 v 6.697265 H 56.15899 V 90.61318 q -1.405599,1.777669 -3.555338,2.728515 l -0.578776,-0.950846 q 3.059244,-1.281576 4.423502,-4.051432 h -4.051432 z" />
      <path
         id="path1261"
         style="fill:#f7f9f9;fill-opacity:1;stroke-width:0.26458332"
         d="m 71.579237,93.259013 q -1.281575,-1.033529 -1.860351,-2.315104 -0.496094,1.694987 -1.860352,2.563151 L 67.36244,92.845601 q 1.694987,-1.281575 1.819011,-3.183268 h -1.033529 q -0.37207,2.315104 -2.356445,3.720703 L 65.336724,92.80426 q 1.116211,-0.785481 1.488281,-1.529622 l -0.785481,-0.702799 q -0.124024,0.289388 -0.496094,0.74414 l -0.496094,-0.537435 q 0.992188,-1.157552 1.198893,-4.010091 l 0.744141,0.08268 q 0.289388,0.08268 -0.08268,0.206705 l -0.08268,0.661459 h 1.570964 q 0,0.702799 -0.124024,1.281575 h 0.909506 v -2.232422 h 0.785481 q 0.33073,0.04134 0.04134,0.248047 v 1.984375 h 1.777669 v 0.661458 h -1.777669 q 0.289388,1.612305 2.025716,2.852539 z m -4.299479,2.604492 q 0.08268,-0.950846 -0.08268,-1.984375 l 0.702799,-0.04134 q 0.330729,0.909505 0.248047,1.943034 z m -0.702799,-1.860351 q -0.206706,1.157552 -0.826823,2.067057 l -0.7028,-0.454753 q 0.578776,-0.826823 0.868164,-1.901692 z m 0.537434,-3.265951 q 0.124024,-0.206706 0.248047,-0.702799 l -0.909505,-0.578776 -0.206706,0.620117 z m -3.596679,-1.694987 q 0.330729,0.04134 0,0.248047 0.04134,1.529622 -0.248047,2.645833 l -0.661458,-0.454752 q 0.289388,-1.198893 0.248047,-2.563151 z m 1.860351,-0.661458 0.330729,0.620117 q 0.165365,0.330729 -0.124023,0.206706 l -0.950846,0.74414 v 3.017904 q 0.537435,0.37207 0.909505,1.033529 l -0.454753,0.74414 q -0.37207,-0.620117 -0.661458,-0.909505 -0.248047,1.405599 -1.198893,2.356445 L 62.690891,95.532776 Q 63.931125,94.2512 63.931125,92.43219 v -5.663737 h 0.661459 q 0.330729,0.04134 0.04134,0.248047 v 2.108398 z m 5.41569,-1.116211 q 0.372071,0.248047 0.785482,0.868164 l -0.620117,0.413411 q -0.124024,-0.37207 -0.7028,-0.909505 z m -4.051432,1.116211 -0.124023,0.578776 0.909505,0.496094 q 0.08268,-0.372071 0.165364,-1.07487 z m 4.423503,7.400065 q -0.413412,-1.07487 -1.07487,-1.901693 l 0.661458,-0.289388 q 0.744141,0.744141 1.240234,1.81901 z m -1.77767,-1.984375 q 0.413412,0.785482 0.661459,1.777669 l -0.868164,0.165365 q -0.165365,-1.033529 -0.496094,-1.819011 z" />
      <path
         id="path1263"
         style="fill:#f7f9f9;fill-opacity:1;stroke-width:0.26458332"
         d="m 81.377088,94.2512 v 0.909506 h -4.547526 q -1.281575,0 -1.777669,-0.496094 -0.496094,-0.496094 -0.496094,-1.322917 0,-0.454752 0.165365,-1.07487 l 0.950846,0.124024 q -0.206705,0.661458 -0.206705,0.950846 0,0.372071 0.248046,0.620117 0.289388,0.289388 1.157553,0.289388 z m -6.201171,-5.167643 v -0.909505 h 5.374348 v 0.909505 z m 6.15983,-2.728515 q 0.7028,0.37207 1.570964,1.033528 l -0.372071,0.578776 q -0.909505,-0.661458 -1.570963,-1.033528 z m -0.578776,0.950846 q 0.7028,0.37207 1.570964,1.033529 l -0.372071,0.578776 q -0.909505,-0.661459 -1.570963,-1.033529 z" />
      <path
         id="path1265"
         style="fill:#f7f9f9;fill-opacity:1;stroke-width:0.26458332"
         d="m 91.257623,92.556213 q -0.413412,1.860352 -1.612305,3.183269 l -0.868164,-0.496094 q 1.281576,-1.198893 1.694987,-2.976563 -1.44694,-0.537434 -2.935221,-0.74414 -1.116211,2.397786 -1.488281,2.769857 -0.496094,0.496093 -1.157552,0.496093 -0.496094,0 -0.826823,-0.330729 -0.372071,-0.37207 -0.372071,-1.116211 0,-0.868164 0.826823,-1.694987 0.909505,-0.909505 2.439128,-0.909505 0.496093,-1.281575 0.909505,-2.397786 -1.157552,0.289388 -2.315104,0.537435 l -0.37207,-0.826823 q 1.364257,-0.165365 2.604492,-0.454753 l 0.496093,-0.206706 0.7028,0.537435 q 0.413411,0.248047 -0.04134,0.372071 -0.537435,0.950846 -1.157552,2.480468 1.322916,0.165365 2.811197,0.661459 0.08268,-0.992188 0.04134,-2.439128 l 0.785481,0.165365 q 0.454753,0.08268 0.08268,0.330729 0,1.364258 -0.08268,2.232422 0.785482,0.289388 1.819011,0.826822 l -0.413412,0.826823 q -0.868164,-0.496093 -1.570963,-0.826823 z m -4.588867,-1.033528 q -0.950847,0 -1.529623,0.578776 -0.661458,0.661458 -0.661458,1.240234 0,0.248047 0.165365,0.413412 0.124023,0.124023 0.37207,0.124023 0.37207,0 0.661458,-0.454753 0.248047,-0.37207 0.992188,-1.901692 z" />
    </g>
  </g>
</svg>
