<?xml version="1.0" encoding="UTF-8" standalone="no"?>
<svg
   xmlns:dc="http://purl.org/dc/elements/1.1/"
   xmlns:cc="http://creativecommons.org/ns#"
   xmlns:rdf="http://www.w3.org/1999/02/22-rdf-syntax-ns#"
   xmlns:svg="http://www.w3.org/2000/svg"
   xmlns="http://www.w3.org/2000/svg"
   id="svg5013"
   version="1.1"
   viewBox="0 0 37.707115 7.0858946"
   height="7.0858946mm"
   width="37.707115mm">
  <defs
     id="defs5007" />
  <metadata
     id="metadata5010">
    <rdf:RDF>
      <cc:Work
         rdf:about="">
        <dc:format>image/svg+xml</dc:format>
        <dc:type
           rdf:resource="http://purl.org/dc/dcmitype/StillImage" />
        <dc:title></dc:title>
      </cc:Work>
    </rdf:RDF>
  </metadata>
  <g
     transform="translate(-83.643712,-137.66186)"
     id="layer1">
    <g
       id="text5017"
       style="font-style:normal;font-variant:normal;font-weight:bold;font-stretch:normal;font-size:7.76111126px;line-height:1.25;font-family:'Noto Sans CJK JP';-inkscape-font-specification:'Noto Sans CJK JP, Bold';font-variant-ligatures:normal;font-variant-caps:normal;font-variant-numeric:normal;font-feature-settings:normal;text-align:start;letter-spacing:0px;word-spacing:0px;writing-mode:lr-tb;text-anchor:start;fill:#000000;fill-opacity:1;stroke:none;stroke-width:0.26458332"
       aria-label="ガラスビン">
      <path
         id="path5019"
         style="fill:#ffffff;stroke-width:0.26458332"
         d="m 89.736185,139.15199 c -0.147461,-0.28716 -0.4191,-0.78387 -0.613128,-1.06327 l -0.613128,0.24835 c 0.20955,0.30269 0.450144,0.76059 0.605367,1.0788 z m -2.685345,0.38806 c 0.01552,-0.22508 0.02328,-0.45015 0.03105,-0.69074 0.0078,-0.18627 0.02328,-0.51224 0.04657,-0.6985 h -1.140883 c 0.03104,0.18626 0.05433,0.54328 0.05433,0.71402 0,0.23283 -0.0078,0.45791 -0.01552,0.67522 h -1.109838 c -0.294923,0 -0.6985,-0.0155 -1.024467,-0.0543 v 1.02447 c 0.333728,-0.031 0.760589,-0.0388 1.024467,-0.0388 h 1.024466 c -0.170744,1.17969 -0.5588,2.05669 -1.280583,2.77072 -0.310445,0.3182 -0.690739,0.57432 -1.016706,0.75282 l 0.900289,0.72955 c 1.389239,-0.98566 2.126545,-2.1964 2.413706,-4.25309 h 1.74625 c 0,0.8382 -0.100895,2.39042 -0.325967,2.87937 -0.08537,0.19403 -0.194028,0.2794 -0.442383,0.2794 -0.302684,0 -0.706261,-0.0466 -1.086556,-0.10865 l 0.116417,1.03222 c 0.380294,0.031 0.845961,0.0621 1.288344,0.0621 0.535517,0 0.830439,-0.20179 1.001184,-0.58984 0.333728,-0.79163 0.426861,-2.96475 0.457905,-3.80295 0,-0.0854 0.03104,-0.2794 0.05433,-0.40357 l -0.667456,-0.33373 c -0.194027,0.0388 -0.395816,0.0543 -0.589844,0.0543 z m 2.3749,-1.55223 c 0.20955,0.29493 0.465667,0.74507 0.620889,1.07104 l 0.620889,-0.27164 c -0.1397,-0.27164 -0.426861,-0.76059 -0.62865,-1.05551 z" />
      <path
         id="path5021"
         style="fill:#ffffff;stroke-width:0.26458332"
         d="m 97.241179,140.1687 c -0.108655,0.0466 -0.318205,0.0776 -0.566561,0.0776 h -3.84175 c -0.240594,0 -0.574322,-0.0155 -0.900289,-0.0466 v 1.00895 c 0.325967,-0.031 0.714022,-0.0388 0.900289,-0.0388 h 3.748617 c -0.1397,0.43462 -0.380295,0.91581 -0.799395,1.34267 -0.589844,0.60537 -1.521178,1.1176 -2.693105,1.3582 l 0.776111,0.877 c 0.993422,-0.2794 1.986844,-0.80715 2.770717,-1.6764 0.582083,-0.64417 0.915811,-1.397 1.148644,-2.14983 0.03104,-0.0854 0.09313,-0.22507 0.147461,-0.32596 z m -4.594578,-0.82268 c 0.225073,-0.0155 0.5588,-0.0233 0.807156,-0.0233 h 2.972506 c 0.2794,0 0.644172,0.008 0.853722,0.0233 v -1.00118 c -0.217311,0.031 -0.597606,0.0388 -0.8382,0.0388 h -2.988028 c -0.263878,0 -0.589845,-0.008 -0.807156,-0.0388 z" />
      <path
         id="path5023"
         style="fill:#ffffff;stroke-width:0.26458332"
         d="m 104.36176,138.56215 c -0.15523,0.0543 -0.46567,0.10089 -0.80716,0.10089 h -2.73191 c -0.23283,0 -0.70626,-0.0233 -0.915812,-0.0543 v 1.10208 c 0.162982,-0.008 0.589842,-0.0543 0.915812,-0.0543 h 2.63102 c -0.17075,0.55104 -0.64418,1.31939 -1.15641,1.90148 -0.72954,0.81491 -1.93252,1.75401 -3.182055,2.22743 l 0.799394,0.8382 c 1.063271,-0.50447 2.095501,-1.31162 2.918181,-2.18087 0.72954,0.70626 1.45132,1.4979 1.9558,2.1964 l 0.88476,-0.76835 c -0.4579,-0.5588 -1.397,-1.55223 -2.16535,-2.21968 0.52,-0.6985 0.95462,-1.52894 1.2185,-2.13431 0.0699,-0.15522 0.20955,-0.39581 0.27164,-0.48119 z" />
      <path
         id="path5025"
         style="fill:#ffffff;stroke-width:0.26458332"
         d="m 112.6351,139.07438 c -0.14746,-0.28716 -0.42686,-0.77611 -0.62089,-1.06327 l -0.61313,0.25611 c 0.20955,0.29493 0.45015,0.75283 0.60537,1.07104 z m -4.02802,2.56117 c 1.00895,-0.24836 2.25849,-0.63641 3.04236,-0.94686 0.25612,-0.0931 0.60537,-0.24059 0.90805,-0.36477 l -0.4191,-0.98566 c -0.30268,0.18626 -0.56656,0.31044 -0.84596,0.4191 -0.69074,0.29492 -1.76953,0.63641 -2.68535,0.86148 v -1.46685 c 0,-0.21731 0.0233,-0.56656 0.0621,-0.80715 h -1.14864 c 0.0388,0.24059 0.0621,0.63641 0.0621,0.80715 v 4.22981 c 0,0.66745 0.38805,1.03999 1.06327,1.1564 0.33373,0.0543 0.79939,0.0931 1.30387,0.0931 0.85372,0 2.03341,-0.0543 2.76295,-0.16299 v -1.13312 c -0.63641,0.17074 -1.89371,0.27164 -2.70086,0.27164 -0.34925,0 -0.66746,-0.0155 -0.90029,-0.0466 -0.34925,-0.0699 -0.50448,-0.15522 -0.50448,-0.48895 z m 3.70982,-3.72534 c 0.21731,0.29493 0.46566,0.74507 0.62865,1.07104 l 0.61312,-0.26388 c -0.1397,-0.27164 -0.4191,-0.76835 -0.62865,-1.05551 z" />
      <path
         id="path5027"
         style="fill:#ffffff;stroke-width:0.26458332"
         d="m 115.91805,138.39916 -0.72954,0.77611 c 0.56656,0.39582 1.5367,1.24178 1.94027,1.6764 l 0.79164,-0.81491 c -0.45015,-0.46567 -1.45909,-1.27282 -2.00237,-1.6376 z m -0.97014,5.1689 0.65193,1.02447 c 1.09432,-0.18627 2.0955,-0.62089 2.87938,-1.09432 1.24954,-0.75282 2.28176,-1.82386 2.87161,-2.87161 l -0.60537,-1.09431 c -0.48895,1.04775 -1.50565,2.2352 -2.82504,3.01907 -0.75283,0.45014 -1.76178,0.84596 -2.97251,1.0167 z" />
    </g>
  </g>
</svg>
