<?xml version="1.0" encoding="UTF-8" standalone="no"?>
<svg
   xmlns:dc="http://purl.org/dc/elements/1.1/"
   xmlns:cc="http://creativecommons.org/ns#"
   xmlns:rdf="http://www.w3.org/1999/02/22-rdf-syntax-ns#"
   xmlns:svg="http://www.w3.org/2000/svg"
   xmlns="http://www.w3.org/2000/svg"
   width="50.849609mm"
   height="9.7978516mm"
   viewBox="0 0 50.849609 9.7978516"
   version="1.1"
   id="svg911">
  <defs
     id="defs905" />
  <metadata
     id="metadata908">
    <rdf:RDF>
      <cc:Work
         rdf:about="">
        <dc:format>image/svg+xml</dc:format>
        <dc:type
           rdf:resource="http://purl.org/dc/dcmitype/StillImage" />
        <dc:title></dc:title>
      </cc:Work>
    </rdf:RDF>
  </metadata>
  <g
     id="layer1"
     transform="translate(-66.334826,-99.838166)">
    <g
       id="text915"
       style="font-style:normal;font-weight:normal;font-size:10.58333302px;line-height:1.25;font-family:sans-serif;letter-spacing:0px;word-spacing:0px;fill:#000000;fill-opacity:1;stroke:none;stroke-width:0.26458332"
       aria-label="ガラスビン">
      <path
         id="path1320"
         style="fill:#f7f9f9;fill-opacity:1;stroke-width:0.26458332"
         d="m 70.344917,102.81473 3.265951,-0.12403 v 2.56316 q 0,2.02571 -0.372071,2.85253 -0.37207,0.82683 -1.570963,0.82683 h -0.992188 l -0.124023,-1.03353 q 0.620117,0.0827 1.07487,0.0827 0.620117,0 0.785481,-0.41341 0.248047,-0.66146 0.248047,-2.3151 v -1.69499 l -2.356445,0.0827 q -0.248047,3.514 -3.26595,5.53971 l -0.7028,-0.7028 q 2.852539,-1.90169 3.017904,-4.83691 l -2.935222,0.0827 -0.08268,-0.82682 3.059245,-0.0827 v -2.31511 h 0.868164 q 0.454752,0.0827 0.08268,0.33073 z m 3.307292,-0.7028 q -0.7028,-0.82682 -1.281576,-1.36426 l 0.496094,-0.49609 q 0.578776,0.53743 1.281575,1.36425 z m 1.157552,-0.41341 q -0.744141,-0.86817 -1.281576,-1.36426 l 0.496094,-0.496094 q 0.578776,0.537434 1.281575,1.364254 z" />
      <path
         id="path1322"
         style="fill:#f7f9f9;fill-opacity:1;stroke-width:0.26458332"
         d="m 78.861193,108.80919 q 4.010091,-1.03352 4.506185,-4.34082 h -6.283854 v -0.9095 h 6.325195 l 0.37207,-0.12402 0.744141,0.45475 q 0.248047,0.2067 -0.08268,0.37207 -0.661458,4.13411 -4.836913,5.37435 z m 4.671549,-6.69726 h -5.705078 v -0.90951 h 5.705078 z" />
      <path
         id="path1324"
         style="fill:#f7f9f9;fill-opacity:1;stroke-width:0.26458332"
         d="m 92.1317,105.00581 q 1.77767,1.36426 3.513998,3.14193 l -0.826823,0.7028 q -1.736328,-1.81902 -3.348633,-3.05925 -1.612305,1.73633 -3.679362,3.10059 l -0.785482,-0.7028 q 4.382162,-2.85254 5.622396,-5.70508 l -4.506185,0.28939 -0.124023,-0.99219 4.795573,-0.20671 0.496093,-0.12402 0.661459,0.66146 q 0.289388,0.28939 -0.165365,0.37207 -0.785482,1.36426 -1.653646,2.52181 z" />
      <path
         id="path1326"
         style="fill:#f7f9f9;fill-opacity:1;stroke-width:0.26458332"
         d="m 105.36087,103.64155 q 0.2067,0.37207 -0.37207,0.12402 -2.31511,0.62012 -4.87826,0.95085 v 2.68718 q 0,0.53743 0.53744,0.53743 h 4.75423 l -0.0827,0.90951 h -4.83692 q -1.322914,0 -1.322914,-1.07487 v -6.49056 h 0.826823 q 0.454751,0.0827 0.124021,0.33072 v 2.1084 q 2.8112,-0.33073 4.9196,-1.03353 z m -0.4961,-1.36426 q -0.66145,-0.82682 -1.28157,-1.44694 l 0.57877,-0.45475 q 0.57878,0.53744 1.28158,1.44694 z m 1.1989,-0.57877 q -0.74414,-0.86817 -1.28158,-1.4056 l 0.4961,-0.454754 q 0.62011,0.578774 1.32291,1.405594 z" />
      <path
         id="path1328"
         style="fill:#f7f9f9;fill-opacity:1;stroke-width:0.26458332"
         d="m 117.18443,103.97228 q -2.19108,4.54753 -7.35872,4.79557 -0.20671,0.53744 -0.41341,0.0827 l -0.33073,-1.07487 q 5.37435,-0.12403 7.2347,-4.42351 z m -5.8291,0 q -1.11621,-1.03353 -2.1084,-1.69499 l 0.7028,-0.86816 q 0.86817,0.53743 2.19108,1.77767 z" />
    </g>
  </g>
</svg>
