<?xml version="1.0" encoding="UTF-8" standalone="no"?>
<svg
   xmlns:dc="http://purl.org/dc/elements/1.1/"
   xmlns:cc="http://creativecommons.org/ns#"
   xmlns:rdf="http://www.w3.org/1999/02/22-rdf-syntax-ns#"
   xmlns:svg="http://www.w3.org/2000/svg"
   xmlns="http://www.w3.org/2000/svg"
   id="svg6196"
   version="1.1"
   viewBox="0 0 46.82378 9.000001"
   height="9.000001mm"
   width="46.82378mm">
  <defs
     id="defs6190" />
  <metadata
     id="metadata6193">
    <rdf:RDF>
      <cc:Work
         rdf:about="">
        <dc:format>image/svg+xml</dc:format>
        <dc:type
           rdf:resource="http://purl.org/dc/dcmitype/StillImage" />
        <dc:title></dc:title>
      </cc:Work>
    </rdf:RDF>
  </metadata>
  <g
     transform="translate(-75.637231,-181.31222)"
     id="layer1">
    <g
       transform="matrix(0.03537243,0,0,0.03093361,76.447964,181.48716)"
       id="g6235">
      <g
         style="display:inline;opacity:1;fill:#ffffff"
         id="g5111"
         transform="matrix(0.56825335,0,0,0.56825335,-69.445647,-5.6552144)">
        <g
           id="g5097"
           style="fill:#ffffff">
          <path
             id="path5091"
             style="fill:#ffffff"
             d="m 311.406,149.531 c 20.156,20.156 118.719,92.188 118.719,188.344 C 430.125,434.031 352.172,512 256,512 159.844,512 81.875,434.031 81.875,337.875 c 0,-96.156 98.563,-168.188 118.719,-188.344 z"
             class="st0" />
          <path
             id="path5093"
             style="fill:#ffffff"
             d="m 311.406,97.125 c 0,0 5.125,-17.594 32.75,-39.906 26.5,-21.406 6.156,-50.969 -32.75,-40.063 C 284.547,24.656 293.672,0 256,0 218.328,0 227.453,24.656 200.594,17.156 161.703,6.25 141.36,35.812 167.86,57.219 c 27.609,22.313 32.734,39.906 32.734,39.906 z"
             class="st0" />
          <path
             id="path5095"
             style="fill:#ffffff"
             d="m 323.891,123.328 c 0,6.297 -5.109,11.406 -11.391,11.406 H 199.516 c -6.297,0 -11.406,-5.109 -11.406,-11.406 v 0 c 0,-6.297 5.109,-11.391 11.406,-11.391 H 312.5 c 6.281,0.001 11.391,5.094 11.391,11.391 z"
             class="st0" />
        </g>
      </g>
      <g
         style="display:inline;opacity:1;fill:#808080"
         id="g5364"
         transform="matrix(0.26240037,0.03391732,-0.03391732,0.26240037,38.567638,109.70266)">
        <g
           id="g5352"
           style="fill:#808080">
          <path
             id="path5350"
             style="fill:#808080"
             d="m 300.468,146.63 c -4.805,-6.013 -14.422,-97.351 -14.422,-97.351 -1.974,-12.832 -1.512,-14.325 1.376,-20.435 h 0.52 c 7.961,0 14.422,-6.455 14.422,-14.423 C 302.364,6.454 295.903,0 287.942,0 h -63.883 c -7.967,0 -14.428,6.454 -14.428,14.422 0,7.968 6.461,14.423 14.428,14.423 h 0.52 c 2.882,6.11 3.351,7.603 1.376,20.435 0,0 -9.617,91.338 -14.422,97.351 -7.123,8.902 -34.857,13.22 -34.857,64.902 0,42.065 0,273.214 0,273.214 0,15.052 12.202,27.253 27.254,27.253 h 104.136 c 15.059,0 27.26,-12.202 27.26,-27.253 0,0 0,-231.149 0,-273.214 -0.001,-51.683 -27.735,-56.001 -34.858,-64.903 z"
             class="st0" />
        </g>
      </g>
      <g
         style="display:inline;opacity:1;fill:#808080"
         id="g5532"
         transform="matrix(0.15710291,-0.01753585,0.01753585,0.15710291,5.1250813,135.63502)">
        <g
           id="g5520"
           style="fill:#808080">
          <path
             id="path5518"
             style="fill:#808080"
             d="m 353.557,129.408 c -3.46,-8.014 -5.789,-25.91 -7.188,-39.847 9.926,-9.473 16.02,-22.822 16.02,-37.555 C 362.389,23.328 339.061,0 310.383,0 H 201.617 c -28.678,0 -52.006,23.328 -52.006,52.006 0,14.733 6.094,28.082 16.02,37.555 -1.398,13.937 -3.728,31.833 -7.188,39.847 -15.604,36.097 -28.514,70.49 -28.514,125.962 v 187.486 c 0,38.121 31.022,69.143 69.143,69.143 h 113.849 c 38.128,0 69.15,-31.022 69.15,-69.143 V 255.371 c 0,-55.473 -12.91,-89.866 -28.514,-125.963 z m -165.439,12.821 c 8.082,-18.7 10.396,-57.818 11.542,-70.743 -9.934,-0.989 -17.725,-9.278 -17.725,-19.48 0,-10.872 8.803,-19.682 19.682,-19.682 h 108.767 c 10.872,0 19.682,8.81 19.682,19.682 0,10.202 -7.79,18.492 -17.732,19.48 1.153,12.925 3.468,52.043 11.548,70.743 11.37,26.312 20.344,49.878 24.027,80.818 H 164.083 c 3.692,-30.94 12.658,-54.506 24.035,-80.818 z M 349.74,442.857 c 0,20.337 -16.482,36.818 -36.819,36.818 H 199.072 c -20.329,0 -36.818,-16.481 -36.818,-36.818 0,0 0,-89.702 0,-145.458 H 349.74 c 0,55.756 0,145.458 0,145.458 z"
             class="st0" />
        </g>
      </g>
    </g>
    <g
       id="text6239"
       style="font-style:normal;font-variant:normal;font-weight:bold;font-stretch:normal;font-size:7.76111126px;line-height:1.25;font-family:'Noto Sans CJK JP';-inkscape-font-specification:'Noto Sans CJK JP, Bold';font-variant-ligatures:normal;font-variant-caps:normal;font-variant-numeric:normal;font-feature-settings:normal;text-align:start;letter-spacing:0px;word-spacing:0px;writing-mode:lr-tb;text-anchor:start;fill:#ffffff;fill-opacity:1;stroke:none;stroke-width:0.26458332"
       aria-label="ガラスビン">
      <path
         id="path6241"
         style="fill:#ffffff;stroke-width:0.26458332"
         d="m 90.846368,184.71646 c -0.147461,-0.28716 -0.4191,-0.78387 -0.613127,-1.06327 l -0.613128,0.24835 c 0.20955,0.30269 0.450144,0.76059 0.605366,1.0788 z m -2.685344,0.38805 c 0.01552,-0.22507 0.02328,-0.45014 0.03104,-0.69073 0.0078,-0.18627 0.02328,-0.51224 0.04657,-0.6985 h -1.140883 c 0.03104,0.18626 0.05433,0.54327 0.05433,0.71402 0,0.23283 -0.0078,0.4579 -0.01552,0.67521 h -1.109839 c -0.294922,0 -0.6985,-0.0155 -1.024466,-0.0543 v 1.02446 c 0.333727,-0.031 0.760588,-0.0388 1.024466,-0.0388 h 1.024467 c -0.170745,1.17969 -0.5588,2.05669 -1.280583,2.77071 -0.310445,0.31821 -0.690739,0.57433 -1.016706,0.75283 l 0.900289,0.72955 c 1.389239,-0.98566 2.126544,-2.1964 2.413706,-4.25309 h 1.74625 c 0,0.8382 -0.100895,2.39042 -0.325967,2.87937 -0.08537,0.19403 -0.194028,0.2794 -0.442383,0.2794 -0.302684,0 -0.706262,-0.0466 -1.086556,-0.10866 l 0.116417,1.03223 c 0.380294,0.031 0.845961,0.0621 1.288344,0.0621 0.535517,0 0.830439,-0.20179 1.001183,-0.58984 0.333728,-0.79164 0.426862,-2.96475 0.457906,-3.80295 0,-0.0854 0.03104,-0.2794 0.05433,-0.40358 l -0.667456,-0.33372 c -0.194028,0.0388 -0.395816,0.0543 -0.589844,0.0543 z m 2.3749,-1.55222 c 0.20955,0.29492 0.465667,0.74507 0.620889,1.07104 l 0.620889,-0.27164 c -0.1397,-0.27164 -0.426861,-0.76059 -0.62865,-1.05551 z" />
      <path
         id="path6243"
         style="fill:#ffffff;stroke-width:0.26458332"
         d="m 98.351363,185.73316 c -0.108656,0.0466 -0.318206,0.0776 -0.566561,0.0776 h -3.84175 c -0.240595,0 -0.574323,-0.0155 -0.900289,-0.0466 v 1.00894 c 0.325966,-0.031 0.714022,-0.0388 0.900289,-0.0388 h 3.748616 c -0.1397,0.43462 -0.380294,0.91581 -0.799394,1.34267 -0.589844,0.60537 -1.521178,1.1176 -2.693106,1.35819 l 0.776112,0.87701 c 0.993422,-0.2794 1.986844,-0.80716 2.770716,-1.6764 0.582084,-0.64417 0.915811,-1.397 1.148645,-2.14983 0.03104,-0.0854 0.09313,-0.22507 0.147461,-0.32596 z m -4.594578,-0.82267 c 0.225072,-0.0155 0.5588,-0.0233 0.807156,-0.0233 h 2.972505 c 0.2794,0 0.644172,0.008 0.853722,0.0233 v -1.00119 c -0.217311,0.031 -0.597605,0.0388 -0.8382,0.0388 h -2.988027 c -0.263878,0 -0.589845,-0.008 -0.807156,-0.0388 z" />
      <path
         id="path6245"
         style="fill:#ffffff;stroke-width:0.26458332"
         d="m 105.47194,184.12661 c -0.15522,0.0543 -0.46567,0.1009 -0.80716,0.1009 h -2.73191 c -0.23283,0 -0.70626,-0.0233 -0.91581,-0.0543 v 1.10208 c 0.16299,-0.008 0.58985,-0.0543 0.91581,-0.0543 h 2.63102 c -0.17074,0.55104 -0.64417,1.31939 -1.15641,1.90147 -0.72954,0.81492 -1.93251,1.75401 -3.18205,2.22744 l 0.79939,0.8382 c 1.06328,-0.50447 2.0955,-1.31163 2.91818,-2.18087 0.72955,0.70626 1.45133,1.49789 1.9558,2.19639 l 0.88477,-0.76835 c -0.45791,-0.5588 -1.397,-1.55222 -2.16535,-2.21967 0.51999,-0.6985 0.95461,-1.52894 1.21849,-2.13431 0.0699,-0.15522 0.20955,-0.39582 0.27164,-0.48119 z" />
      <path
         id="path6247"
         style="fill:#ffffff;stroke-width:0.26458332"
         d="m 113.74529,184.63885 c -0.14747,-0.28716 -0.42687,-0.77611 -0.62089,-1.06327 l -0.61313,0.25611 c 0.20955,0.29492 0.45014,0.75283 0.60537,1.07104 z m -4.02802,2.56116 c 1.00894,-0.24835 2.25848,-0.63641 3.04235,-0.94685 0.25612,-0.0931 0.60537,-0.2406 0.90805,-0.36477 l -0.4191,-0.98566 c -0.30268,0.18626 -0.56656,0.31044 -0.84596,0.4191 -0.69074,0.29492 -1.76953,0.63641 -2.68534,0.86148 v -1.46685 c 0,-0.21731 0.0233,-0.56656 0.0621,-0.80716 h -1.14865 c 0.0388,0.2406 0.0621,0.63641 0.0621,0.80716 v 4.2298 c 0,0.66746 0.38806,1.03999 1.06327,1.15641 0.33373,0.0543 0.7994,0.0931 1.30387,0.0931 0.85372,0 2.03341,-0.0543 2.76296,-0.16298 v -1.13312 c -0.63641,0.17074 -1.89371,0.27164 -2.70087,0.27164 -0.34925,0 -0.66746,-0.0155 -0.90029,-0.0466 -0.34925,-0.0699 -0.50447,-0.15522 -0.50447,-0.48895 z m 3.70981,-3.72533 c 0.21731,0.29492 0.46567,0.74507 0.62865,1.07103 l 0.61313,-0.26387 c -0.1397,-0.27164 -0.4191,-0.76835 -0.62865,-1.05551 z" />
      <path
         id="path6249"
         style="fill:#ffffff;stroke-width:0.26458332"
         d="m 117.02823,183.96363 -0.72954,0.77611 c 0.56656,0.39582 1.5367,1.24178 1.94028,1.6764 l 0.79163,-0.81491 c -0.45014,-0.46567 -1.45909,-1.27283 -2.00237,-1.6376 z m -0.97013,5.1689 0.65193,1.02447 c 1.09432,-0.18627 2.0955,-0.62089 2.87937,-1.09432 1.24954,-0.75283 2.28177,-1.82386 2.87161,-2.87161 l -0.60536,-1.09432 c -0.48895,1.04775 -1.50566,2.2352 -2.82505,3.01908 -0.75283,0.45014 -1.76177,0.84596 -2.9725,1.0167 z" />
    </g>
  </g>
</svg>
