<?xml version="1.0" encoding="UTF-8" standalone="no"?>
<svg
   xmlns:dc="http://purl.org/dc/elements/1.1/"
   xmlns:cc="http://creativecommons.org/ns#"
   xmlns:rdf="http://www.w3.org/1999/02/22-rdf-syntax-ns#"
   xmlns:svg="http://www.w3.org/2000/svg"
   xmlns="http://www.w3.org/2000/svg"
   id="svg6045"
   version="1.1"
   viewBox="0 0 62.353767 9.000001"
   height="9.000001mm"
   width="62.353767mm">
  <defs
     id="defs6039" />
  <metadata
     id="metadata6042">
    <rdf:RDF>
      <cc:Work
         rdf:about="">
        <dc:format>image/svg+xml</dc:format>
        <dc:type
           rdf:resource="http://purl.org/dc/dcmitype/StillImage" />
        <dc:title></dc:title>
      </cc:Work>
    </rdf:RDF>
  </metadata>
  <g
     transform="translate(-75.135924,-151.43644)"
     id="layer1">
    <g
       transform="matrix(0.03537243,0,0,0.03093361,75.954543,152.12863)"
       id="g6135">
      <g
         style="display:inline;opacity:1;fill:#ffffff"
         id="g5111"
         transform="matrix(0.56825335,0,0,0.56825335,-69.6686,-22.376742)">
        <g
           id="g5097"
           style="fill:#ffffff">
          <path
             id="path5091"
             style="fill:#ffffff"
             d="m 311.406,149.531 c 20.156,20.156 118.719,92.188 118.719,188.344 C 430.125,434.031 352.172,512 256,512 159.844,512 81.875,434.031 81.875,337.875 c 0,-96.156 98.563,-168.188 118.719,-188.344 z"
             class="st0" />
          <path
             id="path5093"
             style="fill:#ffffff"
             d="m 311.406,97.125 c 0,0 5.125,-17.594 32.75,-39.906 26.5,-21.406 6.156,-50.969 -32.75,-40.063 C 284.547,24.656 293.672,0 256,0 218.328,0 227.453,24.656 200.594,17.156 161.703,6.25 141.36,35.812 167.86,57.219 c 27.609,22.313 32.734,39.906 32.734,39.906 z"
             class="st0" />
          <path
             id="path5095"
             style="fill:#ffffff"
             d="m 323.891,123.328 c 0,6.297 -5.109,11.406 -11.391,11.406 H 199.516 c -6.297,0 -11.406,-5.109 -11.406,-11.406 v 0 c 0,-6.297 5.109,-11.391 11.406,-11.391 H 312.5 c 6.281,0.001 11.391,5.094 11.391,11.391 z"
             class="st0" />
        </g>
      </g>
      <g
         style="display:inline;opacity:1;fill:#808080"
         id="g5295"
         transform="matrix(0.10483609,-0.01308557,0.01514646,0.12134716,20.589996,120.08156)">
        <g
           id="g5268"
           style="fill:#808080">
          <path
             id="path5236"
             style="fill:#808080"
             d="M 460.909,0 H 51.09 1.331 L 6.086,49.531 46.561,471.106 50.485,512 h 41.08 328.869 41.08 L 465.439,471.106 505.914,49.531 510.669,0 Z M 420.434,466.788 H 91.565 l -4.327,-45.079 h 337.523 z m 6.954,-72.428 H 84.611 L 58.879,126.32 H 453.12 Z M 455.747,98.973 H 56.252 L 51.09,45.212 h 409.818 z"
             class="st0" />
          <path
             id="rect5238"
             d="M 86.363998,149.474 H 107.893 v 56.63 H 86.363998 Z"
             style="fill:#808080" />
          <path
             id="rect5240"
             d="m 132.11,149.474 h 21.529 v 56.63 H 132.11 Z"
             style="fill:#808080" />
          <path
             id="rect5242"
             d="m 177.86099,149.474 h 21.529 v 56.63 h -21.529 z"
             style="fill:#808080" />
          <path
             id="rect5244"
             d="m 223.60699,149.474 h 21.529 v 56.63 h -21.529 z"
             style="fill:#808080" />
          <path
             id="rect5246"
             d="m 269.354,149.474 h 21.528 v 56.63 h -21.528 z"
             style="fill:#808080" />
          <path
             id="rect5248"
             d="m 315.10001,149.474 h 21.529 v 56.63 h -21.529 z"
             style="fill:#808080" />
          <path
             id="rect5250"
             d="m 360.85101,149.474 h 21.529 v 56.63 h -21.529 z"
             style="fill:#808080" />
          <path
             id="rect5252"
             d="m 406.59698,149.474 h 21.528 v 56.63 h -21.528 z"
             style="fill:#808080" />
          <path
             id="rect5254"
             d="m 104.449,331.12601 h 21.529 v 50.034 h -21.529 z"
             style="fill:#808080" />
          <path
             id="rect5256"
             d="m 150.142,331.12601 h 21.529 v 50.034 h -21.529 z"
             style="fill:#808080" />
          <path
             id="rect5258"
             d="m 195.84,331.12601 h 21.529 v 50.034 H 195.84 Z"
             style="fill:#808080" />
          <path
             id="rect5260"
             d="m 241.533,331.12601 h 21.528 v 50.034 h -21.528 z"
             style="fill:#808080" />
          <path
             id="rect5262"
             d="m 287.22699,331.12601 h 21.528 v 50.034 h -21.528 z"
             style="fill:#808080" />
          <path
             id="rect5264"
             d="m 332.92401,331.12601 h 21.529 v 50.034 h -21.529 z"
             style="fill:#808080" />
          <path
             id="rect5266"
             d="m 378.617,331.12601 h 21.529 v 50.034 h -21.529 z"
             style="fill:#808080" />
        </g>
      </g>
      <g
         style="display:inline;opacity:1;fill:#808080"
         id="g5332"
         transform="matrix(0.18053921,0.01345981,-0.01345981,0.18053921,75.241184,126.8908)">
        <g
           id="g5319"
           style="fill:#808080"
           transform="matrix(1.1004927,0.1257376,-0.1257376,1.1004927,-69.932325,-54.890431)">
          <g
             id="g5610"
             transform="matrix(1.0384864,0.12440604,-0.12440604,1.0384864,29.171686,-38.875936)">
            <path
               class="st0"
               d="m 169.55,146.08 0.16,30.216 h 103.943 l -0.16,-30.056 19.652,-0.16 v -27.662 c 0,-7.624 -6.203,-13.827 -13.828,-13.827 l -37.541,0.16 V 76.659 c 0,-5.317 -4.324,-9.639 -9.636,-9.639 h -21.079 c -5.313,0 -9.636,4.322 -9.636,9.639 l 0.16,27.932 h -37.699 c -7.624,0 -13.827,6.203 -13.827,13.827 l 0.16,27.822 z"
               style="fill:#808080"
               id="path5315" />
            <path
               class="st0"
               d="m 378.679,65.83 c -11.93,-22.049 -31.338,-38.89 -54.648,-47.416 -1.987,-0.781 -4.054,-1.452 -6.246,-2.151 -6.771,-2.05 -13.824,-3.388 -20.813,-3.822 L 296.813,0 273.79,0.16 l 0.16,43.976 23.023,-0.16 -0.16,-13.862 v -1.351 c 6.228,0.609 11.51,1.589 16.406,3.068 1.65,0.531 3.303,1.062 5.059,1.745 19.707,7.214 36.089,21.404 46.13,39.959 10.976,20.343 13.372,43.715 6.754,65.818 -6.629,22.134 -21.452,40.354 -41.742,51.3 -10.812,5.836 -22.55,9.166 -34.74,10.177 -0.515,0.039 -1.021,0.137 -1.534,0.168 l -0.16,-8.452 -142.926,0.16 0.094,26.386 c -18.836,8.452 -29.21,19.663 -29.21,31.57 0,0.488 0.072,0.964 0.144,1.44 l 0.262,0.726 -0.27,0.773 c -0.068,0.429 -0.136,0.859 -0.131,1.343 l 21.065,73.95 c 5.875,20.62 5.875,42.418 0,63.042 l -21.071,73.993 c 0,0.492 0.076,0.968 0.152,1.444 l 0.012,1.48 c -0.082,0.5 -0.164,0.999 -0.164,1.507 0,22.958 45.155,41.638 100.66,41.638 55.502,0 100.658,-18.68 100.658,-41.638 0,-0.512 -0.082,-1.011 -0.267,-2.167 l 0.115,-0.816 c 0.076,-0.48 0.152,-0.956 0.146,-1.491 l -21.065,-73.95 c -5.873,-20.624 -5.873,-42.423 0,-63.042 l 21.071,-73.993 c 0,-0.441 -0.068,-0.871 -0.136,-1.3 l -0.008,-1.499 c 0.072,-0.476 0.144,-0.952 0.144,-1.44 0,-11.907 -10.374,-23.118 -29.114,-31.422 l -0.152,-2.213 c 15.703,-0.699 30.551,-4.767 44.131,-12.09 24.1,-13.003 41.708,-34.642 49.578,-60.93 7.862,-26.257 5.014,-54.024 -8.025,-78.177 z"
               style="fill:#808080"
               id="path5317" />
          </g>
        </g>
      </g>
    </g>
    <g
       id="text6139"
       style="font-style:normal;font-variant:normal;font-weight:bold;font-stretch:normal;font-size:7.76111126px;line-height:1.25;font-family:'Noto Sans CJK JP';-inkscape-font-specification:'Noto Sans CJK JP, Bold';font-variant-ligatures:normal;font-variant-caps:normal;font-variant-numeric:normal;font-feature-settings:normal;text-align:start;letter-spacing:0px;word-spacing:0px;writing-mode:lr-tb;text-anchor:start;fill:#ffffff;fill-opacity:1;stroke:none;stroke-width:0.26458332"
       aria-label="廃プラスチック">
      <path
         id="path6141"
         style="fill:#ffffff;stroke-width:0.26458332"
         d="m 89.033433,157.86751 h -0.853722 v -0.67522 h 0.853722 z m 1.288345,-0.67522 v -0.0388 c 0.248355,0.20179 0.527755,0.37254 0.822677,0.51224 0.124178,-0.21731 0.380295,-0.55104 0.574323,-0.6985 -0.325967,-0.13194 -0.636412,-0.31045 -0.90805,-0.52776 0.256116,-0.14746 0.543277,-0.33373 0.776111,-0.52775 l -0.597606,-0.45015 c -0.178505,0.15522 -0.434622,0.34925 -0.690739,0.51224 -0.09313,-0.1009 -0.178505,-0.20955 -0.263878,-0.31821 0.256117,-0.16298 0.5588,-0.35701 0.799395,-0.58208 l -0.582083,-0.4191 c -0.147462,0.13194 -0.357012,0.31044 -0.574323,0.46566 -0.09313,-0.18626 -0.186266,-0.37253 -0.256116,-0.5588 l -0.752828,0.20955 c 0.232833,0.62089 0.543278,1.18745 0.931333,1.66864 h -1.924755 c 0.325966,-0.4191 0.597605,-0.90805 0.783872,-1.44356 l -0.512233,-0.24836 -0.1397,0.031 h -1.567745 v 0.68298 h 1.171928 c -0.09313,0.15522 -0.194028,0.31045 -0.310445,0.45015 -0.194027,-0.1397 -0.426861,-0.28716 -0.62865,-0.39582 l -0.473427,0.51223 c 0.186266,0.11642 0.411338,0.26388 0.589844,0.41134 -0.256117,0.22507 -0.543278,0.41134 -0.8382,0.5588 0.01552,-0.23283 0.01552,-0.45014 0.01552,-0.65193 v -1.86267 h 5.673373 v -0.76835 h -2.739673 v -0.5588 h -0.962377 v 0.5588 h -2.832806 v 2.62326 c 0,1.08655 -0.04657,2.5146 -0.651933,3.50026 0.201788,0.0931 0.5588,0.38029 0.706261,0.54328 0.551039,-0.86149 0.737305,-2.14207 0.791633,-3.23639 0.147461,0.16299 0.318206,0.41134 0.403578,0.57433 0.271639,-0.14747 0.535516,-0.32597 0.783872,-0.52776 h 0.388056 v 0.67522 h -1.2573 v 0.78387 h 1.179689 c -0.147462,0.43462 -0.527756,0.83044 -1.497895,1.10984 0.178506,0.15522 0.426861,0.48119 0.519994,0.67521 1.319389,-0.39581 1.746251,-1.05551 1.870428,-1.78505 h 0.892528 v 0.69074 c 0,0.78387 0.162983,1.03223 0.900289,1.03223 h 0.706261 c 0.566561,0 0.783872,-0.26388 0.861483,-1.14865 -0.225072,-0.0543 -0.574322,-0.18627 -0.745066,-0.3182 -0.02328,0.5976 -0.06209,0.70626 -0.20955,0.70626 h -0.457906 c -0.162983,0 -0.186266,-0.0233 -0.186266,-0.27164 v -0.69074 h 1.311627 v -0.78387 h -1.311627 v -0.67522 z" />
      <path
         id="path6143"
         style="fill:#ffffff;stroke-width:0.26458332"
         d="m 98.540794,154.4759 c -0.248355,0 -0.450144,-0.20179 -0.450144,-0.44238 0,-0.24836 0.201789,-0.45015 0.450144,-0.45015 0.240595,0 0.442384,0.20179 0.442384,0.45015 0,0.24059 -0.201789,0.44238 -0.442384,0.44238 z m -4.951589,-0.26388 c -0.256116,0 -0.6985,-0.031 -0.923572,-0.0621 v 1.09432 c 0.201789,-0.0155 0.566561,-0.031 0.923572,-0.031 h 3.616678 c -0.108655,0.66745 -0.403578,1.54446 -0.915811,2.18863 -0.62865,0.79163 -1.497894,1.45909 -3.042355,1.82386 l 0.845961,0.92357 c 1.389239,-0.44238 2.421466,-1.21073 3.119966,-2.14206 0.651934,-0.86149 0.985661,-2.06446 1.164167,-2.82505 l 0.06209,-0.23283 c 0.03104,0.008 0.06985,0.008 0.100894,0.008 0.504473,0 0.923573,-0.4191 0.923573,-0.92357 0,-0.51224 -0.4191,-0.93134 -0.923573,-0.93134 -0.512233,0 -0.931333,0.4191 -0.931333,0.93134 0,0.0543 0.0078,0.10089 0.01552,0.14746 -0.170744,0.0233 -0.333728,0.031 -0.442383,0.031 z" />
      <path
         id="path6145"
         style="fill:#ffffff;stroke-width:0.26458332"
         d="m 105.94489,155.5935 c -0.10865,0.0466 -0.3182,0.0776 -0.56656,0.0776 h -3.84175 c -0.24059,0 -0.57432,-0.0155 -0.90029,-0.0466 v 1.00894 c 0.32597,-0.031 0.71403,-0.0388 0.90029,-0.0388 h 3.74862 c -0.1397,0.43463 -0.38029,0.91582 -0.79939,1.34268 -0.58985,0.60536 -1.52118,1.1176 -2.69311,1.35819 l 0.77611,0.87701 c 0.99342,-0.2794 1.98685,-0.80716 2.77072,-1.6764 0.58208,-0.64418 0.91581,-1.397 1.14864,-2.14983 0.0311,-0.0854 0.0931,-0.22507 0.14746,-0.32597 z m -4.59457,-0.82268 c 0.22507,-0.0155 0.5588,-0.0233 0.80715,-0.0233 h 2.97251 c 0.2794,0 0.64417,0.008 0.85372,0.0233 v -1.00118 c -0.21731,0.031 -0.59761,0.0388 -0.8382,0.0388 h -2.98803 c -0.26388,0 -0.58984,-0.008 -0.80715,-0.0388 z" />
      <path
         id="path6147"
         style="fill:#ffffff;stroke-width:0.26458332"
         d="m 113.06547,153.98695 c -0.15522,0.0543 -0.46566,0.1009 -0.80715,0.1009 h -2.73191 c -0.23284,0 -0.70627,-0.0233 -0.91582,-0.0543 v 1.10208 c 0.16299,-0.008 0.58985,-0.0543 0.91582,-0.0543 h 2.63101 c -0.17074,0.55104 -0.64417,1.31939 -1.1564,1.90147 -0.72955,0.81492 -1.93252,1.75401 -3.18206,2.22744 l 0.7994,0.8382 c 1.06327,-0.50447 2.0955,-1.31163 2.91817,-2.18087 0.72955,0.70626 1.45133,1.49789 1.9558,2.19639 l 0.88477,-0.76835 c -0.45791,-0.5588 -1.397,-1.55222 -2.16535,-2.21968 0.51999,-0.6985 0.95462,-1.52894 1.21849,-2.1343 0.0699,-0.15522 0.20955,-0.39582 0.27164,-0.48119 z" />
      <path
         id="path6149"
         style="fill:#ffffff;stroke-width:0.26458332"
         d="m 119.51495,156.05141 v -1.23402 c 0.46567,-0.0699 0.92358,-0.15522 1.30387,-0.25612 0.13194,-0.031 0.33373,-0.0854 0.59761,-0.14746 l -0.63641,-0.85372 c -0.38806,0.17851 -1.17969,0.35701 -1.9558,0.46567 -0.85373,0.12417 -2.0567,0.1397 -2.64654,0.12417 l 0.24059,0.90029 c 0.52,-0.0155 1.33491,-0.0388 2.07998,-0.10089 v 1.10208 h -2.18863 c -0.2406,0 -0.50448,-0.0233 -0.71403,-0.0466 v 1.00118 c 0.20179,-0.0155 0.48895,-0.031 0.72955,-0.031 h 2.1343 c -0.14746,1.14864 -0.76835,1.97908 -1.94804,2.52236 l 0.98567,0.66746 c 1.31162,-0.78388 1.87042,-1.88595 1.98684,-3.18982 h 2.01013 c 0.20955,0 0.47343,0.0155 0.68298,0.031 v -1.00118 c -0.17075,0.0155 -0.54328,0.0466 -0.70627,0.0466 z" />
      <path
         id="path6151"
         style="fill:#ffffff;stroke-width:0.26458332"
         d="m 126.6707,155.10455 -0.92357,0.30268 c 0.19403,0.40358 0.53551,1.34268 0.62865,1.72297 l 0.93133,-0.32597 c -0.10865,-0.35701 -0.48895,-1.36595 -0.63641,-1.69968 z m 1.76953,0.21731 c -0.0854,0.97014 -0.4579,2.00237 -0.98566,2.66206 -0.64417,0.80716 -1.72296,1.397 -2.57669,1.62208 l 0.81492,0.83043 c 0.90805,-0.34148 1.87819,-0.99342 2.59997,-1.92475 0.52776,-0.68298 0.85372,-1.49013 1.05551,-2.27401 0.0466,-0.15522 0.0931,-0.3182 0.18627,-0.56656 z m -3.57011,0.19403 -0.93133,0.33373 c 0.18627,0.34149 0.57432,1.37371 0.70626,1.79281 l 0.94686,-0.35701 c -0.15523,-0.43462 -0.52776,-1.37371 -0.72179,-1.76953 z" />
      <path
         id="path6153"
         style="fill:#ffffff;stroke-width:0.26458332"
         d="m 136.69806,154.40605 c -0.17851,0.0543 -0.43463,0.0931 -0.67522,0.0931 h -1.55998 l 0.0233,-0.0388 c 0.0931,-0.17075 0.28716,-0.52 0.47343,-0.79163 l -1.13312,-0.37254 c -0.0699,0.26388 -0.23284,0.62089 -0.34925,0.81492 -0.38806,0.66745 -1.06328,1.66864 -2.42147,2.49908 l 0.86924,0.64417 c 0.76059,-0.52 1.43581,-1.20297 1.9558,-1.87819 h 2.18088 c -0.12418,0.58208 -0.57433,1.51342 -1.10208,2.11878 -0.67522,0.76835 -1.5367,1.44357 -3.12773,1.917 l 0.91581,0.82268 c 1.45909,-0.58209 2.39818,-1.28835 3.13549,-2.18864 0.6985,-0.86924 1.14088,-1.90147 1.35043,-2.59221 0.0621,-0.19403 0.17075,-0.41134 0.25612,-0.5588 z" />
    </g>
  </g>
</svg>
