<?xml version="1.0" encoding="UTF-8" standalone="no"?>
<svg
   xmlns:dc="http://purl.org/dc/elements/1.1/"
   xmlns:cc="http://creativecommons.org/ns#"
   xmlns:rdf="http://www.w3.org/1999/02/22-rdf-syntax-ns#"
   xmlns:svg="http://www.w3.org/2000/svg"
   xmlns="http://www.w3.org/2000/svg"
   id="svg4986"
   version="1.1"
   viewBox="0 0 53.237103 7.33425"
   height="7.33425mm"
   width="53.237103mm">
  <defs
     id="defs4980" />
  <metadata
     id="metadata4983">
    <rdf:RDF>
      <cc:Work
         rdf:about="">
        <dc:format>image/svg+xml</dc:format>
        <dc:type
           rdf:resource="http://purl.org/dc/dcmitype/StillImage" />
        <dc:title></dc:title>
      </cc:Work>
    </rdf:RDF>
  </metadata>
  <g
     transform="translate(-56.095698,-126.3381)"
     id="layer1">
    <g
       id="text4990"
       style="font-style:normal;font-variant:normal;font-weight:bold;font-stretch:normal;font-size:7.76111126px;line-height:1.25;font-family:'Noto Sans CJK JP';-inkscape-font-specification:'Noto Sans CJK JP, Bold';font-variant-ligatures:normal;font-variant-caps:normal;font-variant-numeric:normal;font-feature-settings:normal;text-align:start;letter-spacing:0px;word-spacing:0px;writing-mode:lr-tb;text-anchor:start;fill:#000000;fill-opacity:1;stroke:none;stroke-width:0.26458332"
       aria-label="廃プラスチック">
      <path
         id="path4992"
         style="fill:#ffffff;stroke-width:0.26458332"
         d="M 60.876542,131.10342 H 60.02282 v -0.67521 h 0.853722 z m 1.288345,-0.67521 v -0.0388 c 0.248355,0.20179 0.527755,0.37253 0.822677,0.51223 0.124178,-0.21731 0.380295,-0.55104 0.574323,-0.6985 -0.325967,-0.13194 -0.636411,-0.31044 -0.90805,-0.52775 0.256116,-0.14746 0.543277,-0.33373 0.776111,-0.52776 l -0.597606,-0.45014 c -0.178505,0.15522 -0.434622,0.34925 -0.690739,0.51223 -0.09313,-0.10089 -0.178505,-0.20955 -0.263877,-0.3182 0.256116,-0.16299 0.5588,-0.35702 0.799394,-0.58209 l -0.582083,-0.4191 c -0.147461,0.13194 -0.357011,0.31045 -0.574323,0.46567 -0.09313,-0.18627 -0.186266,-0.37253 -0.256116,-0.5588 l -0.752828,0.20955 c 0.232833,0.62089 0.543278,1.18745 0.931333,1.66864 h -1.924755 c 0.325966,-0.4191 0.597605,-0.90805 0.783872,-1.44357 l -0.512233,-0.24835 -0.1397,0.031 h -1.567745 v 0.68298 h 1.171928 c -0.09313,0.15522 -0.194028,0.31044 -0.310444,0.45014 -0.194028,-0.1397 -0.426862,-0.28716 -0.62865,-0.39581 l -0.473428,0.51223 c 0.186266,0.11642 0.411339,0.26388 0.589844,0.41134 -0.256116,0.22507 -0.543278,0.41134 -0.8382,0.5588 0.01552,-0.23284 0.01552,-0.45015 0.01552,-0.65194 v -1.86266 h 5.673373 v -0.76835 h -2.739673 v -0.5588 h -0.962377 v 0.5588 h -2.832806 v 2.62325 c 0,1.08656 -0.04657,2.5146 -0.651933,3.50026 0.201789,0.0931 0.5588,0.3803 0.706261,0.54328 0.551039,-0.86148 0.737305,-2.14206 0.791633,-3.23638 0.147461,0.16298 0.318206,0.41134 0.403578,0.57432 0.271639,-0.14746 0.535517,-0.32597 0.783872,-0.52775 h 0.388056 v 0.67521 h -1.2573 v 0.78387 h 1.179689 c -0.147461,0.43463 -0.527756,0.83044 -1.497895,1.10984 0.178506,0.15523 0.426861,0.48119 0.519995,0.67522 1.319389,-0.39582 1.74625,-1.05551 1.870427,-1.78506 h 0.892528 v 0.69074 c 0,0.78388 0.162984,1.03223 0.900289,1.03223 h 0.706261 c 0.566561,0 0.783872,-0.26388 0.861484,-1.14864 -0.225073,-0.0543 -0.574323,-0.18627 -0.745067,-0.31821 -0.02328,0.59761 -0.06209,0.70626 -0.20955,0.70626 h -0.457906 c -0.162983,0 -0.186266,-0.0233 -0.186266,-0.27164 v -0.69074 h 1.311627 v -0.78387 h -1.311627 v -0.67521 z" />
      <path
         id="path4994"
         style="fill:#ffffff;stroke-width:0.26458332"
         d="m 70.383904,127.71182 c -0.248356,0 -0.450145,-0.20179 -0.450145,-0.44239 0,-0.24835 0.201789,-0.45014 0.450145,-0.45014 0.240594,0 0.442383,0.20179 0.442383,0.45014 0,0.2406 -0.201789,0.44239 -0.442383,0.44239 z m -4.951589,-0.26388 c -0.256117,0 -0.6985,-0.0311 -0.923573,-0.0621 v 1.09432 c 0.201789,-0.0155 0.566561,-0.031 0.923573,-0.031 h 3.616677 c -0.108655,0.66746 -0.403577,1.54446 -0.915811,2.18864 -0.62865,0.79163 -1.497894,1.45908 -3.042355,1.82386 l 0.845961,0.92357 c 1.389239,-0.44238 2.421466,-1.21073 3.119966,-2.14207 0.651934,-0.86148 0.985662,-2.06445 1.164167,-2.82504 l 0.06209,-0.23284 c 0.03104,0.008 0.06985,0.008 0.100895,0.008 0.504472,0 0.923572,-0.4191 0.923572,-0.92358 0,-0.51223 -0.4191,-0.93133 -0.923572,-0.93133 -0.512234,0 -0.931334,0.4191 -0.931334,0.93133 0,0.0543 0.0078,0.1009 0.01552,0.14746 -0.170744,0.0233 -0.333727,0.0311 -0.442383,0.0311 z" />
      <path
         id="path4996"
         style="fill:#ffffff;stroke-width:0.26458332"
         d="m 77.788004,128.82942 c -0.108656,0.0466 -0.318206,0.0776 -0.566561,0.0776 h -3.841751 c -0.240594,0 -0.574322,-0.0155 -0.900288,-0.0466 v 1.00895 c 0.325966,-0.031 0.714022,-0.0388 0.900288,-0.0388 h 3.748617 c -0.1397,0.43462 -0.380294,0.91581 -0.799394,1.34267 -0.589845,0.60537 -1.521178,1.1176 -2.693106,1.3582 l 0.776111,0.877 c 0.993423,-0.2794 1.986845,-0.80715 2.770717,-1.6764 0.582083,-0.64417 0.915811,-1.397 1.148644,-2.14983 0.03104,-0.0854 0.09313,-0.22507 0.147462,-0.32596 z m -4.594578,-0.82268 c 0.225072,-0.0155 0.5588,-0.0233 0.807155,-0.0233 h 2.972506 c 0.2794,0 0.644172,0.008 0.853722,0.0233 v -1.00118 c -0.217311,0.031 -0.597605,0.0388 -0.8382,0.0388 h -2.988028 c -0.263877,0 -0.589844,-0.008 -0.807155,-0.0388 z" />
      <path
         id="path4998"
         style="fill:#ffffff;stroke-width:0.26458332"
         d="m 84.908581,127.22287 c -0.155222,0.0543 -0.465666,0.10089 -0.807155,0.10089 h -2.731911 c -0.232834,0 -0.706262,-0.0233 -0.915812,-0.0543 v 1.10208 c 0.162984,-0.008 0.589845,-0.0543 0.915812,-0.0543 h 2.631016 c -0.170744,0.55104 -0.644172,1.31939 -1.156405,1.90148 -0.729545,0.81491 -1.932517,1.75401 -3.182056,2.22743 l 0.799394,0.8382 c 1.063273,-0.50447 2.095501,-1.31162 2.918178,-2.18087 0.729545,0.70626 1.451328,1.4979 1.9558,2.1964 l 0.884767,-0.76835 c -0.457906,-0.5588 -1.397,-1.55223 -2.16535,-2.21968 0.519994,-0.6985 0.954617,-1.52894 1.218494,-2.13431 0.06985,-0.15522 0.20955,-0.39581 0.271639,-0.48119 z" />
      <path
         id="path5000"
         style="fill:#ffffff;stroke-width:0.26458332"
         d="m 91.358064,129.28732 v -1.23401 c 0.465666,-0.0699 0.923572,-0.15523 1.303866,-0.25612 0.131939,-0.0311 0.333728,-0.0854 0.597606,-0.14746 l -0.636411,-0.85372 c -0.388056,0.1785 -1.179689,0.35701 -1.9558,0.46566 -0.853722,0.12418 -2.056695,0.1397 -2.646539,0.12418 l 0.240594,0.90029 c 0.519995,-0.0155 1.334911,-0.0388 2.079978,-0.1009 v 1.10208 h -2.188633 c -0.240595,0 -0.504472,-0.0233 -0.714022,-0.0466 v 1.00118 c 0.201788,-0.0155 0.48895,-0.031 0.729544,-0.031 h 2.134306 c -0.147462,1.14865 -0.76835,1.97909 -1.948039,2.52237 l 0.985661,0.66745 c 1.311628,-0.78387 1.870428,-1.88595 1.986844,-3.18982 h 2.010128 c 0.20955,0 0.473428,0.0155 0.682978,0.031 v -1.00118 c -0.170745,0.0155 -0.543278,0.0466 -0.706261,0.0466 z" />
      <path
         id="path5002"
         style="fill:#ffffff;stroke-width:0.26458332"
         d="m 98.513809,128.34047 -0.923572,0.30268 c 0.194028,0.40358 0.535517,1.34267 0.62865,1.72297 l 0.931333,-0.32597 c -0.108655,-0.35701 -0.48895,-1.36596 -0.636411,-1.69968 z m 1.769531,0.21731 c -0.0854,0.97014 -0.457903,2.00236 -0.985658,2.66206 -0.644173,0.80715 -1.722967,1.397 -2.576689,1.62207 l 0.814916,0.83044 c 0.90805,-0.34149 1.878189,-0.99342 2.599971,-1.92476 0.52776,-0.68297 0.85372,-1.49013 1.05551,-2.274 0.0466,-0.15522 0.0931,-0.31821 0.18627,-0.56656 z m -3.570109,0.19403 -0.931333,0.33372 c 0.186267,0.34149 0.574322,1.37372 0.706261,1.79282 l 0.946856,-0.35701 c -0.155222,-0.43462 -0.527756,-1.37372 -0.721784,-1.76953 z" />
      <path
         id="path5004"
         style="fill:#ffffff;stroke-width:0.26458332"
         d="m 108.54117,127.64197 c -0.17851,0.0543 -0.43463,0.0931 -0.67522,0.0931 h -1.55998 l 0.0233,-0.0388 c 0.0931,-0.17074 0.28716,-0.51999 0.47343,-0.79163 l -1.13313,-0.37253 c -0.0699,0.26388 -0.23283,0.62089 -0.34925,0.81491 -0.38805,0.66746 -1.06327,1.66864 -2.42146,2.49908 l 0.86924,0.64417 c 0.76059,-0.51999 1.43581,-1.20297 1.9558,-1.87818 h 2.18087 c -0.12417,0.58208 -0.57432,1.51341 -1.10207,2.11878 -0.67522,0.76835 -1.5367,1.44357 -3.12773,1.91699 l 0.91581,0.82268 c 1.45909,-0.58208 2.39818,-1.28834 3.13549,-2.18863 0.6985,-0.86925 1.14088,-1.90147 1.35043,-2.59221 0.0621,-0.19403 0.17075,-0.41134 0.25612,-0.5588 z" />
    </g>
  </g>
</svg>
