<?xml version="1.0" encoding="UTF-8" standalone="no"?>
<svg
   xmlns:dc="http://purl.org/dc/elements/1.1/"
   xmlns:cc="http://creativecommons.org/ns#"
   xmlns:rdf="http://www.w3.org/1999/02/22-rdf-syntax-ns#"
   xmlns:svg="http://www.w3.org/2000/svg"
   xmlns="http://www.w3.org/2000/svg"
   width="71.639343mm"
   height="9.9632158mm"
   viewBox="0 0 71.639343 9.9632158"
   version="1.1"
   id="svg899">
  <defs
     id="defs893" />
  <metadata
     id="metadata896">
    <rdf:RDF>
      <cc:Work
         rdf:about="">
        <dc:format>image/svg+xml</dc:format>
        <dc:type
           rdf:resource="http://purl.org/dc/dcmitype/StillImage" />
        <dc:title></dc:title>
      </cc:Work>
    </rdf:RDF>
  </metadata>
  <g
     id="layer1"
     transform="translate(-46.526502,-89.172147)">
    <g
       id="text903"
       style="font-style:normal;font-weight:normal;font-size:10.58333302px;line-height:1.25;font-family:sans-serif;letter-spacing:0px;word-spacing:0px;fill:#000000;fill-opacity:1;stroke:none;stroke-width:0.26458332"
       aria-label="廃プラスチック">
      <path
         id="path1355"
         style="fill:#f7f9f9;fill-opacity:1;stroke-width:0.26458332"
         d="m 52.562309,96.530871 h -0.950846 q 0,2.108398 -3.100586,2.604492 L 48.26283,98.267199 q 2.439128,-0.289388 2.52181,-1.736328 h -1.653646 v -0.785482 h 1.694987 V 95.04259 H 50.41257 v -0.413412 q -0.826823,0.661459 -1.736329,1.033529 L 48.345512,94.959908 Q 49.3377,94.587837 50.08184,94.009061 l -1.074869,-0.620117 0.454752,-0.620117 1.240235,0.661458 q 0.454752,-0.413411 0.702799,-0.785481 h -1.488281 v -0.661459 h 1.81901 l 0.206706,-0.206706 0.661458,0.248047 q 0.165365,0.165365 -0.124023,0.206706 0.206706,0.330729 0.620117,0.7028 l 0.909505,-0.992188 0.578776,0.496094 q 0.165365,0.124023 -0.165364,0.124023 l -0.909506,0.785482 0.537435,0.413411 0.950847,-1.11621 0.578776,0.496093 q 0.165364,0.124024 -0.165365,0.124024 l -0.909505,0.785481 q 0.496094,0.413412 1.570963,0.7028 l -0.248047,0.826823 q -1.157552,-0.372071 -1.901692,-1.033529 v 0.496094 h -0.537435 v 0.702799 h 1.901693 v 0.785482 h -1.901693 v 1.322917 q 0,0.289388 0.248047,0.289388 h 1.116211 q 0.206705,0 0.248047,-0.206706 l 0.165364,-0.620117 0.785482,0.206706 -0.165365,0.74414 q -0.165364,0.661459 -0.74414,0.661459 H 53.30645 q -0.744141,0 -0.744141,-0.744141 z m 1.157552,-2.149739 q -0.909505,-0.620118 -1.612305,-1.612305 -0.37207,0.702799 -1.44694,1.612305 z m -5.539713,1.405599 q 0,2.19108 -1.07487,3.26595 L 46.526502,98.30854 q 0.826823,-0.868164 0.826823,-2.149739 v -5.498372 h 3.596679 V 89.6269 h 0.909506 q 0.413411,0.08268 0.04134,0.330729 v 0.7028 h 3.720703 v 0.785481 h -7.441406 z m 4.382161,-0.04134 V 95.04259 h -0.909505 v 0.702799 z" />
      <path
         id="path1357"
         style="fill:#f7f9f9;fill-opacity:1;stroke-width:0.26458332"
         d="m 65.874158,91.07384 q 0.330729,0 0.537435,-0.206706 0.206705,-0.206705 0.206705,-0.537435 0,-0.330729 -0.206705,-0.537434 -0.206706,-0.206706 -0.537435,-0.206706 -0.33073,0 -0.537435,0.206706 -0.206706,0.206705 -0.206706,0.537434 0,0.33073 0.206706,0.537435 0.206705,0.206706 0.537435,0.206706 z m 0,0.413411 q -0.496094,0 -0.826823,-0.330729 -0.330729,-0.330729 -0.330729,-0.826823 0,-0.496093 0.330729,-0.826822 0.330729,-0.33073 0.826823,-0.33073 0.496093,0 0.826823,0.33073 0.330729,0.330729 0.330729,0.826822 0,0.496094 -0.330729,0.826823 -0.33073,0.330729 -0.826823,0.330729 z m -7.400065,0.537435 v -0.909505 h 6.118489 l 1.07487,0.785482 q -0.206706,5.002278 -5.663737,6.531901 l -0.744141,-0.909505 q 5.167644,-1.198894 5.41569,-5.498373 z" />
      <path
         id="path1359"
         style="fill:#f7f9f9;fill-opacity:1;stroke-width:0.26458332"
         d="m 70.545707,98.225858 q 4.010091,-1.033529 4.506185,-4.34082 h -6.283854 v -0.909505 h 6.325195 l 0.37207,-0.124024 0.744141,0.454753 q 0.248047,0.206706 -0.08268,0.37207 -0.661458,4.134115 -4.836913,5.374349 z m 4.671549,-6.697265 h -5.705078 v -0.909506 h 5.705078 z" />
      <path
         id="path1361"
         style="fill:#f7f9f9;fill-opacity:1;stroke-width:0.26458332"
         d="m 83.816215,94.422473 q 1.77767,1.364258 3.513998,3.141927 l -0.826823,0.702799 q -1.736328,-1.81901 -3.348633,-3.059245 -1.612305,1.736329 -3.679362,3.100586 l -0.785482,-0.702799 q 4.382162,-2.852539 5.622396,-5.705078 l -4.506185,0.289388 -0.124023,-0.992188 4.795573,-0.206705 0.496093,-0.124024 0.661459,0.661459 q 0.289388,0.289388 -0.165365,0.37207 -0.785482,1.364258 -1.653646,2.52181 z" />
      <path
         id="path1363"
         style="fill:#f7f9f9;fill-opacity:1;stroke-width:0.26458332"
         d="m 94.564912,93.554309 h 3.389974 v 0.909505 h -3.389974 q 0,2.89388 -2.604492,4.34082 l -0.661458,-0.661458 q 2.356445,-1.322917 2.315104,-3.679362 h -4.134115 v -0.909505 h 4.134115 v -1.570964 q -1.157552,0.124024 -3.017904,0.206706 l -0.37207,-0.868164 q 4.010091,-0.08268 6.15983,-0.744141 l 0.454753,0.868164 q 0.124023,0.289388 -0.37207,0.08268 -0.868164,0.206705 -1.901693,0.330729 z" />
      <path
         id="path1365"
         style="fill:#f7f9f9;fill-opacity:1;stroke-width:0.26458332"
         d="m 107.7114,93.140897 q -0.28939,2.687175 -1.48829,3.886068 -1.19889,1.198893 -3.14192,1.901693 l -0.53744,-0.785482 q 1.90169,-0.620117 2.97656,-1.694987 1.15756,-1.157552 1.32292,-3.927409 l 0.86817,0.289388 q 0.37207,0.124024 0,0.330729 z m -3.514,1.488281 q -0.4961,-1.11621 -0.99219,-1.860351 l 0.78548,-0.413411 q 0.62012,0.785481 1.07487,1.860351 z m -2.1084,0.620118 q -0.49609,-1.157552 -1.03353,-1.943034 l 0.82682,-0.413412 q 0.57878,0.785482 1.03353,1.901693 z" />
      <path
         id="path1367"
         style="fill:#f7f9f9;fill-opacity:1;stroke-width:0.26458332"
         d="m 117.92266,92.52078 q -0.78548,4.506185 -5.16764,6.449219 l -0.74414,-0.785482 q 4.05143,-1.653646 4.87825,-5.705078 h -3.30729 q -0.95085,1.570963 -1.98437,2.52181 l -0.82683,-0.537435 q 2.14974,-1.943034 2.76986,-4.547526 l 0.95085,0.330729 q 0.24804,0.124024 -0.0827,0.248047 -0.16536,0.537435 -0.45475,1.07487 h 2.97656 l 0.37207,-0.206706 0.74414,0.744141 q 0.28939,0.289388 -0.12402,0.413411 z" />
    </g>
  </g>
</svg>
