<?xml version="1.0" encoding="UTF-8" standalone="no"?>
<svg
   xmlns:dc="http://purl.org/dc/elements/1.1/"
   xmlns:cc="http://creativecommons.org/ns#"
   xmlns:rdf="http://www.w3.org/1999/02/22-rdf-syntax-ns#"
   xmlns:svg="http://www.w3.org/2000/svg"
   xmlns="http://www.w3.org/2000/svg"
   id="svg390"
   version="1.1"
   viewBox="0 0 38.967838 9.0000019"
   height="9.0000019mm"
   width="38.967838mm">
  <defs
     id="defs384" />
  <metadata
     id="metadata387">
    <rdf:RDF>
      <cc:Work
         rdf:about="">
        <dc:format>image/svg+xml</dc:format>
        <dc:type
           rdf:resource="http://purl.org/dc/dcmitype/StillImage" />
        <dc:title></dc:title>
      </cc:Work>
    </rdf:RDF>
  </metadata>
  <g
     transform="translate(-34.693829,-135.54059)"
     id="layer1">
    <g
       transform="translate(20.65683,126.12567)"
       id="g251">
      <g
         id="g9095"
         transform="matrix(0.03537243,0,0,0.03093361,14.382433,11.851996)">
        <g
           transform="matrix(0.56825335,0,0,0.56825335,-56.291379,-78.784027)"
           id="g5111"
           style="display:inline;opacity:1;fill:#ffffff">
          <g
             style="fill:#ffffff"
             id="g5097">
            <path
               class="st0"
               d="m 311.406,149.531 c 20.156,20.156 118.719,92.188 118.719,188.344 C 430.125,434.031 352.172,512 256,512 159.844,512 81.875,434.031 81.875,337.875 c 0,-96.156 98.563,-168.188 118.719,-188.344 z"
               style="fill:#ffffff"
               id="path5091" />
            <path
               class="st0"
               d="m 311.406,97.125 c 0,0 5.125,-17.594 32.75,-39.906 26.5,-21.406 6.156,-50.969 -32.75,-40.063 C 284.547,24.656 293.672,0 256,0 218.328,0 227.453,24.656 200.594,17.156 161.703,6.25 141.36,35.812 167.86,57.219 c 27.609,22.313 32.734,39.906 32.734,39.906 z"
               style="fill:#ffffff"
               id="path5093" />
            <path
               class="st0"
               d="m 323.891,123.328 c 0,6.297 -5.109,11.406 -11.391,11.406 H 199.516 c -6.297,0 -11.406,-5.109 -11.406,-11.406 v 0 c 0,-6.297 5.109,-11.391 11.406,-11.391 H 312.5 c 6.281,0.001 11.391,5.094 11.391,11.391 z"
               style="fill:#ffffff"
               id="path5095" />
          </g>
        </g>
        <g
           transform="matrix(0.26810414,0,0,0.26810414,19.664194,43.345873)"
           id="g5500"
           style="display:inline;opacity:1;fill:#808080">
          <g
             style="fill:#808080"
             id="g5488">
            <path
               class="st0"
               d="M 404.563,188.938 C 381.485,152.875 365.61,128.36 339.657,67.782 c 0,0 -18.75,24.531 -33.172,60.578 C 299.782,105.157 287.563,94.782 273.313,70.657 254.563,38.938 251.672,0 251.672,0 c 0,0 -30.281,17.313 -50.484,60.563 -20.172,43.281 -18.75,93.75 -41.813,116.844 -8.656,-46.156 -30.297,-59.125 -30.297,-59.125 0,0 -12.984,38.906 -21.625,64.875 -23.078,46.156 -37.5,91.406 -37.5,142.797 0,51.359 20.813,97.891 54.5,131.547 C 158.125,491.188 204.641,512 256,512 c 51.375,0 97.891,-20.813 131.563,-54.5 33.672,-33.656 54.484,-80.188 54.484,-131.547 0,-51.39 -17.281,-102.406 -37.484,-137.015 z m -68,249.312 c -21.516,21.5 -50.125,33.375 -80.563,33.375 -30.438,0 -59.047,-11.875 -80.563,-33.375 -21.531,-21.531 -33.375,-50.141 -33.375,-80.563 0,-10.656 0.844,-21.188 2.594,-31.875 6.063,-24.375 15.688,-59 15.688,-59 0,0 24.406,22.156 28.828,36.531 7.703,25 19.234,-15.375 29.328,-37.969 8.656,-10.094 18.625,-42.344 25.297,-62.5 l 59.797,108.656 40.5,-51.328 c 12.813,23.219 25.859,60 25.859,97.484 0,30.423 -11.875,59.033 -33.39,80.564 z"
               style="fill:#808080"
               id="path5486" />
          </g>
        </g>
      </g>
      <g
         id="text214"
         style="font-style:normal;font-variant:normal;font-weight:normal;font-stretch:normal;font-size:7.76111126px;line-height:1.25;font-family:sbnreim;-inkscape-font-specification:'sbnreim, Normal';font-variant-ligatures:normal;font-variant-caps:normal;font-variant-numeric:normal;text-align:start;letter-spacing:0px;word-spacing:0px;writing-mode:lr-tb;text-anchor:start;fill:#ffffff;fill-opacity:1;stroke:none;stroke-width:0.26458332"
         aria-label="可燃ごみ">
        <path
           id="path420"
           style="fill:#ffffff;stroke-width:0.26458332"
           d="m 30.303589,12.72991 q 0,0.05821 -0.0194,0.09701 -0.0097,0.0388 -0.04851,0.07761 -0.07761,0.06791 -0.291041,0.184326 -0.203729,0.116417 -0.291042,0.116417 -0.194028,0 -0.552979,-0.04851 -0.358952,-0.04851 -0.494771,-0.04851 0,0.126118 -0.0097,0.368653 0,0.242534 0,0.368652 0,0.339549 0.0097,1.038049 0.0097,0.688799 0.0097,1.04775 0,0.989542 -0.271638,1.513417 -0.261938,0.523875 -1.125362,0.795514 -0.184326,0.05821 -0.358951,0.09701 -0.164924,0.0388 -0.310444,0.0388 -0.20373,0 -0.339549,-0.06791 -0.126118,-0.06791 -0.232833,-0.223132 -0.03881,-0.0388 -0.05821,-0.06791 -0.0097,-0.0291 -0.0097,-0.05821 0,-0.0291 0.0388,-0.0291 0.04851,0 0.06791,0 0.48507,0 0.989542,-0.174625 0.504472,-0.174625 0.76641,-0.494771 0.21343,-0.261937 0.271638,-0.688798 0.05821,-0.436563 0.05821,-1.008945 0,-0.232833 0,-0.679097 0.0097,-0.455965 0.0097,-0.669396 0,-0.203729 -0.0097,-0.582083 0,-0.388056 0,-0.572382 -0.368653,-0.03881 -0.727604,-0.03881 -0.358952,-0.0097 -0.892528,-0.0097 -0.659695,0 -1.270882,0.03881 -0.601486,0.0291 -1.164167,0.126118 -0.05821,0 -0.271639,0.04851 -0.203729,0.04851 -0.310444,0.04851 -0.116417,0 -0.213431,-0.04851 -0.09701,-0.04851 -0.09701,-0.145521 0,-0.184327 0.242535,-0.310445 0.242535,-0.126118 0.455965,-0.126118 0.397757,0 1.212674,-0.04851 0.824618,-0.04851 1.241778,-0.04851 0.727604,0 1.222375,0.0097 0.494771,0 0.999243,0.0194 0.358951,0 0.717903,0.0194 0.368652,0.0194 0.921632,0.04851 0.06791,0 0.09701,0.0194 0.0388,0.0097 0.0388,0.06791 z m -3.201458,1.658937 q 0,0.06791 -0.08731,0.194028 -0.07761,0.116417 -0.08731,0.164924 -0.0194,0.07761 -0.06791,0.523875 -0.03881,0.446264 -0.106715,0.56268 -0.05821,0.06791 -0.155223,0.106715 -0.08731,0.0291 -0.184326,0.0291 -0.08731,0 -0.261937,-0.0291 -0.164924,-0.0291 -0.252237,-0.0291 h -0.116416 q -0.174625,0 -0.291042,0.0097 -0.106715,0 -0.203729,0.0194 -0.106715,0 -0.291042,0.07761 -0.174625,0.07761 -0.252236,0.07761 -0.106715,0 -0.174625,-0.203729 -0.05821,-0.213431 -0.06791,-0.368653 -0.0097,-0.05821 -0.0388,-0.242535 -0.0291,-0.184326 -0.05821,-0.291042 -0.0194,-0.06791 -0.08731,-0.271639 -0.06791,-0.203729 -0.06791,-0.320145 0,-0.09701 0.0291,-0.164924 0.0291,-0.07761 0.106715,-0.116417 0.194028,-0.09701 0.688798,-0.135819 0.494771,-0.03881 0.882827,-0.03881 0.07761,0 0.232833,0.0194 0.155222,0.0097 0.232833,0.0097 0.184327,0 0.426862,0.126118 0.252236,0.116416 0.252236,0.291041 z m -0.6985,0.164924 q 0,-0.174625 -0.13582,-0.213431 -0.135819,-0.0388 -0.339548,-0.0388 -0.320146,0 -0.737306,0.04851 -0.41716,0.04851 -0.41716,0.194027 0,0.08731 0.04851,0.436563 0.05821,0.34925 0.09701,0.446264 v 0.0194 q -0.0097,0.04851 0.0194,0.08731 0.0291,0.0291 0.09701,0.0291 0.184326,0 0.533576,-0.0291 0.34925,-0.0388 0.455966,-0.0388 0.08731,-0.0097 0.155222,-0.02911 0.07761,-0.0194 0.106715,-0.07761 0.03881,-0.126118 0.07761,-0.397757 0.03881,-0.271639 0.03881,-0.436562 z" />
        <path
           id="path422"
           style="fill:#ffffff;stroke-width:0.26458332"
           d="m 37.259485,12.642597 q 0,0.0194 -0.0097,0.04851 -0.0097,0.0194 -0.0194,0.04851 -0.0291,0.0291 -0.271639,0.329847 -0.232833,0.291042 -0.291042,0.291042 -0.0194,0 -0.0291,-0.0097 0,-0.0194 0,-0.03881 0,-0.116417 0.05821,-0.41716 0.06791,-0.300743 0.116416,-0.368652 0.0194,-0.04851 0.08731,-0.07761 0.06791,-0.03881 0.126118,-0.03881 0.08731,0 0.155222,0.06791 0.07761,0.06791 0.07761,0.164923 z m 0.601486,3.531306 q 0,0.08731 -0.261937,0.261937 -0.261938,0.164924 -0.358952,0.164924 -0.21343,0 -0.465666,-0.514174 -0.252236,-0.514173 -0.368653,-0.902229 -0.05821,-0.203729 -0.106715,-0.407458 -0.03881,-0.213431 -0.08731,-0.514174 -0.106715,0.611188 -0.388055,1.193271 -0.271639,0.582083 -0.688799,0.902229 -0.05821,0.03881 -0.164924,0.106715 -0.106715,0.05821 -0.145521,0.05821 -0.116416,0 -0.21343,-0.116417 -0.09701,-0.126118 -0.09701,-0.242535 0.05821,-0.04851 0.203729,-0.126118 0.155222,-0.07761 0.232833,-0.126118 0.34925,-0.271639 0.611188,-0.853722 0.271639,-0.582083 0.34925,-1.096257 -0.07761,0 -0.339549,0.05821 -0.261937,0.05821 -0.397757,0.05821 -0.0388,0 -0.06791,-0.0097 -0.0194,-0.0194 -0.0194,-0.04851 0,-0.0291 0,-0.05821 0.0097,-0.0388 0.0291,-0.06791 0.0194,-0.08731 0.04851,-0.155222 0.0291,-0.06791 0.04851,-0.08731 0.04851,-0.06791 0.329847,-0.07761 0.281341,-0.0194 0.407459,-0.0291 0,-0.06791 0,-0.106715 0,-0.0388 0,-0.106715 0,-0.155222 -0.02911,-0.455965 -0.0194,-0.310445 -0.0194,-0.465667 0,-0.145521 0.06791,-0.261938 0.06791,-0.116416 0.20373,-0.116416 0.05821,0 0.08731,0.0194 0.03881,0.0194 0.06791,0.07761 0.0194,0.05821 0.0291,0.252236 0.0097,0.184326 0.0097,0.388055 0,0.155222 -0.0097,0.329847 -0.0097,0.174625 -0.0097,0.426862 0.09701,-0.0097 0.426861,-0.0194 0.339548,-0.0097 0.543277,-0.0097 0.09701,0 0.223132,0.0194 0.13582,0.0097 0.13582,0.07761 0,0.13582 -0.116417,0.271639 -0.106715,0.13582 -0.252236,0.13582 -0.145521,0 -0.446264,-0.0291 -0.291042,-0.0291 -0.436562,-0.0291 0.09701,0.611188 0.291041,1.038049 0.194028,0.426861 0.611188,0.853722 0.08731,0.08731 0.261937,0.164924 0.174625,0.06791 0.232834,0.106715 0.0194,0.0097 0.0291,0.0291 0.0097,0.0097 0.0097,0.03881 z M 35.2707,13.069458 q 0,0.06791 -0.106715,0.368653 -0.106715,0.300743 -0.116417,0.358952 -0.0388,0.116416 -0.126118,0.533576 -0.08731,0.407458 -0.164923,0.620889 -0.155223,0.455965 -0.514174,1.076854 -0.358951,0.611188 -0.649993,0.611188 -0.106715,0 -0.194028,-0.07761 -0.07761,-0.08731 -0.07761,-0.184326 0,-0.0194 0,-0.0291 0,-0.0194 0,-0.03881 0.0097,-0.06791 0.04851,-0.116416 0.04851,-0.05821 0.106715,-0.09701 0.232834,-0.232834 0.407459,-0.455966 0.174625,-0.223132 0.320146,-0.485069 -0.145521,-0.08731 -0.397757,-0.252236 -0.242535,-0.174625 -0.242535,-0.271639 0,-0.08731 0.09701,-0.164924 0.09701,-0.08731 0.194028,-0.08731 0.07761,0 0.232833,0.194028 0.155222,0.184326 0.242535,0.300743 0.05821,-0.145521 0.09701,-0.281341 0.04851,-0.14552 0.116417,-0.368652 h -0.0388 q -0.164924,0 -0.310445,-0.09701 -0.135819,-0.09701 -0.232833,-0.242535 -0.145521,0.232833 -0.310445,0.455965 -0.164923,0.213431 -0.34925,0.232834 -0.07761,-0.04851 -0.106715,-0.116417 -0.0291,-0.07761 -0.0291,-0.155222 0,-0.06791 0.0097,-0.106716 0.0194,-0.04851 0.06791,-0.09701 0.155222,-0.174625 0.28134,-0.34925 0.126118,-0.184327 0.232834,-0.397757 0.116416,-0.271639 0.194027,-0.543278 0.08731,-0.28134 0.116417,-0.504472 0.0194,-0.106716 0.03881,-0.184327 0.0291,-0.08731 0.135819,-0.08731 0.106715,0 0.145521,0.05821 0.04851,0.05821 0.04851,0.174625 0,0.07761 -0.0291,0.232833 -0.0194,0.145521 -0.0194,0.194028 0.04851,0 0.155222,0 0.106715,-0.0097 0.164924,-0.0097 0.252236,0 0.407458,0.07761 0.155222,0.07761 0.155222,0.310444 z m 2.396243,5.23875 q 0,0.0194 -0.0097,0.03881 -0.0097,0.0291 -0.0194,0.06791 -0.0194,0 -0.0291,0 -0.0097,0 -0.0291,0 -0.0291,0 -0.04851,-0.0097 -0.0194,0 -0.03881,-0.0194 -0.0388,-0.0291 -0.08731,-0.08731 -0.03881,-0.05821 -0.04851,-0.09701 -0.126118,-0.203729 -0.213431,-0.329847 -0.07761,-0.13582 -0.174625,-0.252236 -0.07761,-0.08731 -0.135819,-0.155222 -0.04851,-0.06791 -0.07761,-0.13582 -0.0194,-0.04851 -0.0291,-0.08731 -0.0097,-0.03881 -0.0097,-0.05821 0,-0.145521 0.09701,-0.21343 0.106715,-0.07761 0.252236,-0.07761 0.194028,0 0.397757,0.572382 0.203729,0.572382 0.203729,0.84402 z m -1.552222,-0.252236 q 0,0.07761 -0.0194,0.145521 -0.0194,0.06791 -0.07761,0.06791 -0.135819,0 -0.310444,-0.504472 -0.164924,-0.504473 -0.164924,-0.6985 0,-0.155223 0.03881,-0.194028 0.03881,-0.04851 0.194028,-0.04851 0.04851,0 0.08731,0.0097 0.04851,0.0097 0.08731,0.03881 0.09701,0.07761 0.126118,0.455965 0.03881,0.378354 0.03881,0.727604 z m -4.346222,-3.453694 q 0,0.05821 -0.0291,0.126118 -0.0291,0.05821 -0.08731,0.05821 -0.07761,0 -0.28134,-0.378354 -0.194028,-0.388056 -0.213431,-0.41716 -0.0388,-0.07761 -0.05821,-0.135819 -0.0194,-0.06791 -0.0194,-0.126118 0,-0.09701 0.08731,-0.174625 0.08731,-0.07761 0.184326,-0.07761 0.06791,0 0.116417,0.04851 0.05821,0.0388 0.09701,0.126118 0.04851,0.135819 0.126118,0.485069 0.07761,0.34925 0.07761,0.465667 z m 3.172354,3.201458 v 0.164924 q 0,0.07761 -0.0194,0.223132 -0.0097,0.145521 -0.06791,0.145521 -0.126118,0 -0.310445,-0.514174 -0.184326,-0.523875 -0.184326,-0.708201 0,-0.126118 0.07761,-0.184327 0.08731,-0.06791 0.21343,-0.06791 0.06791,0 0.106716,0.0194 0.04851,0.0097 0.08731,0.05821 0.04851,0.05821 0.06791,0.339548 0.0291,0.28134 0.0291,0.523875 z M 33.281916,13.70975 q 0,0.242535 -0.329848,0.523875 -0.329847,0.271639 -0.591784,0.329847 -0.0097,0.329847 -0.04851,0.649993 -0.02911,0.320146 -0.07761,0.630591 0.34925,0.08731 0.611187,0.320145 0.261938,0.223132 0.261938,0.562681 0,0.145521 -0.04851,0.291042 -0.04851,0.135819 -0.164924,0.135819 -0.08731,0 -0.126118,-0.0194 -0.03881,-0.0194 -0.06791,-0.08731 -0.05821,-0.106715 -0.194028,-0.465667 -0.135819,-0.358951 -0.310444,-0.543278 -0.135819,0.601487 -0.300743,1.11566 -0.164924,0.514174 -0.397757,0.902229 -0.07761,0.106716 -0.155222,0.145521 -0.07761,0.04851 -0.203729,0.04851 -0.106716,-0.04851 -0.145521,-0.145521 -0.0291,-0.09701 -0.0291,-0.223132 0,-0.116416 0.174625,-0.34925 0.184326,-0.232833 0.21343,-0.271639 0.07761,-0.116416 0.13582,-0.252236 0.05821,-0.135819 0.135819,-0.329847 0.252236,-0.708201 0.329847,-1.406701 0.07761,-0.6985 0.07761,-1.688042 0,-0.203729 -0.0194,-0.601486 -0.0097,-0.397757 -0.0097,-0.591785 0,-0.07761 0.04851,-0.184326 0.04851,-0.106716 0.116417,-0.106716 0.145521,0 0.223132,0.174625 0.07761,0.174625 0.07761,0.34925 0,0.300743 -0.04851,0.911931 -0.04851,0.601486 -0.04851,0.902229 0.135819,-0.164923 0.261937,-0.339548 0.126119,-0.184327 0.126119,-0.320146 0,-0.0194 0,-0.0194 0,-0.0097 0,-0.0194 -0.0097,-0.0291 -0.0194,-0.0388 0,-0.0194 0,-0.0291 0,-0.06791 0.09701,-0.116416 0.09701,-0.05821 0.164923,-0.05821 0.08731,0 0.184327,0.05821 0.09701,0.05821 0.09701,0.155222 z m 0.611187,3.337278 q 0,0.126118 -0.475368,0.717903 -0.465667,0.582083 -0.572382,0.582083 -0.03881,0 -0.05821,-0.0291 -0.0097,-0.0194 -0.0097,-0.04851 0,-0.07761 0.271639,-0.669396 0.281341,-0.601486 0.358952,-0.688799 0.0388,-0.06791 0.08731,-0.09701 0.04851,-0.02911 0.126118,-0.02911 0.116417,0 0.194028,0.07761 0.07761,0.06791 0.07761,0.184327 z m 0.873125,-3.793243 q 0,-0.08731 -0.05821,-0.106716 -0.05821,-0.0291 -0.155222,-0.0291 -0.08731,0 -0.13582,0 -0.04851,0 -0.135819,0 -0.04851,0.155222 -0.106716,0.291042 -0.04851,0.135819 -0.126118,0.261937 0.0291,-0.0194 0.05821,-0.0194 0.0291,-0.0097 0.05821,-0.0097 0.126118,0 0.252236,0.106716 0.126118,0.09701 0.184326,0.223132 0.05821,-0.20373 0.106716,-0.407459 0.05821,-0.203729 0.05821,-0.310444 z" />
        <path
           id="path424"
           style="fill:#ffffff;stroke-width:0.26458332"
           d="m 45.301937,12.555285 q 0,0.106715 -0.106716,0.232833 -0.106715,0.116417 -0.203729,0.116417 -0.04851,0 -0.08731,-0.0291 -0.0291,-0.02911 -0.04851,-0.07761 -0.0291,-0.04851 -0.242535,-0.446263 -0.213431,-0.407459 -0.213431,-0.436563 0,-0.03881 0.02911,-0.04851 0.0388,-0.0097 0.07761,-0.0097 0.135819,0 0.465666,0.28134 0.329848,0.28134 0.329848,0.41716 z m -0.824618,0.417159 q 0,0.116417 -0.106716,0.223132 -0.106715,0.106716 -0.21343,0.106716 -0.05821,0 -0.09701,-0.0291 -0.0291,-0.0388 -0.04851,-0.08731 -0.0291,-0.06791 -0.194028,-0.475368 -0.164924,-0.41716 -0.164924,-0.426861 0,-0.04851 0.0194,-0.05821 0.0194,-0.0194 0.06791,-0.0194 0.126118,0 0.426861,0.310444 0.310445,0.310445 0.310445,0.455965 z m -0.892528,0.611188 q 0,0.03881 -0.0194,0.07761 -0.0097,0.0291 -0.0291,0.05821 -0.06791,0.05821 -0.339549,0.116417 -0.271639,0.04851 -0.310444,0.06791 -0.13582,0.0194 -0.261938,0.06791 -0.116416,0.04851 -0.242534,0.126118 -0.07761,0.0388 -0.232834,0.116416 -0.155222,0.06791 -0.194028,0.06791 -0.05821,0 -0.08731,-0.0097 -0.0194,-0.0194 -0.0194,-0.04851 0,-0.04851 0.300743,-0.291042 0.310445,-0.252236 0.310445,-0.271639 0,-0.0291 -0.05821,-0.0291 -0.04851,-0.0097 -0.07761,-0.0097 -0.291041,0 -0.591785,0.0291 -0.300743,0.0291 -0.601486,0.09701 -0.05821,0 -0.261937,0.0388 -0.194028,0.03881 -0.291042,0.03881 -0.106715,0 -0.135819,-0.03881 -0.0194,-0.04851 -0.0194,-0.155222 0,-0.08731 0.03881,-0.164924 0.04851,-0.08731 0.116417,-0.106715 0.13582,-0.07761 0.737306,-0.116417 0.611187,-0.0388 0.999243,-0.0388 h 0.533576 q 0.271639,0 0.504472,0.07761 0.232834,0.07761 0.232834,0.300743 z m 0.737305,3.42459 q 0,0.09701 -0.06791,0.291042 -0.05821,0.184326 -0.116417,0.252236 -0.13582,0.116417 -0.504472,0.184326 -0.358952,0.05821 -0.630591,0.09701 -0.21343,0.0194 -0.426861,0.0291 -0.21343,0 -0.533576,0 -0.261938,0 -0.426861,0 -0.164924,-0.0097 -0.339549,-0.0291 -0.242535,-0.0388 -0.514173,-0.106715 -0.261938,-0.07761 -0.514174,-0.194028 -0.242535,-0.116416 -0.397757,-0.300743 -0.155222,-0.194028 -0.155222,-0.426861 0,-0.08731 0,-0.135819 0,-0.05821 0.0291,-0.116417 0.0388,-0.174625 0.135819,-0.358951 0.106716,-0.184327 0.232834,-0.184327 0.04851,0 0.08731,0.0291 0.04851,0.0194 0.04851,0.06791 0,0.0194 -0.07761,0.194028 -0.06791,0.164923 -0.06791,0.300743 0,0.126118 0.0291,0.223132 0.0291,0.09701 0.116417,0.164924 0.252236,0.184326 0.717903,0.261937 0.465667,0.07761 0.941035,0.07761 0.320146,0 0.795514,-0.05821 0.475368,-0.05821 0.785812,-0.13582 0.0291,-0.0097 0.368653,-0.106715 0.34925,-0.106715 0.397757,-0.106715 0.0291,0 0.05821,0.0194 0.0291,0.0194 0.0291,0.06791 z" />
        <path
           id="path426"
           style="fill:#ffffff;stroke-width:0.26458332"
           d="m 53.004839,17.27016 q 0,0.09701 -0.174625,0.223132 -0.164924,0.126118 -0.271639,0.126118 -0.06791,0 -0.184327,-0.08731 -0.116416,-0.08731 -0.21343,-0.164923 -0.155222,-0.126118 -0.291042,-0.223132 -0.126118,-0.09701 -0.252236,-0.174625 -0.04851,0.04851 -0.28134,0.300743 -0.232834,0.242535 -0.436563,0.426861 -0.194028,0.184326 -0.407458,0.310444 -0.203729,0.126118 -0.358952,0.126118 -0.174625,0 -0.368652,-0.06791 -0.184327,-0.05821 -0.184327,-0.184327 0,-0.0291 0.232834,-0.145521 0.232833,-0.116416 0.261937,-0.126118 0.271639,-0.164923 0.543278,-0.417159 0.28134,-0.252236 0.533576,-0.523875 -0.426861,-0.261938 -0.921632,-0.494771 -0.494771,-0.232834 -0.892527,-0.329847 -0.291042,0.426861 -0.853723,1.04775 -0.56268,0.620889 -0.824618,0.620889 -0.358951,0 -0.504472,-0.300744 -0.145521,-0.300743 -0.145521,-0.6985 0,-0.174625 0.05821,-0.329847 0.05821,-0.164923 0.174625,-0.291041 0.261938,-0.339549 0.630591,-0.455966 0.368653,-0.126118 0.863423,-0.126118 0.116417,0 0.20373,0 0.08731,0 0.164923,0.0097 0.223132,-0.358952 0.620889,-1.076855 0.407458,-0.727604 0.407458,-0.84402 0,-0.03881 -0.05821,-0.03881 -0.04851,0 -0.07761,0 -0.223132,0 -0.455965,0.0291 -0.232834,0.0291 -0.436563,0.09701 -0.05821,0.0097 -0.368653,0.126118 -0.300743,0.116417 -0.300743,0.116417 -0.09701,0 -0.116416,-0.06791 -0.0194,-0.06791 -0.0194,-0.174625 0,-0.145521 0.145521,-0.320146 0.145521,-0.174625 0.28134,-0.174625 0.04851,0 0.174625,0.0194 0.135819,0.0097 0.203729,0.0097 0.09701,0 0.213431,-0.0097 0.116416,-0.0194 0.261937,-0.03881 0.213431,-0.0194 0.368653,-0.0291 0.155222,-0.0097 0.310444,-0.0097 0.174625,0 0.378355,0.184326 0.203729,0.174625 0.203729,0.358952 0,0.06791 -0.116417,0.184326 -0.106715,0.116417 -0.126118,0.145521 -0.07761,0.09701 -0.184326,0.291042 -0.09701,0.194027 -0.126118,0.252236 -0.213431,0.34925 -0.358952,0.591784 -0.145521,0.232834 -0.291041,0.475368 0.436562,0.116417 0.873125,0.320146 0.446264,0.194028 0.91193,0.455966 0.06791,-0.213431 0.106715,-0.41716 0.04851,-0.203729 0.04851,-0.407458 0,-0.116417 0,-0.223132 0.0097,-0.116417 0.03881,-0.20373 0.0097,-0.09701 0.05821,-0.135819 0.04851,-0.03881 0.145521,-0.03881 0.07761,0 0.164924,0.145521 0.08731,0.145521 0.08731,0.242535 0,0.329847 -0.04851,0.659694 -0.04851,0.329848 -0.135819,0.640292 0.194028,0.116417 0.649993,0.41716 0.465667,0.291042 0.465667,0.397757 z M 48.82354,15.73734 q -0.06791,0 -0.184326,0.0097 -0.116417,0.0097 -0.164924,0.0097 -0.291042,0.0097 -0.514174,0.09701 -0.21343,0.08731 -0.34925,0.291042 -0.06791,0.07761 -0.106715,0.184326 -0.0291,0.106715 -0.0291,0.223132 0,0.08731 0.05821,0.242535 0.05821,0.145521 0.145521,0.145521 0.08731,0 0.242535,-0.145521 0.155222,-0.155222 0.300743,-0.339549 0.155222,-0.184326 0.34925,-0.426861 0.194028,-0.242535 0.252236,-0.291042 z" />
      </g>
    </g>
  </g>
</svg>
