<?xml version="1.0" encoding="UTF-8" standalone="no"?>
<svg
   xmlns:dc="http://purl.org/dc/elements/1.1/"
   xmlns:cc="http://creativecommons.org/ns#"
   xmlns:rdf="http://www.w3.org/1999/02/22-rdf-syntax-ns#"
   xmlns:svg="http://www.w3.org/2000/svg"
   xmlns="http://www.w3.org/2000/svg"
   id="svg5666"
   version="1.1"
   viewBox="0 0 39.416039 9.0000019"
   height="9.0000019mm"
   width="39.416039mm">
  <defs
     id="defs5660" />
  <metadata
     id="metadata5663">
    <rdf:RDF>
      <cc:Work
         rdf:about="">
        <dc:format>image/svg+xml</dc:format>
        <dc:type
           rdf:resource="http://purl.org/dc/dcmitype/StillImage" />
        <dc:title></dc:title>
      </cc:Work>
    </rdf:RDF>
  </metadata>
  <g
     transform="translate(-58.174494,-45.485839)"
     id="layer1">
    <g
       transform="matrix(0.03537243,0,0,0.03093361,58.548128,45.385532)"
       id="g5696">
      <g
         style="display:inline;opacity:1;fill:#ffffff"
         id="g5111"
         transform="matrix(0.56825335,0,0,0.56825335,-57.088607,3.242665)">
        <g
           id="g5097"
           style="fill:#ffffff">
          <path
             id="path5091"
             style="fill:#ffffff"
             d="m 311.406,149.531 c 20.156,20.156 118.719,92.188 118.719,188.344 C 430.125,434.031 352.172,512 256,512 159.844,512 81.875,434.031 81.875,337.875 c 0,-96.156 98.563,-168.188 118.719,-188.344 z"
             class="st0" />
          <path
             id="path5093"
             style="fill:#ffffff"
             d="m 311.406,97.125 c 0,0 5.125,-17.594 32.75,-39.906 26.5,-21.406 6.156,-50.969 -32.75,-40.063 C 284.547,24.656 293.672,0 256,0 218.328,0 227.453,24.656 200.594,17.156 161.703,6.25 141.36,35.812 167.86,57.219 c 27.609,22.313 32.734,39.906 32.734,39.906 z"
             class="st0" />
          <path
             id="path5095"
             style="fill:#ffffff"
             d="m 323.891,123.328 c 0,6.297 -5.109,11.406 -11.391,11.406 H 199.516 c -6.297,0 -11.406,-5.109 -11.406,-11.406 v 0 c 0,-6.297 5.109,-11.391 11.406,-11.391 H 312.5 c 6.281,0.001 11.391,5.094 11.391,11.391 z"
             class="st0" />
        </g>
      </g>
      <g
         style="display:inline;opacity:1;fill:#808080"
         id="g5500"
         transform="matrix(0.21177115,0,0,0.21177115,33.660373,138.44182)">
        <g
           id="g5488"
           style="fill:#808080">
          <path
             id="path5486"
             style="fill:#808080"
             d="M 404.563,188.938 C 381.485,152.875 365.61,128.36 339.657,67.782 c 0,0 -18.75,24.531 -33.172,60.578 C 299.782,105.157 287.563,94.782 273.313,70.657 254.563,38.938 251.672,0 251.672,0 c 0,0 -30.281,17.313 -50.484,60.563 -20.172,43.281 -18.75,93.75 -41.813,116.844 -8.656,-46.156 -30.297,-59.125 -30.297,-59.125 0,0 -12.984,38.906 -21.625,64.875 -23.078,46.156 -37.5,91.406 -37.5,142.797 0,51.359 20.813,97.891 54.5,131.547 C 158.125,491.188 204.641,512 256,512 c 51.375,0 97.891,-20.813 131.563,-54.5 33.672,-33.656 54.484,-80.188 54.484,-131.547 0,-51.39 -17.281,-102.406 -37.484,-137.015 z m -68,249.312 c -21.516,21.5 -50.125,33.375 -80.563,33.375 -30.438,0 -59.047,-11.875 -80.563,-33.375 -21.531,-21.531 -33.375,-50.141 -33.375,-80.563 0,-10.656 0.844,-21.188 2.594,-31.875 6.063,-24.375 15.688,-59 15.688,-59 0,0 24.406,22.156 28.828,36.531 7.703,25 19.234,-15.375 29.328,-37.969 8.656,-10.094 18.625,-42.344 25.297,-62.5 l 59.797,108.656 40.5,-51.328 c 12.813,23.219 25.859,60 25.859,97.484 0,30.423 -11.875,59.033 -33.39,80.564 z"
             class="st0" />
        </g>
      </g>
    </g>
    <g
       id="text5700"
       style="font-style:normal;font-variant:normal;font-weight:bold;font-stretch:normal;font-size:7.76111126px;line-height:1.25;font-family:'Noto Sans CJK JP';-inkscape-font-specification:'Noto Sans CJK JP, Bold';font-variant-ligatures:normal;font-variant-caps:normal;font-variant-numeric:normal;font-feature-settings:normal;text-align:start;letter-spacing:0px;word-spacing:0px;writing-mode:lr-tb;text-anchor:start;fill:#ffffff;fill-opacity:1;stroke:none;stroke-width:0.26458332"
       aria-label="可燃ごみ">
      <path
         id="path5702"
         style="fill:#ffffff;stroke-width:0.26458332"
         d="m 70.380079,50.442303 v 1.241777 h -1.474611 v -1.241777 z m 0.915811,2.126544 v -3.00355 h -3.290711 v 3.593395 h 0.900289 v -0.589845 z m 2.988028,-4.804128 h -6.992761 v 0.931334 h 5.130094 v 4.6101 c 0,0.162983 -0.06985,0.217311 -0.248355,0.217311 -0.186267,0 -0.861484,0.0078 -1.412523,-0.02328 0.1397,0.248355 0.325967,0.706261 0.380295,0.9779 0.791633,0 1.365955,-0.01552 1.754011,-0.170745 0.364772,-0.155222 0.496711,-0.426861 0.496711,-0.985661 v -4.625622 h 0.892528 z" />
      <path
         id="path5704"
         style="fill:#ffffff;stroke-width:0.26458332"
         d="m 82.145924,48.502025 c -0.07761,-0.310445 -0.248356,-0.76835 -0.442384,-1.125361 l -0.574322,0.232833 c 0.170744,0.357011 0.34925,0.830439 0.411339,1.148645 z m -6.767689,2.421467 c 0.287161,-0.551039 0.372533,-1.404762 0.364772,-2.173112 l -0.574322,-0.06985 c 0.0078,0.690739 -0.08537,1.474612 -0.318206,1.916995 z m 2.087739,1.707444 c -0.116417,-0.186267 -0.597606,-0.923572 -0.830439,-1.249539 0.0388,-0.473428 0.04657,-0.954617 0.04657,-1.420283 v -0.100895 l 0.248356,0.108656 c 0.201789,-0.372533 0.434622,-0.970139 0.659694,-1.459089 L 76.922696,48.26143 c -0.05433,0.263878 -0.147461,0.582084 -0.240595,0.892528 v -1.901472 h -0.791633 v 2.708628 c 0,1.342672 -0.09313,2.794 -0.954617,3.896078 0.178506,0.1397 0.465667,0.426861 0.589845,0.62865 0.496711,-0.605367 0.783872,-1.296106 0.946855,-2.017889 0.155222,0.2794 0.294922,0.5588 0.388056,0.76835 z m 0.5588,-2.72415 c 0.06209,-0.116417 0.116416,-0.240594 0.178505,-0.372533 0.194028,0.100894 0.395817,0.232833 0.551039,0.34925 -0.04657,0.147461 -0.108656,0.287161 -0.170744,0.4191 -0.155223,-0.131939 -0.364773,-0.271639 -0.5588,-0.395817 z m 1.063272,-1.2573 c -0.03105,0.201789 -0.07761,0.403578 -0.124178,0.589844 -0.162983,-0.100894 -0.34925,-0.201788 -0.527756,-0.287161 0.03105,-0.100894 0.06985,-0.201789 0.100895,-0.302683 z m 0.62865,0.970139 h 0.597605 c -0.108655,0.845961 -0.442383,1.722967 -1.412522,2.405944 0.170745,0.124178 0.442383,0.395817 0.5588,0.574323 0.682978,-0.48895 1.094317,-1.078795 1.334911,-1.691923 0.20955,0.651934 0.512234,1.218495 0.915811,1.591028 0.124178,-0.217311 0.380295,-0.527755 0.574323,-0.675217 -0.551039,-0.434622 -0.915812,-1.296105 -1.102078,-2.204155 h 0.946855 v -0.760589 h -1.008944 v -0.08537 -1.490134 h -0.760589 v 1.474612 0.100894 h -0.5588 c 0.04657,-0.256117 0.08537,-0.519994 0.116417,-0.799394 l -0.473428,-0.1397 -0.1397,0.03104 h -0.574322 c 0.05433,-0.201789 0.100894,-0.411339 0.1397,-0.620889 L 78.14119,47.21368 c -0.217311,1.202973 -0.62865,2.343856 -1.241778,3.065639 0.170745,0.100895 0.473428,0.34925 0.589845,0.473428 0.07761,-0.100894 0.155222,-0.201789 0.225072,-0.310444 0.201789,0.131939 0.403578,0.294922 0.551039,0.442383 -0.287161,0.457906 -0.62865,0.822678 -1.016706,1.063272 0.155223,0.131939 0.364773,0.411339 0.481189,0.613128 l -0.02328,-0.0078 c -0.155222,0.566561 -0.442383,1.164167 -0.861483,1.544461 l 0.682977,0.388056 c 0.442384,-0.411339 0.6985,-1.078795 0.877006,-1.691923 l -0.636411,-0.217311 c 0.939094,-0.675216 1.598789,-1.777294 1.948039,-3.321755 z m -1.086556,3.228622 c 0.09313,0.496711 0.147461,1.140884 0.131939,1.552222 l 0.776111,-0.116416 c 0,-0.4191 -0.06209,-1.04775 -0.170744,-1.544461 z m 1.071034,0.02328 c 0.194027,0.48895 0.357011,1.125361 0.395816,1.5367 l 0.752828,-0.225073 c -0.05433,-0.411339 -0.232833,-1.032227 -0.434622,-1.513416 z m 1.109838,-0.124178 c 0.294923,0.543278 0.589845,1.265061 0.675217,1.699683 l 0.799395,-0.2794 c -0.108656,-0.450144 -0.426862,-1.140883 -0.737306,-1.660878 z" />
      <path
         id="path5706"
         style="fill:#ffffff;stroke-width:0.26458332"
         d="m 83.597251,51.435725 c -0.06209,0.294922 -0.147461,0.667455 -0.147461,1.109839 0,1.055511 0.877006,1.645355 2.638778,1.645355 1.078795,0 2.002367,-0.100894 2.669822,-0.256116 l -0.0078,-1.086556 c -0.682978,0.186267 -1.660878,0.302684 -2.700866,0.302684 -1.109839,0 -1.567745,-0.357012 -1.567745,-0.845962 0,-0.256116 0.05433,-0.496711 0.124178,-0.776111 z m 4.291895,-3.733095 c 0.108655,0.155223 0.225072,0.357012 0.333728,0.5588 -0.589845,0.05433 -1.435806,0.100895 -2.173111,0.100895 -0.807156,0 -1.521178,-0.03104 -2.087739,-0.09313 v 1.024466 c 0.620889,0.04657 1.288344,0.08537 2.0955,0.08537 0.729544,0 1.684161,-0.05433 2.219677,-0.09313 v -0.923572 c 0.07761,0.155222 0.155223,0.302683 0.217312,0.426861 l 0.62865,-0.271639 c -0.147462,-0.287161 -0.426862,-0.776111 -0.620889,-1.063272 z m 0.915811,-0.34925 c 0.217311,0.294923 0.465667,0.745067 0.62865,1.071034 l 0.613128,-0.263878 c -0.131939,-0.271639 -0.4191,-0.76835 -0.62865,-1.055511 z" />
      <path
         id="path5708"
         style="fill:#ffffff;stroke-width:0.26458332"
         d="m 92.204323,52.336014 c -0.1397,0.194028 -0.248356,0.263878 -0.403578,0.263878 -0.155222,0 -0.287161,-0.147462 -0.287161,-0.364773 0,-0.481189 0.465667,-1.001183 1.319389,-1.133122 -0.217311,0.473428 -0.434622,0.946856 -0.62865,1.234017 z m 5.386211,-0.613128 c -0.225072,-0.147461 -0.504472,-0.333728 -0.822678,-0.512233 0.07761,-0.434623 0.116417,-0.915811 0.147461,-1.428045 l -1.008944,-0.116416 c 0.03104,0.248355 0.02328,0.543277 0.0078,0.8382 -0.0078,0.08537 -0.01552,0.170744 -0.02328,0.263877 -0.496711,-0.217311 -1.055511,-0.403577 -1.653117,-0.496711 0.271639,-0.651933 0.551039,-1.319389 0.752828,-1.645355 0.06209,-0.108656 0.147461,-0.20955 0.256116,-0.325967 l -0.613127,-0.481189 c -0.131939,0.05433 -0.333728,0.100895 -0.519995,0.116417 -0.357011,0.03104 -1.179689,0.06209 -1.614311,0.06209 -0.170744,0 -0.434622,-0.0078 -0.636411,-0.03105 l 0.0388,0.993422 c 0.194028,-0.03104 0.465667,-0.06209 0.628651,-0.06985 0.34925,-0.02328 1.008944,-0.04657 1.311627,-0.05433 -0.178505,0.364772 -0.395816,0.884766 -0.613127,1.381477 -1.544462,0.06985 -2.623256,0.985662 -2.623256,2.173112 0,0.776111 0.504472,1.241777 1.179689,1.241777 0.527755,0 0.892528,-0.20955 1.195211,-0.675216 0.271639,-0.426861 0.605367,-1.18745 0.892528,-1.847145 0.651933,0.09313 1.2573,0.325967 1.800578,0.620889 -0.256117,0.6985 -0.791634,1.435806 -1.9558,1.932517 l 0.822677,0.667455 c 1.024467,-0.535516 1.60655,-1.210733 1.948039,-2.079977 0.232834,0.170744 0.457906,0.357011 0.659695,0.535516 z" />
    </g>
  </g>
</svg>
