<?xml version="1.0" encoding="UTF-8" standalone="no"?>
<svg
   xmlns:dc="http://purl.org/dc/elements/1.1/"
   xmlns:cc="http://creativecommons.org/ns#"
   xmlns:rdf="http://www.w3.org/1999/02/22-rdf-syntax-ns#"
   xmlns:svg="http://www.w3.org/2000/svg"
   xmlns="http://www.w3.org/2000/svg"
   id="svg4896"
   version="1.1"
   viewBox="0 0 30.299374 7.3808198"
   height="7.3808198mm"
   width="30.299374mm">
  <defs
     id="defs4890" />
  <metadata
     id="metadata4893">
    <rdf:RDF>
      <cc:Work
         rdf:about="">
        <dc:format>image/svg+xml</dc:format>
        <dc:type
           rdf:resource="http://purl.org/dc/dcmitype/StillImage" />
        <dc:title></dc:title>
      </cc:Work>
    </rdf:RDF>
  </metadata>
  <g
     transform="translate(-77.502956,-123.22116)"
     id="layer1">
    <g
       id="text4900"
       style="font-style:normal;font-variant:normal;font-weight:bold;font-stretch:normal;font-size:7.76111126px;line-height:1.25;font-family:'Noto Sans CJK JP';-inkscape-font-specification:'Noto Sans CJK JP, Bold';font-variant-ligatures:normal;font-variant-caps:normal;font-variant-numeric:normal;font-feature-settings:normal;text-align:start;letter-spacing:0px;word-spacing:0px;writing-mode:lr-tb;text-anchor:start;fill:#000000;fill-opacity:1;stroke:none;stroke-width:0.26458332"
       aria-label="可燃ごみ">
      <path
         id="path4902"
         style="fill:#ffffff;stroke-width:0.26458332"
         d="m 80.591879,126.55844 v 1.24178 h -1.474612 v -1.24178 z m 0.915811,2.12655 v -3.00355 h -3.290712 v 3.59339 h 0.900289 v -0.58984 z m 2.988028,-4.80413 h -6.992762 v 0.93133 h 5.130095 v 4.6101 c 0,0.16298 -0.06985,0.21731 -0.248356,0.21731 -0.186266,0 -0.861483,0.008 -1.412522,-0.0233 0.1397,0.24835 0.325967,0.70626 0.380294,0.9779 0.791634,0 1.365956,-0.0155 1.754012,-0.17075 0.364772,-0.15522 0.496711,-0.42686 0.496711,-0.98566 v -4.62562 h 0.892528 z" />
      <path
         id="path4904"
         style="fill:#ffffff;stroke-width:0.26458332"
         d="m 92.357723,124.61816 c -0.07761,-0.31044 -0.248355,-0.76835 -0.442383,-1.12536 l -0.574322,0.23284 c 0.170744,0.35701 0.34925,0.83043 0.411339,1.14864 z m -6.767689,2.42147 c 0.287161,-0.55104 0.372534,-1.40476 0.364772,-2.17311 l -0.574322,-0.0698 c 0.0078,0.69074 -0.08537,1.47461 -0.318205,1.91699 z m 2.087739,1.70744 c -0.116417,-0.18626 -0.597605,-0.92357 -0.830439,-1.24953 0.03881,-0.47343 0.04657,-0.95462 0.04657,-1.42029 v -0.10089 l 0.248355,0.10865 c 0.201789,-0.37253 0.434623,-0.97014 0.659695,-1.45909 l -0.667456,-0.24835 c -0.05433,0.26388 -0.147461,0.58208 -0.240594,0.89253 v -1.90148 h -0.791633 v 2.70863 c 0,1.34267 -0.09313,2.794 -0.954617,3.89608 0.178505,0.1397 0.465667,0.42686 0.589844,0.62865 0.496711,-0.60537 0.783873,-1.29611 0.946856,-2.01789 0.155222,0.2794 0.294922,0.5588 0.388055,0.76835 z m 0.5588,-2.72415 c 0.06209,-0.11641 0.116417,-0.24059 0.178506,-0.37253 0.194027,0.1009 0.395816,0.23283 0.551039,0.34925 -0.04657,0.14746 -0.108656,0.28716 -0.170745,0.4191 -0.155222,-0.13194 -0.364772,-0.27164 -0.5588,-0.39582 z m 1.063272,-1.2573 c -0.03104,0.20179 -0.07761,0.40358 -0.124177,0.58985 -0.162984,-0.1009 -0.34925,-0.20179 -0.527756,-0.28716 0.03104,-0.1009 0.06985,-0.20179 0.100894,-0.30269 z m 0.62865,0.97014 h 0.597606 c -0.108656,0.84596 -0.442383,1.72297 -1.412522,2.40595 0.170744,0.12418 0.442383,0.39581 0.5588,0.57432 0.682978,-0.48895 1.094316,-1.07879 1.334911,-1.69192 0.20955,0.65193 0.512233,1.21849 0.915811,1.59103 0.124178,-0.21732 0.380294,-0.52776 0.574322,-0.67522 -0.551039,-0.43462 -0.915811,-1.29611 -1.102078,-2.20416 h 0.946856 v -0.76059 h -1.008944 v -0.0854 -1.49013 h -0.760589 v 1.47461 0.10089 h -0.5588 c 0.04657,-0.25611 0.08537,-0.51999 0.116416,-0.79939 l -0.473428,-0.1397 -0.1397,0.031 h -0.574322 c 0.05433,-0.20178 0.100895,-0.41133 0.1397,-0.62088 l -0.729544,-0.11642 c -0.217311,1.20297 -0.62865,2.34385 -1.241778,3.06564 0.170744,0.10089 0.473428,0.34925 0.589844,0.47343 0.07761,-0.1009 0.155223,-0.20179 0.225073,-0.31045 0.201789,0.13194 0.403577,0.29492 0.551039,0.44238 -0.287162,0.45791 -0.62865,0.82268 -1.016706,1.06328 0.155222,0.13194 0.364772,0.41134 0.481189,0.61312 l -0.02328,-0.008 c -0.155223,0.56656 -0.442384,1.16417 -0.861484,1.54446 l 0.682978,0.38806 c 0.442383,-0.41134 0.6985,-1.07879 0.877006,-1.69192 l -0.636412,-0.21731 c 0.939095,-0.67522 1.598789,-1.7773 1.948039,-3.32176 z m -1.086555,3.22863 c 0.09313,0.49671 0.147461,1.14088 0.131939,1.55222 l 0.776111,-0.11642 c 0,-0.4191 -0.06209,-1.04775 -0.170745,-1.54446 z m 1.071033,0.0233 c 0.194028,0.48895 0.357011,1.12536 0.395817,1.5367 l 0.752828,-0.22507 c -0.05433,-0.41134 -0.232834,-1.03223 -0.434623,-1.51342 z m 1.109839,-0.12418 c 0.294922,0.54328 0.589845,1.26506 0.675217,1.69968 l 0.799394,-0.2794 c -0.108655,-0.45014 -0.426861,-1.14088 -0.737305,-1.66087 z" />
      <path
         id="path4906"
         style="fill:#ffffff;stroke-width:0.26458332"
         d="m 93.809051,127.55186 c -0.06209,0.29493 -0.147461,0.66746 -0.147461,1.10984 0,1.05551 0.877005,1.64536 2.638778,1.64536 1.078794,0 2.002366,-0.1009 2.669822,-0.25612 l -0.0078,-1.08655 c -0.682978,0.18626 -1.660878,0.30268 -2.700867,0.30268 -1.109839,0 -1.567744,-0.35701 -1.567744,-0.84596 0,-0.25612 0.05433,-0.49671 0.124177,-0.77611 z m 4.291895,-3.73309 c 0.108655,0.15522 0.225072,0.35701 0.333727,0.5588 -0.589844,0.0543 -1.435805,0.10089 -2.173111,0.10089 -0.807155,0 -1.521178,-0.031 -2.087739,-0.0931 v 1.02447 c 0.620889,0.0466 1.288345,0.0854 2.0955,0.0854 0.729545,0 1.684161,-0.0543 2.219678,-0.0931 v -0.92358 c 0.07761,0.15523 0.155222,0.30269 0.217311,0.42686 l 0.62865,-0.27163 c -0.147461,-0.28717 -0.426861,-0.77612 -0.620889,-1.06328 z m 0.915811,-0.34925 c 0.217311,0.29492 0.465666,0.74507 0.62865,1.07103 l 0.613123,-0.26388 c -0.13193,-0.27163 -0.419096,-0.76835 -0.628646,-1.05551 z" />
      <path
         id="path4908"
         style="fill:#ffffff;stroke-width:0.26458332"
         d="m 102.41612,128.45215 c -0.1397,0.19403 -0.24835,0.26388 -0.40358,0.26388 -0.15522,0 -0.28716,-0.14746 -0.28716,-0.36477 0,-0.48119 0.46567,-1.00119 1.31939,-1.13312 -0.21731,0.47342 -0.43462,0.94685 -0.62865,1.23401 z m 5.38621,-0.61313 c -0.22507,-0.14746 -0.50447,-0.33372 -0.82267,-0.51223 0.0776,-0.43462 0.11641,-0.91581 0.14746,-1.42804 l -1.00895,-0.11642 c 0.031,0.24836 0.0233,0.54328 0.008,0.8382 -0.008,0.0854 -0.0155,0.17074 -0.0233,0.26388 -0.49671,-0.21731 -1.05551,-0.40358 -1.65312,-0.49671 0.27164,-0.65194 0.55104,-1.31939 0.75283,-1.64536 0.0621,-0.10865 0.14746,-0.20955 0.25612,-0.32597 l -0.61313,-0.48118 c -0.13194,0.0543 -0.33373,0.10089 -0.51999,0.11641 -0.35702,0.0311 -1.17969,0.0621 -1.61432,0.0621 -0.17074,0 -0.43462,-0.008 -0.63641,-0.031 l 0.0388,0.99342 c 0.19403,-0.0311 0.46567,-0.0621 0.62865,-0.0699 0.34925,-0.0233 1.00894,-0.0466 1.31163,-0.0543 -0.17851,0.36477 -0.39582,0.88477 -0.61313,1.38148 -1.54446,0.0699 -2.62326,0.98566 -2.62326,2.17311 0,0.77611 0.50448,1.24178 1.17969,1.24178 0.52776,0 0.89253,-0.20955 1.19521,-0.67522 0.27164,-0.42686 0.60537,-1.18745 0.89253,-1.84714 0.65193,0.0931 1.2573,0.32596 1.80058,0.62089 -0.25612,0.6985 -0.79163,1.4358 -1.9558,1.93251 l 0.82268,0.66746 c 1.02446,-0.53552 1.60655,-1.21074 1.94804,-2.07998 0.23283,0.17074 0.4579,0.35701 0.65969,0.53552 z" />
    </g>
  </g>
</svg>
