<?xml version="1.0" encoding="UTF-8" standalone="no"?>
<svg
   xmlns:dc="http://purl.org/dc/elements/1.1/"
   xmlns:cc="http://creativecommons.org/ns#"
   xmlns:rdf="http://www.w3.org/1999/02/22-rdf-syntax-ns#"
   xmlns:svg="http://www.w3.org/2000/svg"
   xmlns="http://www.w3.org/2000/svg"
   width="41.134441mm"
   height="9.8391924mm"
   viewBox="0 0 41.134441 9.8391924"
   version="1.1"
   id="svg863">
  <defs
     id="defs857" />
  <metadata
     id="metadata860">
    <rdf:RDF>
      <cc:Work
         rdf:about="">
        <dc:format>image/svg+xml</dc:format>
        <dc:type
           rdf:resource="http://purl.org/dc/dcmitype/StillImage" />
        <dc:title></dc:title>
      </cc:Work>
    </rdf:RDF>
  </metadata>
  <g
     id="layer1"
     transform="translate(-61.178988,-110.54552)">
    <g
       id="text867"
       style="font-style:normal;font-weight:normal;font-size:10.58333302px;line-height:1.25;font-family:sans-serif;letter-spacing:0px;word-spacing:0px;fill:#000000;fill-opacity:1;stroke:none;stroke-width:0.26458332"
       aria-label="可燃ごみ">
      <path
         id="path1394"
         style="fill:#f7f9f9;fill-opacity:1;stroke-width:0.26458332"
         d="m 61.178988,111.57905 h 9.095052 v 0.9095 h -1.281576 v 6.77995 q 0,0.78548 -0.74414,0.78548 h -1.405599 l -0.165365,-0.9095 h 1.198894 q 0.165364,0 0.165364,-0.16537 v -6.49056 h -6.86263 z m 5.457031,6.36653 h -0.950846 v -0.37207 H 63.41141 v 0.78548 h -0.950846 v -4.4235 h 4.175455 z m -0.950846,-3.22461 H 63.41141 v 2.06706 h 2.273763 z" />
      <path
         id="path1396"
         style="fill:#f7f9f9;fill-opacity:1;stroke-width:0.26458332"
         d="m 80.650667,117.44949 q -1.281575,-1.03353 -1.860351,-2.31511 -0.496094,1.69499 -1.860352,2.56316 l -0.496094,-0.66146 q 1.694987,-1.28158 1.819011,-3.18327 h -1.033529 q -0.37207,2.3151 -2.356445,3.7207 l -0.454753,-0.57877 q 1.116211,-0.78549 1.488282,-1.52963 l -0.785482,-0.7028 q -0.124024,0.28939 -0.496094,0.74414 l -0.496094,-0.53743 q 0.992188,-1.15755 1.198894,-4.01009 l 0.74414,0.0827 q 0.289388,0.0827 -0.08268,0.20671 l -0.08268,0.66146 h 1.570963 q 0,0.70279 -0.124023,1.28157 h 0.909505 v -2.23242 h 0.785482 q 0.330729,0.0413 0.04134,0.24805 v 1.98437 h 1.777669 v 0.66146 h -1.777669 q 0.289388,1.6123 2.025716,2.85254 z m -4.299479,2.60449 q 0.08268,-0.95085 -0.08268,-1.98437 l 0.702799,-0.0413 q 0.33073,0.90951 0.248047,1.94304 z m -0.702799,-1.86035 q -0.206706,1.15755 -0.826823,2.06706 l -0.7028,-0.45476 q 0.578776,-0.82682 0.868164,-1.90169 z m 0.537435,-3.26595 q 0.124023,-0.20671 0.248046,-0.7028 l -0.909505,-0.57878 -0.206705,0.62012 z m -3.59668,-1.69499 q 0.330729,0.0413 0,0.24805 0.04134,1.52962 -0.248047,2.64583 l -0.661458,-0.45475 q 0.289388,-1.19889 0.248047,-2.56315 z m 1.860352,-0.66146 0.330729,0.62012 q 0.165364,0.33073 -0.124024,0.20671 l -0.950846,0.74414 v 3.0179 q 0.537435,0.37207 0.909505,1.03353 l -0.454752,0.74414 q -0.372071,-0.62012 -0.661459,-0.90951 -0.248047,1.4056 -1.198893,2.35645 l -0.537435,-0.66146 q 1.240234,-1.28157 1.240234,-3.10058 v -5.66374 h 0.661459 q 0.330729,0.0413 0.04134,0.24805 v 2.10839 z m 5.415689,-1.11621 q 0.372071,0.24805 0.785482,0.86817 l -0.620117,0.41341 q -0.124023,-0.37207 -0.702799,-0.90951 z m -4.051432,1.11621 -0.124023,0.57878 0.909505,0.49609 q 0.08268,-0.37207 0.165365,-1.07487 z m 4.423503,7.40007 q -0.413412,-1.07487 -1.07487,-1.90169 l 0.661458,-0.28939 q 0.744141,0.74414 1.240235,1.81901 z m -1.777669,-1.98438 q 0.413411,0.78549 0.661458,1.77767 l -0.868164,0.16537 q -0.165365,-1.03353 -0.496094,-1.81901 z" />
      <path
         id="path1398"
         style="fill:#f7f9f9;fill-opacity:1;stroke-width:0.26458332"
         d="m 90.448518,118.44168 v 0.9095 h -4.547525 q -1.281576,0 -1.77767,-0.49609 -0.496093,-0.4961 -0.496093,-1.32292 0,-0.45475 0.165364,-1.07487 l 0.950847,0.12402 q -0.206706,0.66146 -0.206706,0.95085 0,0.37207 0.248047,0.62012 0.289388,0.28939 1.157552,0.28939 z m -6.201171,-5.16765 v -0.9095 h 5.374349 v 0.9095 z m 6.15983,-2.72851 q 0.7028,0.37207 1.570964,1.03353 l -0.37207,0.57877 q -0.909506,-0.66146 -1.570964,-1.03353 z m -0.578776,0.95084 q 0.7028,0.37207 1.570964,1.03353 l -0.37207,0.57878 q -0.909506,-0.66146 -1.570964,-1.03353 z" />
      <path
         id="path1400"
         style="fill:#f7f9f9;fill-opacity:1;stroke-width:0.26458332"
         d="m 100.32905,116.74669 q -0.413408,1.86035 -1.612302,3.18327 l -0.868164,-0.4961 q 1.281576,-1.19889 1.694987,-2.97656 -1.44694,-0.53743 -2.935221,-0.74414 -1.116211,2.39779 -1.488281,2.76986 -0.496094,0.49609 -1.157552,0.49609 -0.496094,0 -0.826823,-0.33073 -0.37207,-0.37207 -0.37207,-1.11621 0,-0.86816 0.826822,-1.69499 0.909506,-0.9095 2.439128,-0.9095 0.496094,-1.28158 0.909505,-2.39779 -1.157552,0.28939 -2.315104,0.53744 l -0.37207,-0.82683 q 1.364258,-0.16536 2.604492,-0.45475 l 0.496094,-0.2067 0.702799,0.53743 q 0.413411,0.24805 -0.04134,0.37207 -0.537435,0.95085 -1.157552,2.48047 1.322916,0.16536 2.811198,0.66146 0.08268,-0.99219 0.04134,-2.43913 l 0.785484,0.16537 q 0.45475,0.0827 0.0827,0.33072 0,1.36426 -0.0827,2.23243 0.78548,0.28938 1.81901,0.82682 l -0.41341,0.82682 q -0.86817,-0.49609 -1.57097,-0.82682 z m -4.588864,-1.03353 q -0.950846,0 -1.529622,0.57878 -0.661459,0.66145 -0.661459,1.24023 0,0.24805 0.165365,0.41341 0.124023,0.12403 0.37207,0.12403 0.37207,0 0.661458,-0.45476 0.248047,-0.37207 0.992188,-1.90169 z" />
    </g>
  </g>
</svg>
