<?xml version="1.0" encoding="UTF-8" standalone="no"?>
<svg
   xmlns:dc="http://purl.org/dc/elements/1.1/"
   xmlns:cc="http://creativecommons.org/ns#"
   xmlns:rdf="http://www.w3.org/1999/02/22-rdf-syntax-ns#"
   xmlns:svg="http://www.w3.org/2000/svg"
   xmlns="http://www.w3.org/2000/svg"
   id="svg5911"
   version="1.1"
   viewBox="0 0 62.939972 9.0000048"
   height="9.0000048mm"
   width="62.939972mm">
  <defs
     id="defs5905" />
  <metadata
     id="metadata5908">
    <rdf:RDF>
      <cc:Work
         rdf:about="">
        <dc:format>image/svg+xml</dc:format>
        <dc:type
           rdf:resource="http://purl.org/dc/dcmitype/StillImage" />
        <dc:title></dc:title>
      </cc:Work>
    </rdf:RDF>
  </metadata>
  <g
     transform="translate(-77.131938,-160.13163)"
     id="layer1">
    <g
       transform="matrix(0.03537243,0,0,0.03093361,77.288098,160.34795)"
       id="g5977">
      <g
         style="display:inline;opacity:1;fill:#ffffff"
         id="g5111"
         transform="matrix(0.56825335,0,0,0.56825335,-50.94049,-6.9929366)">
        <g
           id="g5097"
           style="fill:#ffffff">
          <path
             id="path5091"
             style="fill:#ffffff"
             d="m 311.406,149.531 c 20.156,20.156 118.719,92.188 118.719,188.344 C 430.125,434.031 352.172,512 256,512 159.844,512 81.875,434.031 81.875,337.875 c 0,-96.156 98.563,-168.188 118.719,-188.344 z"
             class="st0" />
          <path
             id="path5093"
             style="fill:#ffffff"
             d="m 311.406,97.125 c 0,0 5.125,-17.594 32.75,-39.906 26.5,-21.406 6.156,-50.969 -32.75,-40.063 C 284.547,24.656 293.672,0 256,0 218.328,0 227.453,24.656 200.594,17.156 161.703,6.25 141.36,35.812 167.86,57.219 c 27.609,22.313 32.734,39.906 32.734,39.906 z"
             class="st0" />
          <path
             id="path5095"
             style="fill:#ffffff"
             d="m 323.891,123.328 c 0,6.297 -5.109,11.406 -11.391,11.406 H 199.516 c -6.297,0 -11.406,-5.109 -11.406,-11.406 v 0 c 0,-6.297 5.109,-11.391 11.406,-11.391 H 312.5 c 6.281,0.001 11.391,5.094 11.391,11.391 z"
             class="st0" />
        </g>
      </g>
      <g
         style="display:inline;opacity:1;fill:#808080"
         id="g5642"
         transform="matrix(0.1625599,0.04147331,-0.04147331,0.1625599,82.65961,115.12233)">
        <g
           id="g5630"
           style="fill:#808080">
          <path
             id="path5628"
             style="fill:#808080"
             d="m 503.576,162.111 c -0.732,-1.376 -4.766,-8.976 -10.166,-19.232 -5.214,-9.889 -11.624,-22.157 -17.946,-34.058 C 448.917,58.741 385.559,11.307 344.992,11.307 l -12.911,0.189 -4.39,12.08 c -0.643,1.832 -17.211,45.6 -71.691,45.6 -54.48,0 -71.048,-43.768 -71.692,-45.601 l -4.39,-12.08 -12.911,-0.189 c -40.567,0 -103.926,47.434 -130.472,97.514 -6.322,11.901 -12.733,24.169 -17.946,34.058 -5.4,10.256 -9.433,17.856 -10.166,19.232 L 0,177.125 l 14.467,9.334 73.158,46.978 15.746,10.068 9.701,-15.844 4.578,-7.323 c 2.934,20.056 4.4,48.436 -0.089,85.882 -7.144,60.613 -14.377,94.68 -18.589,115.004 -5.034,23.802 -8.324,39.645 8.244,50.447 6.777,4.668 46.513,29.023 148.784,29.023 102.271,0 142.007,-24.356 148.784,-29.023 16.569,-10.802 13.278,-26.645 8.244,-50.447 -4.212,-20.324 -11.445,-54.391 -18.589,-115.004 -4.488,-37.446 -3.022,-65.826 -0.09,-85.882 l 4.578,7.323 9.702,15.844 15.745,-10.068 73.159,-46.978 14.467,-9.334 z m -89.09,55.938 -15.013,-24.168 c 4.668,-16.479 9.344,-30.124 10.801,-34.79 0.366,-1.377 0.644,-2.021 0.644,-2.021 l -17.489,-5.49 c 0,0.178 -3.756,12.088 -7.968,28.844 -5.49,13.824 -17.945,54.936 -9.245,127.995 15.29,128.183 30.49,140.362 18.312,148.052 0,0 -34.791,25.911 -138.528,25.911 -103.737,0 -138.528,-25.912 -138.528,-25.912 -12.178,-7.69 3.022,-19.868 18.312,-148.052 8.7,-73.06 -3.755,-114.172 -9.246,-127.995 -4.211,-16.756 -7.967,-28.666 -7.967,-28.844 l -17.489,5.49 c 0,0 0.277,0.644 0.644,2.021 1.458,4.666 6.134,18.312 10.802,34.79 L 97.515,218.048 24.357,171.08 c 1.466,-2.566 15.289,-29.024 28.38,-53.746 24.723,-46.692 83.137,-87.715 114.271,-87.715 0,0 20.046,57.869 88.993,57.869 68.947,0 88.993,-57.869 88.993,-57.869 31.134,0 89.548,41.023 114.27,87.715 13.09,24.723 26.913,51.181 28.38,53.746 z"
             class="st0" />
        </g>
      </g>
      <g
         style="display:inline;opacity:1;fill:#808080"
         id="g5189"
         transform="matrix(0.10253081,0,0,0.10253081,41.639976,186.32329)">
        <g
           id="g5168"
           style="fill:#808080"
           transform="rotate(-5.8655804,256,255.99989)">
          <path
             id="path5148"
             style="fill:#808080"
             d="m 74.836,26.128 c 0,0 0.009,0 0.019,-0.01 v 0 z"
             class="st0" />
          <path
             id="path5150"
             style="fill:#808080"
             d="m 498.415,26.109 c -4.377,-2.597 -9.302,-3.92 -14.238,-3.92 -4.535,0 -9.125,1.117 -13.278,3.38 l -43.587,23.613 -57.126,-30.95 c -4.134,-2.235 -8.706,-3.362 -13.259,-3.352 -4.554,-0.01 -9.125,1.118 -13.259,3.352 l -57.08,30.96 -57.098,-30.951 c -4.134,-2.244 -8.706,-3.371 -13.26,-3.361 -4.553,-0.01 -9.125,1.118 -13.259,3.352 l -57.079,30.96 -43.55,-23.613 C 98.226,23.334 93.645,22.199 89.073,22.207 84.175,22.198 79.231,23.511 74.854,26.118 66.428,31.138 61.27,40.225 61.27,50.021 V 415.347 H 89.875 V 51.353 l 42.758,23.185 c 4.126,2.245 8.698,3.362 13.26,3.362 4.553,0 9.125,-1.117 13.25,-3.352 l 57.089,-30.961 57.098,30.951 c 4.125,2.245 8.697,3.362 13.259,3.362 4.554,0 9.126,-1.117 13.251,-3.352 l 57.088,-30.961 57.135,30.961 c 4.115,2.226 8.687,3.352 13.25,3.352 4.554,0 9.126,-1.117 13.259,-3.362 l 42.824,-23.194 v 372.011 c -0.01,12.515 -5.038,23.716 -13.232,31.938 -8.213,8.194 -19.415,13.213 -31.93,13.223 H 95.386 C 76.903,468.506 60.291,461.066 48.167,448.952 36.053,436.819 28.614,420.216 28.604,401.734 V 103.944 H 0 v 297.79 c 0.01,52.683 42.702,95.377 95.386,95.386 H 438.234 C 478.982,497.11 511.99,464.102 512,423.354 V 50.012 c 0,-9.796 -5.159,-18.884 -13.585,-23.903 z"
             class="st0" />
          <path
             id="rect5152"
             d="m 336.34799,267.18301 h 116.43 v 125.546 h -116.43 z"
             style="fill:#808080" />
          <path
             id="rect5154"
             d="m 122.762,269.082 h 171.62801 v 19.07 H 122.762 Z"
             style="fill:#808080" />
          <path
             id="rect5156"
             d="m 122.762,371.76001 h 171.62801 v 19.07 H 122.762 Z"
             style="fill:#808080" />
          <path
             id="rect5158"
             d="m 122.762,320.42599 h 171.62801 v 19.07 H 122.762 Z"
             style="fill:#808080" />
          <path
             id="path5160"
             style="fill:#808080"
             d="m 142.921,222.888 v -53.429 h 0.625 l 30.15,53.429 c 0.502,0.875 1.127,1.248 2.132,1.248 h 14.889 l 1.248,-1.248 v -82.583 l -1.248,-1.248 h -14.144 l -1.247,1.248 v 53.55 h -0.624 l -30.03,-53.55 c -0.502,-0.875 -1.257,-1.248 -2.132,-1.248 h -15.01 l -1.257,1.248 v 82.583 l 1.257,1.248 h 14.135 z"
             class="st0" />
          <path
             id="polygon5162"
             d="m 264.016,154.942 1.249,-1.247 v -13.39 l -1.249,-1.248 h -54.554 l -1.258,1.248 v 82.583 l 1.258,1.248 h 54.554 l 1.249,-1.248 v -13.39 l -1.249,-1.257 h -36.668 l -0.745,-0.744 v -17.646 l 0.745,-0.754 h 30.533 l 1.257,-1.248 V 174.59 l -1.257,-1.257 h -30.533 l -0.745,-0.746 v -16.891 l 0.745,-0.754 z"
             style="fill:#808080" />
          <path
             id="path5164"
             style="fill:#808080"
             d="m 376.481,139.057 h -16.016 c -0.875,0 -1.379,0.373 -1.508,1.248 l -11.76,53.429 h -0.252 l -15.01,-53.429 -1.499,-1.248 h -10.885 c -0.875,0 -1.379,0.494 -1.63,1.248 l -14.517,53.429 h -0.252 l -12.263,-53.429 c -0.121,-0.754 -0.624,-1.248 -1.499,-1.248 h -16.137 c -0.875,0 -1.127,0.494 -1.006,1.248 l 22.022,82.583 1.499,1.248 h 12.514 c 0.876,0 1.379,-0.504 1.63,-1.248 l 14.889,-52.927 h 0.252 l 14.759,52.927 c 0.251,0.744 0.754,1.248 1.63,1.248 h 12.515 c 0.875,0 1.499,-0.504 1.629,-1.248 l 21.891,-82.583 c 0.13,-0.754 -0.121,-1.248 -0.996,-1.248 z"
             class="st0" />
          <path
             id="path5166"
             style="fill:#808080"
             d="m 416.492,209.498 c -9.005,0 -16.64,-4.256 -22.274,-8.762 l -1.872,0.13 -9.506,10.885 0.121,2.122 c 6.63,6.379 19.516,11.639 32.785,11.639 22.022,0 33.401,-11.387 33.401,-26.78 0,-15.391 -9.256,-23.4 -26.771,-25.774 l -4.506,-0.624 c -9.759,-1.379 -13.26,-4.507 -13.26,-9.386 0,-5.382 3.873,-9.256 11.388,-9.256 7.002,0 13.259,2.253 19.768,6.499 l 1.75,-0.372 7.626,-11.388 c 0.633,-0.876 0.504,-1.368 -0.242,-1.872 -7.132,-5.512 -17.644,-8.883 -28.902,-8.883 -18.4,0 -30.16,10.383 -30.16,26.026 0,15.01 9.638,23.148 26.901,25.522 l 4.507,0.624 c 10.131,1.378 13.138,4.506 13.138,9.506 10e-4,6.01 -5.009,10.144 -13.892,10.144 z"
             class="st0" />
        </g>
      </g>
    </g>
    <g
       id="text5981"
       style="font-style:normal;font-variant:normal;font-weight:bold;font-stretch:normal;font-size:7.76111126px;line-height:1.25;font-family:'Noto Sans CJK JP';-inkscape-font-specification:'Noto Sans CJK JP, Bold';font-variant-ligatures:normal;font-variant-caps:normal;font-variant-numeric:normal;font-feature-settings:normal;text-align:start;letter-spacing:0px;word-spacing:0px;writing-mode:lr-tb;text-anchor:start;fill:#ffffff;fill-opacity:1;stroke:none;stroke-width:0.26458332"
       aria-label="古紙類・古布類">
      <path
         id="path5983"
         style="fill:#ffffff;stroke-width:0.26458332"
         d="m 91.510638,167.88986 h -3.508022 v -1.52118 h 3.508022 z m 1.792817,-3.78742 v -0.90029 h -3.026833 v -1.31939 h -1.008945 v 1.31939 h -3.019072 v 0.90029 h 3.019072 v 1.38924 h -2.2352 v 3.63996 h 0.970139 v -0.36477 h 3.508022 v 0.33372 h 1.008945 v -3.60891 h -2.242961 v -1.38924 z" />
      <path
         id="path5985"
         style="fill:#ffffff;stroke-width:0.26458332"
         d="m 94.203744,166.40749 c -0.06209,0.65193 -0.178505,1.35043 -0.395817,1.80058 0.194028,0.0699 0.543278,0.23283 0.6985,0.34148 0.225073,-0.49671 0.388056,-1.27282 0.465667,-2.01012 z M 96.4079,165.8254 c 0.06209,0.17851 0.108655,0.34149 0.1397,0.48119 l 0.6985,-0.32596 c -0.100895,-0.44239 -0.426861,-1.10984 -0.752828,-1.62208 l -0.651933,0.28717 c 0.08537,0.14746 0.178505,0.31044 0.256116,0.48118 l -0.752828,0.0543 c 0.481189,-0.61313 1.001184,-1.36595 1.420284,-2.01013 l -0.752828,-0.36477 c -0.186267,0.38806 -0.442383,0.8382 -0.721783,1.28059 -0.08537,-0.1009 -0.178506,-0.21732 -0.287161,-0.33373 0.2794,-0.43462 0.605366,-1.03999 0.884766,-1.57551 l -0.814916,-0.29492 c -0.131939,0.40358 -0.357012,0.93133 -0.582084,1.35819 -0.06209,-0.0543 -0.116416,-0.10865 -0.178505,-0.15522 l -0.434623,0.62865 c 0.333728,0.31045 0.721784,0.73731 0.939095,1.0788 -0.108656,0.15522 -0.225072,0.31044 -0.333728,0.45014 -0.225072,0.0155 -0.442383,0.031 -0.62865,0.0388 l 0.131939,0.80715 c 0.333728,-0.031 0.714022,-0.0699 1.109839,-0.11641 v 3.15101 h 0.822678 v -3.24415 z m -0.442384,0.77612 c 0.178506,0.44238 0.364773,1.0167 0.426861,1.38923 l 0.729545,-0.26387 c -0.07761,-0.37254 -0.2794,-0.92358 -0.465667,-1.35044 z m 2.16535,-1.84715 v -1.4358 c 0.2794,-0.0466 0.574323,-0.1009 0.861484,-0.17075 0.0078,0.5588 0.02328,1.09432 0.04657,1.60655 z m 3.042354,0.86925 v -0.86925 h -1.280581 c -0.01552,-0.57432 -0.02328,-1.19521 -0.02328,-1.8161 0.395815,-0.10865 0.768355,-0.22507 1.102075,-0.35701 l -0.72178,-0.6985 c -0.613128,0.2794 -1.598789,0.54328 -2.530123,0.72178 l -0.457905,-0.1397 v 5.61905 c -0.201789,0.0466 -0.388056,0.0854 -0.5588,0.11641 l 0.325967,0.87701 c 0.682977,-0.17851 1.544461,-0.40358 2.343855,-0.63641 l -0.116416,-0.80716 c -0.380295,0.0854 -0.760589,0.17851 -1.125362,0.25612 v -2.26624 h 0.946856 c 0.116417,1.74625 0.34925,3.05011 0.954618,3.3528 0.5588,0.37253 1.12536,0.0621 1.26506,-1.28059 -0.18627,-0.12418 -0.50447,-0.38029 -0.66746,-0.55104 -0.0233,0.63641 -0.0854,1.04775 -0.1785,1.00895 -0.28716,-0.10866 -0.44238,-1.13312 -0.519996,-2.53012 z" />
      <path
         id="path5987"
         style="fill:#ffffff;stroke-width:0.26458332"
         d="m 107.76241,164.63019 h -1.55223 v -0.47342 h 1.55223 z m 0,1.10984 h -1.55223 v -0.47343 h 1.55223 z m 0,1.13312 h -1.55223 v -0.48895 h 1.55223 z m -2.38267,-3.40712 v 4.0901 h 3.25967 v -4.0901 h -1.397 c 0.0621,-0.15523 0.13194,-0.32597 0.20179,-0.49671 h 1.38924 v -0.78388 h -3.67877 v 0.78388 h 1.29611 c -0.031,0.16298 -0.0621,0.33372 -0.10866,0.49671 z m -1.03998,-1.45133 c -0.0699,0.2794 -0.21732,0.68298 -0.34925,0.94685 l 0.58984,0.19403 c 0.15522,-0.24059 0.33373,-0.58208 0.51999,-0.93909 z m -1.47462,0.91581 c -0.0543,-0.24836 -0.22507,-0.60537 -0.39581,-0.88477 l -0.62089,0.23284 c 0.17074,0.28716 0.32597,0.65969 0.36477,0.90805 z m 0.15523,2.49908 h 0.79939 v -0.79164 c 0.31821,0.24836 0.67522,0.52776 0.86925,0.71403 l 0.48118,-0.64418 c -0.20955,-0.1397 -1.0167,-0.62088 -1.33491,-0.78387 h 1.23402 v -0.72178 h -1.24954 v -1.22626 h -0.79939 v 1.22626 h -1.23402 v 0.72178 h 0.9779 c -0.30268,0.41134 -0.72954,0.80716 -1.14088,1.03223 0.16298,0.1397 0.40357,0.41134 0.52775,0.59761 0.30269,-0.20955 0.60537,-0.51224 0.86925,-0.85373 z m 2.07997,2.59221 c -0.29492,-0.27164 -0.86924,-0.67522 -1.31938,-0.96238 0.008,-0.0466 0.0155,-0.10089 0.0233,-0.14746 h 1.31939 v -0.79163 h -1.29611 v -0.52776 h -0.83044 v 0.52776 h -1.21073 v 0.79163 h 1.16417 c -0.1009,0.51223 -0.42686,1.04775 -1.36596,1.42804 0.16298,0.16299 0.40358,0.48119 0.48895,0.68298 0.76059,-0.32596 1.19521,-0.74506 1.44357,-1.20297 0.38805,0.28716 0.79163,0.60537 1.00894,0.82268 l 0.0854,-0.0931 c 0.19403,0.16299 0.44239,0.41134 0.58209,0.58209 0.55104,-0.2406 1.21073,-0.68298 1.59879,-1.08656 l -0.75283,-0.48119 c -0.29492,0.33373 -0.87701,0.72955 -1.40476,0.96238 z m 1.98685,0.0466 c 0.42686,0.31044 0.98566,0.76058 1.24178,1.05551 l 0.6985,-0.49671 c -0.28716,-0.29493 -0.86925,-0.72179 -1.28835,-1.00895 z" />
      <path
         id="path5989"
         style="fill:#ffffff;stroke-width:0.26458332"
         d="m 112.06206,165.5072 c 0,0.54328 0.45014,0.99342 0.99342,0.99342 0.54328,0 0.99342,-0.45014 0.99342,-0.99342 0,-0.54328 -0.45014,-0.99342 -0.99342,-0.99342 -0.54328,0 -0.99342,0.45014 -0.99342,0.99342 z" />
      <path
         id="path5991"
         style="fill:#ffffff;stroke-width:0.26458332"
         d="m 122.55508,167.88986 h -3.50802 v -1.52118 h 3.50802 z m 1.79282,-3.78742 v -0.90029 h -3.02683 v -1.31939 h -1.00895 v 1.31939 h -3.01907 v 0.90029 h 3.01907 v 1.38924 h -2.2352 v 3.63996 h 0.97014 v -0.36477 h 3.50802 v 0.33372 h 1.00895 v -3.60891 h -2.24296 v -1.38924 z" />
      <path
         id="path5993"
         style="fill:#ffffff;stroke-width:0.26458332"
         d="m 132.04692,163.8696 v -0.88476 h -3.78742 c 0.10866,-0.30269 0.20955,-0.60537 0.30268,-0.90805 l -0.95461,-0.21731 c -0.0854,0.37253 -0.20179,0.74506 -0.34925,1.12536 h -2.12655 v 0.88476 h 1.73073 c -0.48119,0.94686 -1.14088,1.80834 -2.00237,2.36714 0.16299,0.20955 0.40358,0.58209 0.52,0.81492 0.36477,-0.25612 0.68298,-0.53552 0.98566,-0.85372 v 2.24296 h 0.92357 v -2.52236 h 1.22626 v 3.20534 h 0.93133 v -3.20534 h 1.28835 v 1.51341 c 0,0.1009 -0.0388,0.13194 -0.16299,0.13194 -0.10865,0 -0.51999,0 -0.877,-0.0155 0.11641,0.23283 0.24835,0.58208 0.28716,0.8382 0.58208,0 1.00118,-0.008 1.2961,-0.1397 0.31045,-0.1397 0.39582,-0.37253 0.39582,-0.79939 v -2.40595 h -2.22744 V 164.149 h -0.93133 v 0.89253 h -1.24954 c 0.24059,-0.37253 0.44238,-0.76835 0.62865,-1.17193 z" />
      <path
         id="path5995"
         style="fill:#ffffff;stroke-width:0.26458332"
         d="m 138.80685,164.63019 h -1.55222 v -0.47342 h 1.55222 z m 0,1.10984 h -1.55222 v -0.47343 h 1.55222 z m 0,1.13312 h -1.55222 v -0.48895 h 1.55222 z m -2.38266,-3.40712 v 4.0901 h 3.25966 v -4.0901 h -1.397 c 0.0621,-0.15523 0.13194,-0.32597 0.20179,-0.49671 h 1.38924 v -0.78388 h -3.67876 v 0.78388 h 1.2961 c -0.031,0.16298 -0.0621,0.33372 -0.10865,0.49671 z m -1.03999,-1.45133 c -0.0699,0.2794 -0.21731,0.68298 -0.34925,0.94685 l 0.58984,0.19403 c 0.15523,-0.24059 0.33373,-0.58208 0.52,-0.93909 z m -1.47461,0.91581 c -0.0543,-0.24836 -0.22507,-0.60537 -0.39582,-0.88477 l -0.62089,0.23284 c 0.17075,0.28716 0.32597,0.65969 0.36477,0.90805 z m 0.15522,2.49908 h 0.79939 v -0.79164 c 0.31821,0.24836 0.67522,0.52776 0.86925,0.71403 l 0.48119,-0.64418 c -0.20955,-0.1397 -1.01671,-0.62088 -1.33491,-0.78387 h 1.23401 v -0.72178 h -1.24954 v -1.22626 h -0.79939 v 1.22626 h -1.23402 v 0.72178 h 0.9779 c -0.30268,0.41134 -0.72954,0.80716 -1.14088,1.03223 0.16298,0.1397 0.40358,0.41134 0.52776,0.59761 0.30268,-0.20955 0.60536,-0.51224 0.86924,-0.85373 z m 2.07998,2.59221 c -0.29492,-0.27164 -0.86925,-0.67522 -1.31939,-0.96238 0.008,-0.0466 0.0155,-0.10089 0.0233,-0.14746 h 1.31939 v -0.79163 h -1.2961 v -0.52776 h -0.83044 v 0.52776 h -1.21074 v 0.79163 h 1.16417 c -0.10089,0.51223 -0.42686,1.04775 -1.36596,1.42804 0.16299,0.16299 0.40358,0.48119 0.48895,0.68298 0.76059,-0.32596 1.19522,-0.74506 1.44357,-1.20297 0.38806,0.28716 0.79163,0.60537 1.00895,0.82268 l 0.0854,-0.0931 c 0.19403,0.16299 0.44238,0.41134 0.58208,0.58209 0.55104,-0.2406 1.21073,-0.68298 1.59879,-1.08656 l -0.75283,-0.48119 c -0.29492,0.33373 -0.877,0.72955 -1.40476,0.96238 z m 1.98684,0.0466 c 0.42686,0.31044 0.98566,0.76058 1.24178,1.05551 l 0.6985,-0.49671 c -0.28716,-0.29493 -0.86924,-0.72179 -1.28834,-1.00895 z" />
    </g>
  </g>
</svg>
