<?xml version="1.0" encoding="UTF-8" standalone="no"?>
<svg
   xmlns:dc="http://purl.org/dc/elements/1.1/"
   xmlns:cc="http://creativecommons.org/ns#"
   xmlns:rdf="http://www.w3.org/1999/02/22-rdf-syntax-ns#"
   xmlns:svg="http://www.w3.org/2000/svg"
   xmlns="http://www.w3.org/2000/svg"
   width="73.008461mm"
   height="9.7565098mm"
   viewBox="0 0 73.008461 9.7565098"
   version="1.1"
   id="svg887">
  <defs
     id="defs881" />
  <metadata
     id="metadata884">
    <rdf:RDF>
      <cc:Work
         rdf:about="">
        <dc:format>image/svg+xml</dc:format>
        <dc:type
           rdf:resource="http://purl.org/dc/dcmitype/StillImage" />
        <dc:title></dc:title>
      </cc:Work>
    </rdf:RDF>
  </metadata>
  <g
     id="layer1"
     transform="translate(-61.096306,-101.59811)">
    <g
       id="text891"
       style="font-style:normal;font-weight:normal;font-size:10.58333302px;line-height:1.25;font-family:sans-serif;letter-spacing:0px;word-spacing:0px;fill:#000000;fill-opacity:1;stroke:none;stroke-width:0.26458332"
       aria-label="古紙類・古布類">
      <path
         id="path1427"
         style="fill:#f7f9f9;fill-opacity:1;stroke-width:0.26458332"
         d="m 66.057243,106.18697 h 2.852539 v 4.75424 h -0.950846 v -0.62012 h -4.588867 v 0.7028 h -0.950847 v -4.83692 h 2.811198 v -1.94303 h -4.134114 v -0.90951 h 4.134114 v -1.52962 h 0.785482 q 0.330729,0.0413 0.04134,0.24805 v 1.28157 h 4.299479 v 0.90951 h -4.299479 z m 1.901693,0.78549 h -4.588867 v 2.56315 h 4.588867 z" />
      <path
         id="path1429"
         style="fill:#f7f9f9;fill-opacity:1;stroke-width:0.26458332"
         d="m 81.312126,109.24622 q -0.289388,2.48047 -1.405599,1.44694 -1.033529,-0.95085 -1.322917,-4.38216 h -1.198893 v 3.38997 l 1.281575,-0.37207 0.206706,0.7028 -2.728516,0.82682 q -0.165364,0.41341 -0.289388,0.0413 l -0.289388,-0.86816 0.992188,-0.16536 v -7.27605 l 0.744141,0.20671 q 1.364257,-0.37207 2.604492,-0.82682 l 0.578776,0.82682 q -0.620118,0.16536 -1.116211,0.28939 v 2.43913 h 1.653646 v 0.78548 h -1.612305 q 0.124023,2.06705 0.785482,3.30729 0.289388,0.53743 0.37207,-0.78548 z m -6.903972,-6.98666 q -0.578776,0.95085 -1.240234,1.86036 0.289388,0.24804 0.620117,0.53743 l 1.281576,-1.73633 0.620117,0.41341 q 0.37207,0.20671 -0.08268,0.24805 l -2.067058,2.52181 1.612305,-0.0827 q -0.248047,-0.45475 -0.496094,-0.82682 l 0.661459,-0.33073 q 0.661458,0.9095 0.992187,1.86035 l -0.744141,0.28939 -0.124023,-0.37207 -1.07487,0.0827 v 4.46484 H 73.53999 v -4.38216 l -1.529622,0.12402 q -0.08268,0.45476 -0.289388,0 l -0.165365,-0.78548 1.07487,-0.0413 0.661458,-0.78548 q -0.620117,-0.57878 -1.44694,-1.19889 l 0.454753,-0.66146 0.37207,0.24805 q 0.661459,-0.99219 1.157552,-2.06706 l 0.661459,0.37207 q 0.37207,0.2067 -0.08268,0.24804 z m 0.950847,5.20899 q 0.413411,0.78548 0.537435,1.81901 l -0.785482,0.20671 q -0.124024,-1.03353 -0.454753,-1.81902 z m 3.183268,-1.94303 v -2.27377 q -0.620117,0.16537 -1.157552,0.24805 v 2.02572 z m -5.498372,2.48046 q -0.08268,1.15756 -0.578776,2.52181 l -0.785482,-0.33073 q 0.496094,-1.32291 0.661458,-2.64583 l 0.744141,0.20671 q 0.330729,0.0827 -0.04134,0.24804 z" />
      <path
         id="path1431"
         style="fill:#f7f9f9;fill-opacity:1;stroke-width:0.26458332"
         d="m 86.066357,110.44511 q -0.620117,-0.66146 -1.322916,-1.11621 -0.372071,1.19889 -1.860352,1.94303 l -0.496094,-0.74414 q 1.612305,-0.62011 1.77767,-2.27376 h -1.736329 v -0.66146 h 1.77767 v -0.95084 h 0.661458 q 0.330729,0.0413 0.04134,0.24804 v 0.7028 h 1.901693 v 0.66146 h -1.901693 l -0.04134,0.37207 q 0.909505,0.28939 1.736328,1.11621 z m 0.289388,-3.92741 q -0.620117,-0.78548 -1.322916,-1.19889 v 0.95085 h -0.7028 v -0.82683 q -0.620117,0.90951 -1.694987,1.48828 l -0.413411,-0.7028 q 1.074869,-0.53743 1.81901,-1.48828 h -1.570963 v -0.66145 h 1.860351 v -2.31511 h 0.661458 q 0.33073,0.0413 0.04134,0.24805 v 2.06706 h 1.81901 v 0.66145 h -1.570964 q 0.909506,0.33073 1.612305,1.11621 z m 5.04362,4.75423 q -1.07487,-0.33072 -1.943034,-1.07487 l 0.537435,-0.57877 q 0.826823,0.53743 1.777669,0.86816 z m -2.439128,-1.07487 q 0.08268,0.16537 -0.206705,0.16537 -1.033529,0.7028 -2.067058,0.99219 l -0.413411,-0.82683 q 1.198893,-0.33073 2.108398,-0.95084 z m -0.413411,-6.20117 0.248047,-1.07487 h -1.819011 v -0.78548 h 4.630209 v 0.78548 h -1.901693 l -0.413412,1.07487 h 1.901693 v 5.49838 h -3.803385 v -5.49838 z m 1.943034,1.57097 v -0.90951 h -2.397787 v 0.90951 z m -2.397787,1.6123 h 2.397787 v -0.95085 h -2.397787 z m 0,1.65365 h 2.397787 v -0.99219 h -2.397787 z m -4.919596,-6.61459 q 0.496094,0.41342 0.744141,1.07487 l -0.744141,0.45476 q -0.289388,-0.53744 -0.702799,-1.07487 z m 2.108398,1.15756 q 0.413412,-0.53744 0.744141,-1.1989 l 0.702799,0.33073 q 0.289388,0.16537 -0.08268,0.20671 -0.289388,0.57877 -0.661458,1.11621 z" />
      <path
         id="path1433"
         style="fill:#f7f9f9;fill-opacity:1;stroke-width:0.26458332"
         d="m 98.386019,105.56686 v 1.77767 H 96.60835 v -1.77767 z" />
      <path
         id="path1435"
         style="fill:#f7f9f9;fill-opacity:1;stroke-width:0.26458332"
         d="m 108.39058,106.18697 h 2.85253 v 4.75424 h -0.95084 v -0.62012 h -4.58887 v 0.7028 h -0.95085 v -4.83692 h 2.8112 v -1.94303 h -4.13411 v -0.90951 h 4.13411 v -1.52962 h 0.78548 q 0.33073,0.0413 0.0413,0.24805 v 1.28157 h 4.29947 v 0.90951 h -4.29947 z m 1.90169,0.78549 h -4.58887 v 2.56315 h 4.58887 z" />
      <path
         id="path1437"
         style="fill:#f7f9f9;fill-opacity:1;stroke-width:0.26458332"
         d="m 117.40294,103.21041 q 0.28939,-0.74414 0.53744,-1.6123 l 0.9095,0.24804 q 0.16537,0.16537 -0.12402,0.20671 -0.24805,0.62012 -0.45475,1.15755 h 5.16764 v 0.78548 h -5.49837 q -0.66146,1.28158 -1.03353,1.69499 h 1.86035 v -1.32292 h 0.78548 q 0.33073,0.0413 0.0413,0.24805 v 1.07487 h 2.76986 v 4.01009 q 0,0.66146 -0.66146,0.66146 h -0.78548 l -0.12402,-0.78548 h 0.57877 q 0.16537,0 0.16537,-0.16537 v -2.93522 h -1.94304 v 4.71289 h -0.82682 v -4.71289 h -1.86035 v 3.84473 h -0.82682 v -3.55534 q -0.74414,0.78548 -1.57097,1.32292 l -0.57877,-0.78549 q 1.94303,-1.19889 3.10058,-3.30729 h -2.72851 v -0.78548 z" />
      <path
         id="path1439"
         style="fill:#f7f9f9;fill-opacity:1;stroke-width:0.26458332"
         d="m 128.39969,110.44511 q -0.62012,-0.66146 -1.32292,-1.11621 -0.37207,1.19889 -1.86035,1.94303 l -0.49609,-0.74414 q 1.6123,-0.62011 1.77767,-2.27376 h -1.73633 v -0.66146 h 1.77767 v -0.95084 h 0.66146 q 0.33073,0.0413 0.0413,0.24804 v 0.7028 h 1.90169 v 0.66146 h -1.90169 l -0.0413,0.37207 q 0.9095,0.28939 1.73633,1.11621 z m 0.28939,-3.92741 q -0.62012,-0.78548 -1.32292,-1.19889 v 0.95085 h -0.7028 v -0.82683 q -0.62011,0.90951 -1.69498,1.48828 l -0.41342,-0.7028 q 1.07487,-0.53743 1.81902,-1.48828 h -1.57097 v -0.66145 h 1.86035 v -2.31511 h 0.66146 q 0.33073,0.0413 0.0413,0.24805 v 2.06706 h 1.81901 v 0.66145 h -1.57096 q 0.9095,0.33073 1.6123,1.11621 z m 5.04362,4.75423 q -1.07487,-0.33072 -1.94304,-1.07487 l 0.53744,-0.57877 q 0.82682,0.53743 1.77767,0.86816 z m -2.43913,-1.07487 q 0.0827,0.16537 -0.2067,0.16537 -1.03353,0.7028 -2.06706,0.99219 l -0.41341,-0.82683 q 1.19889,-0.33073 2.1084,-0.95084 z m -0.41341,-6.20117 0.24805,-1.07487 h -1.81901 v -0.78548 h 4.6302 v 0.78548 h -1.90169 l -0.41341,1.07487 h 1.90169 v 5.49838 h -3.80338 v -5.49838 z m 1.94303,1.57097 v -0.90951 h -2.39778 v 0.90951 z m -2.39778,1.6123 h 2.39778 v -0.95085 h -2.39778 z m 0,1.65365 h 2.39778 v -0.99219 h -2.39778 z m -4.9196,-6.61459 q 0.49609,0.41342 0.74414,1.07487 l -0.74414,0.45476 q -0.28939,-0.53744 -0.7028,-1.07487 z m 2.1084,1.15756 q 0.41341,-0.53744 0.74414,-1.1989 l 0.7028,0.33073 q 0.28939,0.16537 -0.0827,0.20671 -0.28939,0.57877 -0.66146,1.11621 z" />
    </g>
  </g>
</svg>
