<?xml version="1.0" encoding="UTF-8" standalone="no"?>
<svg
   xmlns:dc="http://purl.org/dc/elements/1.1/"
   xmlns:cc="http://creativecommons.org/ns#"
   xmlns:rdf="http://www.w3.org/1999/02/22-rdf-syntax-ns#"
   xmlns:svg="http://www.w3.org/2000/svg"
   xmlns="http://www.w3.org/2000/svg"
   id="svg4959"
   version="1.1"
   viewBox="0 0 53.823303 7.2721615"
   height="7.2721615mm"
   width="53.823303mm">
  <defs
     id="defs4953" />
  <metadata
     id="metadata4956">
    <rdf:RDF>
      <cc:Work
         rdf:about="">
        <dc:format>image/svg+xml</dc:format>
        <dc:type
           rdf:resource="http://purl.org/dc/dcmitype/StillImage" />
        <dc:title></dc:title>
      </cc:Work>
    </rdf:RDF>
  </metadata>
  <g
     transform="translate(-57.809388,-108.21852)"
     id="layer1">
    <g
       id="text4963"
       style="font-style:normal;font-variant:normal;font-weight:bold;font-stretch:normal;font-size:7.76111126px;line-height:1.25;font-family:'Noto Sans CJK JP';-inkscape-font-specification:'Noto Sans CJK JP, Bold';font-variant-ligatures:normal;font-variant-caps:normal;font-variant-numeric:normal;font-feature-settings:normal;text-align:start;letter-spacing:0px;word-spacing:0px;writing-mode:lr-tb;text-anchor:start;fill:#000000;fill-opacity:1;stroke:none;stroke-width:0.26458332"
       aria-label="古紙類・古布類">
      <path
         id="path4965"
         style="fill:#ffffff;stroke-width:0.26458332"
         d="M 63.071422,114.2489 H 59.5634 v -1.52118 h 3.508022 z m 1.792817,-3.78742 v -0.90029 h -3.026834 v -1.31939 h -1.008944 v 1.31939 h -3.019073 v 0.90029 h 3.019073 v 1.38924 h -2.2352 v 3.63996 H 59.5634 v -0.36478 h 3.508022 v 0.33373 h 1.008944 v -3.60891 h -2.242961 v -1.38924 z" />
      <path
         id="path4967"
         style="fill:#ffffff;stroke-width:0.26458332"
         d="m 65.764527,112.76653 c -0.06209,0.65193 -0.178505,1.35043 -0.395816,1.80057 0.194028,0.0699 0.543278,0.23284 0.6985,0.34149 0.225072,-0.49671 0.388055,-1.27282 0.465666,-2.01012 z m 2.204156,-0.58209 c 0.06209,0.17851 0.108656,0.34149 0.1397,0.48119 l 0.6985,-0.32596 c -0.100894,-0.44239 -0.426861,-1.10984 -0.752828,-1.62208 l -0.651933,0.28716 c 0.08537,0.14747 0.178506,0.31045 0.256117,0.48119 l -0.752828,0.0543 c 0.481189,-0.61313 1.001183,-1.36595 1.420283,-2.01013 l -0.752828,-0.36477 c -0.186266,0.38806 -0.442383,0.8382 -0.721783,1.28058 -0.08537,-0.10089 -0.178506,-0.21731 -0.287161,-0.33372 0.2794,-0.43463 0.605367,-1.03999 0.884767,-1.57551 l -0.814917,-0.29492 c -0.131939,0.40358 -0.357011,0.93133 -0.582083,1.35819 -0.06209,-0.0543 -0.116417,-0.10865 -0.178506,-0.15522 l -0.434622,0.62865 c 0.333728,0.31045 0.721783,0.73731 0.939094,1.0788 -0.108655,0.15522 -0.225072,0.31044 -0.333728,0.45014 -0.225072,0.0155 -0.442383,0.031 -0.62865,0.0388 l 0.131939,0.80715 c 0.333728,-0.031 0.714023,-0.0699 1.109839,-0.11642 v 3.15102 h 0.822678 v -3.24415 z m -0.442383,0.77611 c 0.178505,0.44239 0.364772,1.01671 0.426861,1.38924 l 0.729544,-0.26387 c -0.07761,-0.37254 -0.2794,-0.92358 -0.465666,-1.35044 z m 2.16535,-1.84714 v -1.43581 c 0.2794,-0.0466 0.574322,-0.10089 0.861483,-0.17074 0.0078,0.5588 0.02328,1.09432 0.04657,1.60655 z m 3.042355,0.86924 v -0.86924 h -1.280583 c -0.01552,-0.57432 -0.02328,-1.19521 -0.02328,-1.8161 0.395816,-0.10866 0.76835,-0.22507 1.102077,-0.35701 l -0.721783,-0.6985 c -0.613128,0.2794 -1.598789,0.54328 -2.530122,0.72178 l -0.457906,-0.1397 v 5.61905 c -0.201789,0.0466 -0.388055,0.0854 -0.5588,0.11641 l 0.325967,0.87701 c 0.682978,-0.17851 1.544461,-0.40358 2.343856,-0.63641 l -0.116417,-0.80716 c -0.380295,0.0854 -0.760589,0.17851 -1.125361,0.25612 v -2.26625 h 0.946855 c 0.116417,1.74625 0.34925,3.05012 0.954617,3.3528 0.5588,0.37254 1.125361,0.0621 1.265061,-1.28058 -0.186267,-0.12418 -0.504472,-0.38029 -0.667455,-0.55104 -0.02328,0.63641 -0.08537,1.04775 -0.178506,1.00895 -0.287161,-0.10866 -0.442383,-1.13313 -0.519994,-2.53013 z" />
      <path
         id="path4969"
         style="fill:#ffffff;stroke-width:0.26458332"
         d="m 79.323189,110.98923 h -1.552222 v -0.47343 h 1.552222 z m 0,1.10984 h -1.552222 v -0.47343 h 1.552222 z m 0,1.13312 h -1.552222 v -0.48895 h 1.552222 z m -2.382661,-3.40712 v 4.0901 h 3.259666 v -4.0901 h -1.397 c 0.06209,-0.15523 0.131939,-0.32597 0.201789,-0.49672 h 1.389239 v -0.78387 h -3.678767 v 0.78387 h 1.296106 c -0.03104,0.16299 -0.06209,0.33373 -0.108656,0.49672 z m -1.039989,-1.45133 c -0.06985,0.2794 -0.217311,0.68298 -0.34925,0.94685 l 0.589844,0.19403 c 0.155222,-0.24059 0.333728,-0.58208 0.519995,-0.93909 z m -1.474611,0.91581 c -0.05433,-0.24836 -0.225073,-0.60537 -0.395817,-0.88477 l -0.620889,0.23284 c 0.170745,0.28716 0.325967,0.65969 0.364772,0.90805 z m 0.155222,2.49908 h 0.799394 v -0.79164 c 0.318206,0.24836 0.675217,0.52776 0.869245,0.71403 l 0.481189,-0.64418 c -0.20955,-0.1397 -1.016706,-0.62089 -1.334911,-0.78387 h 1.234016 v -0.72178 h -1.249539 v -1.22626 H 74.58115 v 1.22626 h -1.234017 v 0.72178 h 0.9779 c -0.302683,0.41134 -0.729544,0.80716 -1.140883,1.03223 0.162983,0.1397 0.403578,0.41134 0.527755,0.5976 0.302684,-0.20955 0.605367,-0.51223 0.869245,-0.85372 z m 2.079978,2.59221 c -0.294923,-0.27164 -0.869245,-0.67522 -1.319389,-0.96238 0.0078,-0.0466 0.01552,-0.10089 0.02328,-0.14746 h 1.319389 v -0.79163 h -1.296106 v -0.52776 h -0.830438 v 0.52776 H 73.347133 V 113.271 H 74.5113 c -0.100895,0.51223 -0.426861,1.04775 -1.365956,1.42804 0.162984,0.16299 0.403578,0.48119 0.48895,0.68298 0.760589,-0.32597 1.195211,-0.74507 1.443567,-1.20297 0.388056,0.28716 0.791633,0.60537 1.008944,0.82268 l 0.08537,-0.0931 c 0.194027,0.16299 0.442383,0.41134 0.582083,0.58209 0.551039,-0.2406 1.210733,-0.68298 1.598789,-1.08656 l -0.752828,-0.48119 c -0.294922,0.33373 -0.877005,0.72955 -1.404761,0.96238 z m 1.986844,0.0466 c 0.426861,0.31045 0.985661,0.76059 1.241778,1.05552 l 0.6985,-0.49672 c -0.287161,-0.29492 -0.869244,-0.72178 -1.288344,-1.00894 z" />
      <path
         id="path4971"
         style="fill:#ffffff;stroke-width:0.26458332"
         d="m 83.622844,111.86624 c 0,0.54328 0.450144,0.99342 0.993422,0.99342 0.543278,0 0.993422,-0.45014 0.993422,-0.99342 0,-0.54328 -0.450144,-0.99342 -0.993422,-0.99342 -0.543278,0 -0.993422,0.45014 -0.993422,0.99342 z" />
      <path
         id="path4973"
         style="fill:#ffffff;stroke-width:0.26458332"
         d="m 94.115867,114.2489 h -3.508022 v -1.52118 h 3.508022 z m 1.792817,-3.78742 v -0.90029 H 92.88185 v -1.31939 h -1.008944 v 1.31939 h -3.019073 v 0.90029 h 3.019073 v 1.38924 h -2.2352 v 3.63996 h 0.970139 v -0.36478 h 3.508022 v 0.33373 h 1.008944 v -3.60891 H 92.88185 v -1.38924 z" />
      <path
         id="path4975"
         style="fill:#ffffff;stroke-width:0.26458332"
         d="m 103.60771,110.22864 v -0.88476 h -3.787425 c 0.108655,-0.30269 0.209545,-0.60537 0.302685,-0.90805 l -0.954619,-0.21731 c -0.08537,0.37253 -0.201789,0.74506 -0.34925,1.12536 h -2.126544 v 0.88476 h 1.730728 c -0.481189,0.94686 -1.140884,1.80834 -2.002367,2.36714 0.162983,0.20955 0.403578,0.58209 0.519994,0.81492 0.364773,-0.25612 0.682978,-0.53552 0.985661,-0.85372 v 2.24296 h 0.923573 v -2.52236 h 1.226254 v 3.20534 h 0.93133 v -3.20534 h 1.28835 v 1.51341 c 0,0.1009 -0.0388,0.13194 -0.16298,0.13194 -0.10866,0 -0.52,0 -0.87701,-0.0155 0.11642,0.23283 0.24836,0.58208 0.28716,0.8382 0.58208,0 1.00118,-0.008 1.29611,-0.1397 0.31044,-0.1397 0.39581,-0.37253 0.39581,-0.79939 v -2.40595 h -2.22744 v -0.89253 h -0.93133 v 0.89253 h -1.249538 c 0.240595,-0.37253 0.442384,-0.76835 0.62865,-1.17193 z" />
      <path
         id="path4977"
         style="fill:#ffffff;stroke-width:0.26458332"
         d="m 110.36763,110.98923 h -1.55222 v -0.47343 h 1.55222 z m 0,1.10984 h -1.55222 v -0.47343 h 1.55222 z m 0,1.13312 h -1.55222 v -0.48895 h 1.55222 z m -2.38266,-3.40712 v 4.0901 h 3.25967 v -4.0901 h -1.397 c 0.0621,-0.15523 0.13194,-0.32597 0.20179,-0.49672 h 1.38924 v -0.78387 h -3.67877 v 0.78387 h 1.2961 c -0.031,0.16299 -0.0621,0.33373 -0.10865,0.49672 z m -1.03999,-1.45133 c -0.0699,0.2794 -0.21731,0.68298 -0.34925,0.94685 l 0.58985,0.19403 c 0.15522,-0.24059 0.33372,-0.58208 0.51999,-0.93909 z m -1.47461,0.91581 c -0.0543,-0.24836 -0.22507,-0.60537 -0.39582,-0.88477 l -0.62088,0.23284 c 0.17074,0.28716 0.32596,0.65969 0.36477,0.90805 z m 0.15522,2.49908 h 0.7994 v -0.79164 c 0.3182,0.24836 0.67521,0.52776 0.86924,0.71403 l 0.48119,-0.64418 c -0.20955,-0.1397 -1.0167,-0.62089 -1.33491,-0.78387 h 1.23402 v -0.72178 h -1.24954 v -1.22626 h -0.7994 v 1.22626 h -1.23401 v 0.72178 h 0.9779 c -0.30269,0.41134 -0.72955,0.80716 -1.14089,1.03223 0.16299,0.1397 0.40358,0.41134 0.52776,0.5976 0.30268,-0.20955 0.60537,-0.51223 0.86924,-0.85372 z m 2.07998,2.59221 c -0.29492,-0.27164 -0.86924,-0.67522 -1.31939,-0.96238 0.008,-0.0466 0.0155,-0.10089 0.0233,-0.14746 h 1.31938 v -0.79163 h -1.2961 v -0.52776 h -0.83044 v 0.52776 h -1.21073 v 0.79163 h 1.16416 c -0.10089,0.51223 -0.42686,1.04775 -1.36595,1.42804 0.16298,0.16299 0.40358,0.48119 0.48895,0.68298 0.76059,-0.32597 1.19521,-0.74507 1.44356,-1.20297 0.38806,0.28716 0.79164,0.60537 1.00895,0.82268 l 0.0854,-0.0931 c 0.19403,0.16299 0.44238,0.41134 0.58208,0.58209 0.55104,-0.2406 1.21074,-0.68298 1.59879,-1.08656 l -0.75282,-0.48119 c -0.29493,0.33373 -0.87701,0.72955 -1.40477,0.96238 z m 1.98685,0.0466 c 0.42686,0.31045 0.98566,0.76059 1.24177,1.05552 l 0.6985,-0.49672 c -0.28716,-0.29492 -0.86924,-0.72178 -1.28834,-1.00894 z" />
    </g>
  </g>
</svg>
