<?xml version="1.0" encoding="UTF-8" standalone="no"?>
<svg
   xmlns:dc="http://purl.org/dc/elements/1.1/"
   xmlns:cc="http://creativecommons.org/ns#"
   xmlns:rdf="http://www.w3.org/1999/02/22-rdf-syntax-ns#"
   xmlns:svg="http://www.w3.org/2000/svg"
   xmlns="http://www.w3.org/2000/svg"
   id="svg4938"
   version="1.1"
   viewBox="0 0 30.400272 7.4118614"
   height="7.4118614mm"
   width="30.400272mm">
  <defs
     id="defs4932" />
  <metadata
     id="metadata4935">
    <rdf:RDF>
      <cc:Work
         rdf:about="">
        <dc:format>image/svg+xml</dc:format>
        <dc:type
           rdf:resource="http://purl.org/dc/dcmitype/StillImage" />
        <dc:title></dc:title>
      </cc:Work>
    </rdf:RDF>
  </metadata>
  <g
     transform="translate(-59.259209,-91.471156)"
     id="layer1">
    <g
       id="text4942"
       style="font-style:normal;font-variant:normal;font-weight:bold;font-stretch:normal;font-size:7.76111126px;line-height:1.25;font-family:'Noto Sans CJK JP';-inkscape-font-specification:'Noto Sans CJK JP, Bold';font-variant-ligatures:normal;font-variant-caps:normal;font-variant-numeric:normal;font-feature-settings:normal;text-align:start;letter-spacing:0px;word-spacing:0px;writing-mode:lr-tb;text-anchor:start;fill:#000000;fill-opacity:1;stroke:none;stroke-width:0.26458332"
       aria-label="資源ごみ">
      <path
         id="path4944"
         style="fill:#ffffff;stroke-width:0.26458332"
         d="m 61.64187,92.286072 c -0.388055,-0.186266 -1.125361,-0.434622 -1.637594,-0.5588 l -0.403578,0.62865 c 0.535517,0.155223 1.265061,0.434623 1.622072,0.62865 z m -0.442383,4.377267 h 3.360561 v 0.341489 h -3.360561 z m 0,-0.853722 h 3.360561 v 0.333728 h -3.360561 z m 0,-0.853722 h 3.360561 v 0.333727 h -3.360561 z m 1.265061,-0.551039 c 0.706261,-0.201789 1.140883,-0.473428 1.412522,-0.8382 0.232834,0.333727 0.589845,0.620889 1.18745,0.8382 z m 3.034594,3.151011 v -3.019072 c 0.155223,0.0388 0.325967,0.06985 0.512234,0.100894 0.08537,-0.225072 0.287161,-0.582083 0.457905,-0.752828 -1.567744,-0.186266 -2.002366,-0.605366 -2.173111,-1.109839 h 0.861484 c -0.100895,0.162984 -0.20955,0.310445 -0.302684,0.426861 l 0.714022,0.225073 c 0.256117,-0.287161 0.535517,-0.752828 0.737306,-1.171928 l -0.613128,-0.155222 -0.1397,0.02328 h -2.289528 c 0.07761,-0.124178 0.1397,-0.248356 0.201789,-0.380294 l -0.814916,-0.131939 c -0.201789,0.450144 -0.582084,0.962377 -1.140884,1.350433 0.20955,0.08537 0.527756,0.271639 0.690739,0.434622 0.240595,-0.194028 0.442384,-0.403578 0.620889,-0.620889 h 0.5588 c -0.170744,0.551039 -0.582083,0.884767 -1.8161,1.086556 l -0.07761,-0.6985 c -0.822678,0.194028 -1.653117,0.388055 -2.227439,0.496711 l 0.341489,0.807156 c 0.582083,-0.162984 1.303867,-0.372534 1.971322,-0.566562 l -0.0078,-0.03104 c 0.124178,0.124178 0.271639,0.34925 0.364772,0.535517 h -1.622072 v 3.151011 h 1.140883 c -0.535516,0.263878 -1.381477,0.512233 -2.134305,0.651933 0.194028,0.162984 0.519994,0.496711 0.682978,0.675217 0.783872,-0.217311 1.777294,-0.597606 2.421466,-1.016706 L 61.71172,97.555867 h 2.266245 l -0.6985,0.403578 c 0.783872,0.294922 1.575505,0.659694 2.017889,0.915811 l 1.071033,-0.411339 C 65.840631,98.2078 64.948104,97.835267 64.15647,97.555867 Z" />
      <path
         id="path4946"
         style="fill:#ffffff;stroke-width:0.26458332"
         d="m 69.146865,92.418011 c -0.287161,-0.256116 -0.853722,-0.574322 -1.296106,-0.76835 l -0.519994,0.682978 c 0.450144,0.20955 1.001183,0.566561 1.265061,0.822678 z M 68.76657,94.466945 C 68.48717,94.210828 67.920609,93.915906 67.470465,93.7374 l -0.504472,0.675217 c 0.442383,0.20955 0.993422,0.535517 1.249538,0.791633 z m -0.620889,1.296105 c -0.325966,0.90805 -0.76835,1.893711 -1.086555,2.499078 l 0.845961,0.496711 c 0.341489,-0.76835 0.706261,-1.660878 0.993422,-2.491317 z m 2.452512,0.830439 c -0.170745,0.512233 -0.465667,1.063272 -0.822678,1.404761 0.201789,0.116417 0.543278,0.333728 0.714022,0.473428 0.357011,-0.411339 0.714022,-1.055511 0.923572,-1.684161 z m 0.682977,-1.397 h 1.792817 V 95.62335 H 71.28117 Z m 0,-1.04775 h 1.792817 V 94.5756 H 71.28117 Z m 2.646539,2.134306 v -2.794 h -1.404761 c 0.06209,-0.201789 0.124178,-0.4191 0.201789,-0.644173 H 74.14502 V 92.014433 H 69.302087 V 94.1565 c 0,1.2573 -0.07761,3.011311 -0.946856,4.214284 0.225073,0.100894 0.613128,0.341488 0.776112,0.48895 0.923572,-1.280584 1.063272,-3.337278 1.063272,-4.703234 v -1.311628 h 1.505655 c -0.02328,0.201789 -0.06209,0.434623 -0.09313,0.644173 h -1.140883 v 2.794 h 1.234016 v 1.6764 c 0,0.08537 -0.03104,0.108655 -0.124177,0.108655 -0.09313,0 -0.411339,0 -0.675217,-0.0078 0.09313,0.225072 0.194028,0.551039 0.232833,0.791633 0.481189,0.0078 0.8382,-0.0078 1.109839,-0.131938 0.271639,-0.124178 0.325967,-0.341489 0.325967,-0.737306 v -1.699683 z m -1.140883,0.535516 c 0.294922,0.48895 0.597606,1.140884 0.714022,1.559984 l 0.8382,-0.364773 c -0.131939,-0.4191 -0.457905,-1.04775 -0.760589,-1.513416 z" />
      <path
         id="path4948"
         style="fill:#ffffff;stroke-width:0.26458332"
         d="m 75.666198,95.801856 c -0.06209,0.294922 -0.147461,0.667455 -0.147461,1.109839 0,1.055511 0.877006,1.645355 2.638778,1.645355 1.078794,0 2.002367,-0.100894 2.669822,-0.256116 l -0.0078,-1.086556 c -0.682978,0.186267 -1.660878,0.302683 -2.700867,0.302683 -1.109839,0 -1.567744,-0.357011 -1.567744,-0.845961 0,-0.256116 0.05433,-0.496711 0.124178,-0.776111 z m 4.291895,-3.733095 c 0.108655,0.155222 0.225072,0.357011 0.333728,0.5588 -0.589845,0.05433 -1.435806,0.100895 -2.173112,0.100895 -0.807155,0 -1.521177,-0.03104 -2.087739,-0.09313 v 1.024467 c 0.620889,0.04657 1.288345,0.08537 2.095501,0.08537 0.729544,0 1.684161,-0.05433 2.219677,-0.09313 v -0.923572 c 0.07761,0.155222 0.155223,0.302683 0.217311,0.426861 l 0.62865,-0.271639 c -0.147461,-0.287161 -0.426861,-0.776111 -0.620888,-1.063272 z m 0.915811,-0.34925 c 0.217311,0.294922 0.465667,0.745067 0.62865,1.071034 l 0.613128,-0.263878 c -0.131939,-0.271639 -0.4191,-0.76835 -0.62865,-1.055511 z" />
      <path
         id="path4950"
         style="fill:#ffffff;stroke-width:0.26458332"
         d="m 84.27327,96.702145 c -0.1397,0.194027 -0.248356,0.263877 -0.403578,0.263877 -0.155222,0 -0.287161,-0.147461 -0.287161,-0.364772 0,-0.481189 0.465666,-1.001183 1.319389,-1.133122 -0.217311,0.473428 -0.434623,0.946856 -0.62865,1.234017 z m 5.386211,-0.613128 c -0.225072,-0.147461 -0.504472,-0.333728 -0.822678,-0.512233 0.07761,-0.434623 0.116417,-0.915812 0.147461,-1.428045 L 87.97532,94.032322 c 0.03104,0.248356 0.02328,0.543278 0.0078,0.8382 -0.0078,0.08537 -0.01552,0.170745 -0.02328,0.263878 -0.496712,-0.217311 -1.055512,-0.403578 -1.653117,-0.496711 0.271639,-0.651933 0.551039,-1.319389 0.752828,-1.645356 0.06209,-0.108655 0.147461,-0.20955 0.256116,-0.325966 l -0.613128,-0.481189 c -0.131938,0.05433 -0.333727,0.100894 -0.519994,0.116417 -0.357011,0.03104 -1.179689,0.06209 -1.614311,0.06209 -0.170745,0 -0.434622,-0.0078 -0.636411,-0.03104 l 0.0388,0.993422 c 0.194028,-0.03104 0.465667,-0.06209 0.62865,-0.06985 0.34925,-0.02328 1.008945,-0.04657 1.311628,-0.05433 -0.178505,0.364773 -0.395817,0.884767 -0.613128,1.381478 -1.544461,0.06985 -2.623255,0.985661 -2.623255,2.173111 0,0.776112 0.504472,1.241778 1.179689,1.241778 0.527755,0 0.892527,-0.20955 1.195211,-0.675216 0.271639,-0.426862 0.605366,-1.18745 0.892528,-1.847145 0.651933,0.09313 1.2573,0.325967 1.800577,0.620889 -0.256116,0.6985 -0.791633,1.435806 -1.9558,1.932517 l 0.822678,0.667455 c 1.024467,-0.535516 1.60655,-1.210733 1.948039,-2.079978 0.232833,0.170745 0.457906,0.357012 0.659695,0.535517 z" />
    </g>
  </g>
</svg>
