<?xml version="1.0" encoding="UTF-8" standalone="no"?>
<svg
   xmlns:dc="http://purl.org/dc/elements/1.1/"
   xmlns:cc="http://creativecommons.org/ns#"
   xmlns:rdf="http://www.w3.org/1999/02/22-rdf-syntax-ns#"
   xmlns:svg="http://www.w3.org/2000/svg"
   xmlns="http://www.w3.org/2000/svg"
   width="41.134441mm"
   height="9.7565098mm"
   viewBox="0 0 41.134441 9.7565098"
   version="1.1"
   id="svg935">
  <defs
     id="defs929" />
  <metadata
     id="metadata932">
    <rdf:RDF>
      <cc:Work
         rdf:about="">
        <dc:format>image/svg+xml</dc:format>
        <dc:type
           rdf:resource="http://purl.org/dc/dcmitype/StillImage" />
        <dc:title></dc:title>
      </cc:Work>
    </rdf:RDF>
  </metadata>
  <g
     id="layer1"
     transform="translate(-64.95875,-87.866944)">
    <g
       id="text1149"
       style="font-style:normal;font-weight:normal;font-size:10.58333302px;line-height:1.25;font-family:sans-serif;letter-spacing:0px;word-spacing:0px;fill:#000000;fill-opacity:1;stroke:none;stroke-width:0.26458332"
       aria-label="資源ごみ">
      <path
         id="path1483"
         style="fill:#f7f9f9;fill-opacity:1;stroke-width:0.26458332"
         d="m 70.622487,90.388753 q -0.454752,1.157552 -2.356445,1.612305 h 4.175456 v 3.844727 h -5.870443 v -3.844727 h 1.488281 l -0.413411,-0.702799 q 2.273763,-0.33073 2.356445,-1.819011 h -0.702799 q -0.454753,0.7028 -0.992188,1.116211 l -0.578776,-0.454752 q 0.950846,-0.868164 1.529622,-2.14974 l 0.7028,0.248047 q 0.165364,0.165365 -0.124024,0.206706 l -0.165364,0.37207 h 3.307291 l 0.124024,-0.124023 0.661458,0.454752 -0.206706,0.165365 q -0.289388,0.496093 -1.033528,1.240234 l -0.620117,-0.413411 q 0.330729,-0.289388 0.620117,-0.661459 h -1.736328 q 0.702799,1.364258 3.348632,1.860352 l -0.330729,0.785482 Q 71.531992,91.71167 70.622487,90.388753 Z m 2.89388,7.152018 q -1.901692,-0.289388 -3.183268,-1.074869 l 0.620117,-0.578776 q 1.322917,0.661458 2.811198,0.826823 z m -8.392252,-0.702799 q 1.777669,-0.248047 2.935221,-0.950846 l 0.620117,0.578776 q 0.165365,0.289388 -0.248046,0.165364 -1.322917,0.661459 -3.017904,0.992188 z m 6.49056,-3.720703 v -0.620117 h -4.216797 v 0.620117 z m -5.539714,-4.795573 q 0.620117,0.289388 1.364258,0.7028 l -0.537435,0.702799 q -0.537435,-0.330729 -1.364258,-0.702799 z m -0.37207,3.638021 q -0.08268,0.413411 -0.289388,0.04134 L 64.95875,91.298259 q 1.240235,-0.454753 2.232422,-1.07487 l 0.413412,0.620117 q -0.992188,0.661458 -1.901693,1.116211 z m 5.911784,2.273763 v -0.620117 h -4.216797 v 0.620117 z m 0,1.116211 v -0.620117 h -4.216797 v 0.620117 z" />
      <path
         id="path1485"
         style="fill:#f7f9f9;fill-opacity:1;stroke-width:0.26458332"
         d="m 77.485117,94.23348 q -0.454752,1.44694 -1.281575,2.935221 0.04134,0.454753 -0.165365,0.248047 l -0.785482,-0.744141 q 0.868164,-1.322916 1.529623,-3.017903 z m 3.265951,1.07487 q -0.33073,0.950846 -1.07487,1.901692 l -0.7028,-0.578776 q 0.7028,-0.868164 1.07487,-1.943034 l 0.826823,0.413412 q 0.165365,0.165365 -0.124023,0.206706 z m 3.513997,1.736328 Q 83.35556,96.093831 82.735443,95.060303 l 0.74414,-0.454753 q 0.785482,1.198893 1.405599,1.694987 z m -3.844727,-4.34082 v 0.868164 h 2.893881 v -0.868164 z m 0,-1.488282 v 0.826823 h 2.893881 v -0.826823 z m 1.116211,3.141927 h -0.909505 -0.909505 v -3.927408 h 1.44694 l 0.08268,-1.07487 h -2.315104 v 4.795573 q 0,1.943033 -1.157552,3.431315 l -0.661458,-0.744141 q 0.992187,-1.240234 0.992187,-2.976562 v -5.291667 h 6.531901 v 0.785482 h -2.397786 l -0.289388,1.07487 h 2.067057 v 3.927408 h -1.653646 v 2.52181 q 0,0.661458 -0.661458,0.661458 H 80.957773 L 80.792409,96.75529 h 0.537435 q 0.206705,0 0.206705,-0.248047 z m -5.457031,-3.555338 q 0.868164,0.413411 1.488281,1.07487 l -0.620117,0.868164 q -0.620117,-0.7028 -1.405599,-1.116211 z m 1.157552,-0.454753 q -0.620117,-0.661458 -1.322916,-1.074869 l 0.496093,-0.826823 q 0.826823,0.37207 1.364258,1.033528 z" />
      <path
         id="path1487"
         style="fill:#f7f9f9;fill-opacity:1;stroke-width:0.26458332"
         d="m 94.228281,95.763102 v 0.909505 h -4.547526 q -1.281576,0 -1.777669,-0.496093 -0.496094,-0.496094 -0.496094,-1.322917 0,-0.454753 0.165364,-1.07487 l 0.950847,0.124024 q -0.206706,0.661458 -0.206706,0.950846 0,0.37207 0.248047,0.620117 0.289388,0.289388 1.157552,0.289388 z m -6.201172,-5.167643 v -0.909505 h 5.374349 v 0.909505 z m 6.159831,-2.728515 q 0.702799,0.37207 1.570963,1.033528 l -0.37207,0.578776 Q 94.476328,88.81779 93.814869,88.44572 Z m -0.578776,0.950846 q 0.702799,0.37207 1.570963,1.033529 l -0.37207,0.578776 q -0.909505,-0.661459 -1.570964,-1.033529 z" />
      <path
         id="path1489"
         style="fill:#f7f9f9;fill-opacity:1;stroke-width:0.26458332"
         d="m 104.10882,94.068115 q -0.41342,1.860352 -1.61231,3.183268 l -0.86816,-0.496093 q 1.28157,-1.198893 1.69498,-2.976563 -1.44694,-0.537435 -2.93522,-0.74414 -1.116209,2.397786 -1.488279,2.769856 -0.496094,0.496094 -1.157552,0.496094 -0.496094,0 -0.826823,-0.330729 -0.37207,-0.37207 -0.37207,-1.116211 0,-0.868164 0.826823,-1.694987 0.909505,-0.909505 2.439127,-0.909505 0.496094,-1.281576 0.909504,-2.397786 -1.157551,0.289388 -2.315103,0.537434 l -0.37207,-0.826822 q 1.364258,-0.165365 2.604493,-0.454753 l 0.49609,-0.206706 0.7028,0.537435 q 0.41341,0.248047 -0.0413,0.37207 -0.53743,0.950847 -1.15755,2.480469 1.32292,0.165365 2.8112,0.661458 0.0827,-0.992187 0.0413,-2.439127 l 0.78548,0.165364 q 0.45475,0.08268 0.0827,0.33073 0,1.364257 -0.0827,2.232421 0.78548,0.289388 1.81901,0.826823 l -0.41341,0.826823 q -0.86817,-0.496094 -1.57096,-0.826823 z m -4.588872,-1.033528 q -0.950846,0 -1.529622,0.578776 -0.661458,0.661458 -0.661458,1.240234 0,0.248047 0.165364,0.413412 0.124024,0.124023 0.37207,0.124023 0.372071,0 0.661459,-0.454753 0.248047,-0.37207 0.992187,-1.901692 z" />
    </g>
  </g>
</svg>
