<?xml version="1.0" encoding="UTF-8" standalone="no"?>
<svg
   xmlns:dc="http://purl.org/dc/elements/1.1/"
   xmlns:cc="http://creativecommons.org/ns#"
   xmlns:rdf="http://www.w3.org/1999/02/22-rdf-syntax-ns#"
   xmlns:svg="http://www.w3.org/2000/svg"
   xmlns="http://www.w3.org/2000/svg"
   id="svg5796"
   version="1.1"
   viewBox="0 0 39.516941 9.000001"
   height="9.000001mm"
   width="39.516941mm">
  <defs
     id="defs5790" />
  <metadata
     id="metadata5793">
    <rdf:RDF>
      <cc:Work
         rdf:about="">
        <dc:format>image/svg+xml</dc:format>
        <dc:type
           rdf:resource="http://purl.org/dc/dcmitype/StillImage" />
        <dc:title></dc:title>
      </cc:Work>
    </rdf:RDF>
  </metadata>
  <g
     transform="translate(-77.43534,-165.34382)"
     id="layer1">
    <g
       transform="matrix(0.03537243,0,0,0.03093361,79.539444,165.75325)"
       id="g5862">
      <g
         style="display:inline;opacity:1;fill:#ffffff"
         id="g5111"
         transform="matrix(0.56825335,0,0,0.56825335,-106.01005,-13.23564)">
        <g
           id="g5097"
           style="fill:#ffffff">
          <path
             id="path5091"
             style="fill:#ffffff"
             d="m 311.406,149.531 c 20.156,20.156 118.719,92.188 118.719,188.344 C 430.125,434.031 352.172,512 256,512 159.844,512 81.875,434.031 81.875,337.875 c 0,-96.156 98.563,-168.188 118.719,-188.344 z"
             class="st0" />
          <path
             id="path5093"
             style="fill:#ffffff"
             d="m 311.406,97.125 c 0,0 5.125,-17.594 32.75,-39.906 26.5,-21.406 6.156,-50.969 -32.75,-40.063 C 284.547,24.656 293.672,0 256,0 218.328,0 227.453,24.656 200.594,17.156 161.703,6.25 141.36,35.812 167.86,57.219 c 27.609,22.313 32.734,39.906 32.734,39.906 z"
             class="st0" />
          <path
             id="path5095"
             style="fill:#ffffff"
             d="m 323.891,123.328 c 0,6.297 -5.109,11.406 -11.391,11.406 H 199.516 c -6.297,0 -11.406,-5.109 -11.406,-11.406 v 0 c 0,-6.297 5.109,-11.391 11.406,-11.391 H 312.5 c 6.281,0.001 11.391,5.094 11.391,11.391 z"
             class="st0" />
        </g>
      </g>
      <g
         style="display:inline;opacity:1;fill:#808080"
         id="g5468"
         transform="matrix(0.21454848,0,0,0.21454848,-15.461601,120.5286)">
        <g
           id="g5451"
           style="fill:#808080">
          <path
             id="path5439"
             style="fill:#808080"
             d="M 79.59,353.481 132.544,260.258 175.916,285.31 116.932,183.054 0,183.307 41.677,207.92 c 0,0 -24.854,41.764 -30.344,51.38 -8.835,15.415 -13.369,37.98 -3.554,53.67 1.496,2.464 29.706,52.712 52.46,92.188 0.473,-17.516 9.406,-33.822 19.398,-51.678 H 79.59 Z"
             class="st0" />
          <path
             id="path5441"
             style="fill:#808080"
             d="m 75.531,431.741 c 1.265,2.178 2.542,4.346 3.74,6.48 5.799,10.034 19.76,23.214 74.035,22.258 11.85,-0.221 59.05,0.109 73.132,0.22 l 0.683,-106.151 -138.168,-0.957 c -15.611,27.825 -28.847,51.403 -13.422,78.15 z"
             class="st0" />
          <path
             id="path5443"
             style="fill:#808080"
             d="m 191.067,3.804 h -7.471 c -11.552,0 -30.004,5.49 -56.288,52.987 -5.732,10.353 -29.618,51.073 -36.736,63.198 l 91.55,53.692 69.976,-119.189 C 235.759,27.052 221.962,3.804 191.067,3.804 Z"
             class="st0" />
          <path
             id="path5445"
             style="fill:#808080"
             d="M 385.764,163.988 444,62.611 401.872,86.41 c 0,0 -23.82,-42.458 -29.343,-51.976 -8.923,-15.37 -26.218,-30.553 -44.702,-29.937 -2.839,0.077 -60.503,-0.616 -106.074,-0.66 14.909,9.186 24.59,25.052 35.009,42.646 l 0.044,-0.088 54.297,92.54 -43.394,25.053 z"
             class="st0" />
          <path
             id="path5447"
             style="fill:#808080"
             d="m 434.164,354.141 -107.262,0.77 v -50.093 l -59.038,102.255 58.664,101.123 0.496,-48.377 c 0,0 48.64,0.605 59.676,0.55 17.78,-0.076 39.543,-7.404 48.268,-23.765 1.353,-2.498 30.784,-52.118 53.582,-91.496 -15.36,8.318 -33.998,8.748 -54.407,9.001 z"
             class="st0" />
          <path
             id="path5449"
             style="fill:#808080"
             d="m 489.935,236.844 c -6.072,-10.177 -29.387,-51.182 -36.341,-63.45 l -92.276,52.449 68.226,120.19 c 31.906,-0.408 58.939,-0.738 74.386,-27.44 1.276,-2.212 2.519,-4.368 3.774,-6.546 5.754,-9.991 10.221,-28.695 -17.769,-75.203 z"
             class="st0" />
        </g>
      </g>
    </g>
    <g
       id="text5866"
       style="font-style:normal;font-variant:normal;font-weight:bold;font-stretch:normal;font-size:7.76111126px;line-height:1.25;font-family:'Noto Sans CJK JP';-inkscape-font-specification:'Noto Sans CJK JP, Bold';font-variant-ligatures:normal;font-variant-caps:normal;font-variant-numeric:normal;font-feature-settings:normal;text-align:start;letter-spacing:0px;word-spacing:0px;writing-mode:lr-tb;text-anchor:start;fill:#ffffff;fill-opacity:1;stroke:none;stroke-width:0.26458332"
       aria-label="資源ごみ">
      <path
         id="path5868"
         style="fill:#ffffff;stroke-width:0.26458332"
         d="m 88.934671,167.74688 c -0.388055,-0.18627 -1.125361,-0.43462 -1.637594,-0.5588 l -0.403578,0.62865 c 0.535517,0.15522 1.265061,0.43462 1.622072,0.62865 z m -0.442383,4.37727 h 3.360561 v 0.34149 h -3.360561 z m 0,-0.85373 h 3.360561 v 0.33373 h -3.360561 z m 0,-0.85372 h 3.360561 v 0.33373 h -3.360561 z m 1.265061,-0.55104 c 0.706261,-0.20179 1.140883,-0.47342 1.412522,-0.8382 0.232833,0.33373 0.589845,0.62089 1.18745,0.8382 z m 3.034594,3.15101 v -3.01907 c 0.155223,0.0388 0.325967,0.0699 0.512234,0.1009 0.08537,-0.22508 0.287161,-0.58209 0.457905,-0.75283 -1.567744,-0.18627 -2.002366,-0.60537 -2.173111,-1.10984 h 0.861483 c -0.100894,0.16298 -0.20955,0.31044 -0.302683,0.42686 l 0.714022,0.22507 c 0.256117,-0.28716 0.535517,-0.75282 0.737306,-1.17192 l -0.613128,-0.15523 -0.1397,0.0233 h -2.289528 c 0.07761,-0.12418 0.1397,-0.24836 0.201789,-0.3803 l -0.814916,-0.13194 c -0.201789,0.45015 -0.582084,0.96238 -1.140884,1.35044 0.20955,0.0854 0.527756,0.27164 0.690739,0.43462 0.240595,-0.19403 0.442383,-0.40358 0.620889,-0.62089 h 0.5588 c -0.170744,0.55104 -0.582083,0.88477 -1.8161,1.08656 l -0.07761,-0.6985 c -0.822678,0.19402 -1.653117,0.38805 -2.227439,0.49671 l 0.341489,0.80715 c 0.582083,-0.16298 1.303867,-0.37253 1.971322,-0.56656 l -0.0078,-0.031 c 0.124178,0.12417 0.271639,0.34925 0.364772,0.53551 H 87.59976 v 3.15101 h 1.140883 c -0.535516,0.26388 -1.381477,0.51224 -2.134305,0.65194 0.194027,0.16298 0.519994,0.49671 0.682978,0.67521 0.783872,-0.21731 1.777294,-0.5976 2.421466,-1.0167 l -0.706261,-0.31045 h 2.266245 l -0.6985,0.40358 c 0.783872,0.29492 1.575505,0.6597 2.017888,0.91581 l 1.071034,-0.41134 c -0.527756,-0.25611 -1.420284,-0.62865 -2.211917,-0.90805 z" />
      <path
         id="path5870"
         style="fill:#ffffff;stroke-width:0.26458332"
         d="m 96.439666,167.87882 c -0.287161,-0.25612 -0.853723,-0.57432 -1.296106,-0.76835 l -0.519994,0.68298 c 0.450144,0.20955 1.001183,0.56656 1.265061,0.82267 z m -0.380295,2.04893 c -0.2794,-0.25611 -0.845961,-0.55104 -1.296105,-0.72954 l -0.504473,0.67521 c 0.442384,0.20955 0.993423,0.53552 1.249539,0.79164 z m -0.620889,1.29611 c -0.325966,0.90805 -0.76835,1.89371 -1.086555,2.49908 l 0.845961,0.49671 c 0.341489,-0.76835 0.706261,-1.66088 0.993422,-2.49132 z m 2.452511,0.83044 c -0.170744,0.51223 -0.465666,1.06327 -0.822677,1.40476 0.201789,0.11641 0.543277,0.33373 0.714022,0.47343 0.357011,-0.41134 0.714022,-1.05552 0.923572,-1.68417 z m 0.682978,-1.397 h 1.792819 v 0.42686 h -1.792819 z m 0,-1.04775 h 1.792819 v 0.42686 h -1.792819 z m 2.646539,2.1343 v -2.794 h -1.404761 c 0.06209,-0.20179 0.124178,-0.4191 0.201791,-0.64417 h 1.42028 v -0.83044 h -4.842932 v 2.14207 c 0,1.2573 -0.07761,3.01131 -0.946856,4.21428 0.225073,0.1009 0.613128,0.34149 0.776111,0.48895 0.923573,-1.28058 1.063273,-3.33728 1.063273,-4.70323 v -1.31163 h 1.505655 c -0.02328,0.20179 -0.06209,0.43462 -0.09313,0.64417 h -1.140883 v 2.794 h 1.234016 v 1.6764 c 0,0.0854 -0.03104,0.10866 -0.124177,0.10866 -0.09313,0 -0.411339,0 -0.675217,-0.008 0.09313,0.22507 0.194028,0.55104 0.232833,0.79163 0.481189,0.008 0.8382,-0.008 1.109839,-0.13194 0.271639,-0.12418 0.325967,-0.34149 0.325967,-0.7373 v -1.69969 z m -1.14088,0.53552 c 0.29492,0.48895 0.5976,1.14088 0.71402,1.55998 l 0.8382,-0.36477 c -0.13194,-0.4191 -0.45791,-1.04775 -0.76059,-1.51342 z" />
      <path
         id="path5872"
         style="fill:#ffffff;stroke-width:0.26458332"
         d="m 102.959,171.26266 c -0.0621,0.29493 -0.14746,0.66746 -0.14746,1.10984 0,1.05551 0.877,1.64536 2.63878,1.64536 1.07879,0 2.00236,-0.1009 2.66982,-0.25612 l -0.008,-1.08655 c -0.68298,0.18626 -1.66088,0.30268 -2.70087,0.30268 -1.10984,0 -1.56774,-0.35701 -1.56774,-0.84596 0,-0.25612 0.0543,-0.49671 0.12417,-0.77611 z m 4.29189,-3.73309 c 0.10866,0.15522 0.22508,0.35701 0.33373,0.5588 -0.58984,0.0543 -1.4358,0.10089 -2.17311,0.10089 -0.80716,0 -1.52118,-0.031 -2.08774,-0.0931 v 1.02447 c 0.62089,0.0466 1.28835,0.0854 2.0955,0.0854 0.72955,0 1.68416,-0.0543 2.21968,-0.0931 v -0.92358 c 0.0776,0.15523 0.15522,0.30269 0.21731,0.42686 l 0.62865,-0.27163 c -0.14746,-0.28717 -0.42686,-0.77612 -0.62089,-1.06328 z m 0.91581,-0.34925 c 0.21732,0.29492 0.46567,0.74507 0.62865,1.07103 l 0.61313,-0.26388 c -0.13194,-0.27163 -0.4191,-0.76835 -0.62865,-1.05551 z" />
      <path
         id="path5874"
         style="fill:#ffffff;stroke-width:0.26458332"
         d="m 111.56607,172.16295 c -0.1397,0.19403 -0.24835,0.26388 -0.40358,0.26388 -0.15522,0 -0.28716,-0.14746 -0.28716,-0.36477 0,-0.48119 0.46567,-1.00119 1.31939,-1.13312 -0.21731,0.47342 -0.43462,0.94685 -0.62865,1.23401 z m 5.38621,-0.61313 c -0.22507,-0.14746 -0.50447,-0.33372 -0.82268,-0.51223 0.0776,-0.43462 0.11642,-0.91581 0.14747,-1.42804 l -1.00895,-0.11642 c 0.0311,0.24836 0.0233,0.54328 0.008,0.8382 -0.008,0.0854 -0.0155,0.17074 -0.0233,0.26388 -0.49671,-0.21731 -1.05551,-0.40358 -1.65312,-0.49671 0.27164,-0.65194 0.55104,-1.31939 0.75283,-1.64536 0.0621,-0.10865 0.14746,-0.20955 0.25612,-0.32597 l -0.61313,-0.48118 c -0.13194,0.0543 -0.33373,0.10089 -0.52,0.11641 -0.35701,0.031 -1.17968,0.0621 -1.61431,0.0621 -0.17074,0 -0.43462,-0.008 -0.63641,-0.031 l 0.0388,0.99342 c 0.19403,-0.031 0.46566,-0.0621 0.62865,-0.0699 0.34925,-0.0233 1.00894,-0.0466 1.31163,-0.0543 -0.17851,0.36477 -0.39582,0.88477 -0.61313,1.38148 -1.54446,0.0699 -2.62326,0.98566 -2.62326,2.17311 0,0.77611 0.50447,1.24178 1.17969,1.24178 0.52776,0 0.89253,-0.20955 1.19521,-0.67522 0.27164,-0.42686 0.60537,-1.18745 0.89253,-1.84714 0.65193,0.0931 1.2573,0.32596 1.80058,0.62089 -0.25612,0.6985 -0.79164,1.4358 -1.9558,1.93251 l 0.82268,0.66746 c 1.02446,-0.53552 1.60655,-1.21074 1.94803,-2.07998 0.23284,0.17074 0.45791,0.35701 0.6597,0.53552 z" />
    </g>
  </g>
</svg>
