<?xml version="1.0" encoding="UTF-8" standalone="no"?>
<svg
   xmlns:dc="http://purl.org/dc/elements/1.1/"
   xmlns:cc="http://creativecommons.org/ns#"
   xmlns:rdf="http://www.w3.org/1999/02/22-rdf-syntax-ns#"
   xmlns:svg="http://www.w3.org/2000/svg"
   xmlns="http://www.w3.org/2000/svg"
   id="svg6258"
   version="1.1"
   viewBox="0 0 39.594547 9.000001"
   height="9.000001mm"
   width="39.594547mm">
  <defs
     id="defs6252" />
  <metadata
     id="metadata6255">
    <rdf:RDF>
      <cc:Work
         rdf:about="">
        <dc:format>image/svg+xml</dc:format>
        <dc:type
           rdf:resource="http://purl.org/dc/dcmitype/StillImage" />
        <dc:title></dc:title>
      </cc:Work>
    </rdf:RDF>
  </metadata>
  <g
     transform="translate(-71.711189,-194.46651)"
     id="layer1">
    <g
       transform="matrix(0.03537243,0,0,0.03093361,71.362619,194.75179)"
       id="g6336">
      <g
         style="display:inline;opacity:1;fill:#ffffff"
         id="g5111"
         transform="matrix(0.56825335,0,0,0.56825335,-36.671453,-9.2224736)">
        <g
           id="g5097"
           style="fill:#ffffff">
          <path
             id="path5091"
             style="fill:#ffffff"
             d="m 311.406,149.531 c 20.156,20.156 118.719,92.188 118.719,188.344 C 430.125,434.031 352.172,512 256,512 159.844,512 81.875,434.031 81.875,337.875 c 0,-96.156 98.563,-168.188 118.719,-188.344 z"
             class="st0" />
          <path
             id="path5093"
             style="fill:#ffffff"
             d="m 311.406,97.125 c 0,0 5.125,-17.594 32.75,-39.906 26.5,-21.406 6.156,-50.969 -32.75,-40.063 C 284.547,24.656 293.672,0 256,0 218.328,0 227.453,24.656 200.594,17.156 161.703,6.25 141.36,35.812 167.86,57.219 c 27.609,22.313 32.734,39.906 32.734,39.906 z"
             class="st0" />
          <path
             id="path5095"
             style="fill:#ffffff"
             d="m 323.891,123.328 c 0,6.297 -5.109,11.406 -11.391,11.406 H 199.516 c -6.297,0 -11.406,-5.109 -11.406,-11.406 v 0 c 0,-6.297 5.109,-11.391 11.406,-11.391 H 312.5 c 6.281,0.001 11.391,5.094 11.391,11.391 z"
             class="st0" />
        </g>
      </g>
      <g
         style="display:inline;opacity:1;fill:#808080"
         id="g5606"
         transform="matrix(-0.03699131,-0.11254612,0.11254612,-0.03699131,66.934309,239.36349)">
        <g
           id="g5592"
           style="fill:#808080">
          <path
             id="path5586"
             style="fill:#808080"
             d="M 242.82,183.616 H 70.23 c -2.481,0 -4.675,0.667 -6.676,2.022 -1.929,1.297 -3.47,3.169 -4.36,5.263 -0.624,1.477 -0.925,3.004 -0.925,4.654 v 120.861 c 0,2.481 0.667,4.675 2.015,6.676 1.298,1.929 3.169,3.471 5.285,4.367 1.47,0.617 2.99,0.918 4.64,0.918 h 174.548 c -25.715,-62.321 17.919,-91.684 -1.937,-144.761 z m -125.422,103.63 h -16.076 v -62.493 h 16.076 z"
             class="st0" />
          <path
             id="polygon5588"
             d="m 329.119,264.034 h 23.205 v 23.212 h 16.083 v -23.212 h 23.205 v -16.076 h -23.205 v -23.204 h -16.083 v 23.204 h -23.205 z"
             style="fill:#808080" />
          <path
             id="path5590"
             style="fill:#808080"
             d="m 487.426,213.732 h -8.253 c -5.522,0 -12.04,-0.982 -19.139,-20.479 -0.286,-8.82 -2.187,-17.296 -5.464,-25.033 -5.342,-12.62 -14.219,-23.304 -25.42,-30.87 -11.18,-7.565 -24.782,-12.004 -39.26,-11.996 H 293.71 166.388 70.208 c -9.652,-0.008 -18.931,1.958 -27.335,5.522 -12.62,5.342 -23.304,14.219 -30.87,25.412 C 4.432,167.474 -0.006,181.077 0,195.555 v 120.882 c 0,9.652 1.965,18.931 5.529,27.335 5.334,12.621 14.219,23.305 25.412,30.87 11.187,7.572 24.782,12.01 39.267,12.004 h 96.18 127.322 96.18 c 9.645,0 18.923,-1.965 27.328,-5.522 12.62,-5.342 23.304,-14.226 30.876,-25.42 7.171,-10.598 11.531,-23.369 11.954,-37.007 7.092,-19.454 13.602,-20.436 19.124,-20.436 h 8.253 c 13.574,0 24.574,-11 24.574,-24.567 V 238.306 C 512,224.732 501,213.732 487.426,213.732 Z M 426.26,316.445 c 0,5.063 -1.018,9.81 -2.847,14.148 -2.753,6.511 -7.385,12.09 -13.201,16.019 -5.823,3.922 -12.735,6.196 -20.322,6.203 H 309.865 293.71 259.88 200.22 166.389 138.258 70.208 c -5.07,0 -9.81,-1.018 -14.155,-2.854 -6.511,-2.746 -12.089,-7.379 -16.019,-13.194 -3.923,-5.823 -6.196,-12.735 -6.202,-20.329 V 195.555 c 0.006,-5.07 1.018,-9.81 2.853,-14.156 2.747,-6.504 7.386,-12.09 13.194,-16.012 5.83,-3.93 12.736,-6.196 20.329,-6.21 h 68.049 28.131 33.831 59.66 33.831 16.155 80.025 c 5.07,0.006 9.809,1.018 14.147,2.853 6.512,2.747 12.097,7.386 16.02,13.202 3.929,5.822 6.195,12.728 6.202,20.322 v 120.891 z"
             class="st0" />
        </g>
      </g>
      <g
         style="display:inline;opacity:1;fill:#808080"
         id="g5411"
         transform="matrix(0.19665621,0.02431302,-0.02431302,0.19665621,82.268511,111.40029)">
        <g
           id="g5396"
           style="fill:#808080">
          <path
             id="path5388"
             style="fill:#808080"
             d="m 256,0 c -81.844,0 -148.188,66.344 -148.188,148.188 0,34.844 12.063,66.969 32.219,92.25 12.844,16.078 22.219,27.016 27.938,37.453 2.906,5.234 4.969,10.359 6.406,16.359 1.438,6.016 2.219,12.938 2.219,21.625 0,5 0.563,9.594 1.813,13.844 1.813,6.313 5.438,11.938 10.625,15.594 5.188,3.688 11.375,5.172 17.516,5.156 h 98.922 c 4.109,0 8.188,-0.625 12.031,-2.172 5.781,-2.266 10.781,-6.813 13.688,-12.547 2.984,-5.75 4.219,-12.391 4.219,-19.875 0,-8.688 0.781,-15.609 2.219,-21.625 2.172,-8.969 5.75,-16.094 11.391,-24.344 5.625,-8.234 13.359,-17.406 22.969,-29.469 20.156,-25.281 32.203,-57.406 32.203,-92.25 C 404.188,66.344 337.859,0 256,0 Z m -14.969,290.656 c -1.125,-10.938 -2.641,-21.906 -4.813,-30.516 -0.234,-0.938 -0.516,-1.734 -0.781,-2.609 2.938,0.391 6.063,0.672 9.625,0.672 3.375,0 7.031,-0.219 10.938,-0.688 3.906,0.469 7.563,0.688 10.938,0.688 3.516,0 6.656,-0.266 9.563,-0.641 -3.406,11.844 -5.328,29.281 -6.531,44.688 -0.969,12.438 -1.406,23.344 -1.563,28.516 H 243.61 c -0.219,-6.766 -0.891,-23.313 -2.579,-40.11 z m 115.532,-62.5 c -12.5,15.75 -22.469,27.078 -29.781,40.203 -3.625,6.547 -6.469,13.516 -8.328,21.313 -1.859,7.797 -2.75,16.359 -2.75,26.203 0,3.516 -0.406,6.266 -1,8.281 -0.922,3.016 -2.016,4.234 -3.156,5.094 -1.172,0.828 -2.938,1.5 -6.078,1.516 h -30.5 c 0.063,-2.328 0.219,-5.766 0.406,-9.953 0.594,-12.031 1.813,-30.156 4.109,-45.297 1.141,-7.563 2.578,-14.391 4.266,-19.172 0.031,-0.094 0.063,-0.141 0.094,-0.219 1.063,-0.281 2.109,-0.578 3.031,-0.906 2.406,-0.859 4.297,-1.813 5.781,-2.859 0.734,-0.547 1.375,-1.109 1.938,-1.828 0.531,-0.703 1.094,-1.641 1.125,-3.016 0,-0.859 -0.313,-1.828 -0.844,-2.516 -0.813,-1.031 -1.797,-1.469 -2.656,-1.719 -0.875,-0.25 -1.719,-0.328 -2.688,-0.328 -0.875,0 -1.813,0.078 -2.844,0.234 -1.719,0.234 -3.125,1.125 -4.234,2.188 -1.391,1.359 -2.406,3.156 -3.328,5.125 -3.375,0.688 -7.438,1.156 -12.188,1.141 -3.219,0 -6.734,-0.203 -10.531,-0.672 l -0.407,-0.063 -0.406,0.063 c -3.797,0.469 -7.313,0.672 -10.531,0.672 -4.781,0 -8.813,-0.484 -12.188,-1.156 -0.188,-0.406 -0.344,-0.891 -0.547,-1.281 -0.797,-1.469 -1.672,-2.75 -2.781,-3.828 -1.109,-1.063 -2.516,-1.953 -4.234,-2.188 -1.031,-0.156 -1.984,-0.234 -2.844,-0.234 -1.281,0.016 -2.375,0.109 -3.578,0.656 -0.578,0.281 -1.234,0.703 -1.766,1.391 -0.532,0.688 -0.859,1.656 -0.844,2.516 0.031,1.375 0.594,2.297 1.125,3.016 0.969,1.234 2.203,2.094 3.781,2.969 1.781,0.969 4.219,1.813 6.938,2.578 1.828,5.047 3.375,12.453 4.563,20.625 1.859,12.531 2.969,26.922 3.625,38.156 0.313,5.609 0.531,10.438 0.656,13.859 0.031,0.766 0.047,1.438 0.063,2.047 h -30.484 c -2.078,0 -3.609,-0.328 -4.672,-0.766 -1.625,-0.703 -2.5,-1.406 -3.594,-3.375 -1.031,-1.969 -1.969,-5.469 -1.969,-10.75 0,-9.844 -0.906,-18.406 -2.75,-26.203 -2.781,-11.703 -7.813,-21.5 -14.313,-30.922 -6.5,-9.469 -14.406,-18.766 -23.797,-30.594 -17.484,-21.953 -27.922,-49.688 -27.922,-79.969 0,-35.5 14.344,-67.563 37.625,-90.859 C 188.438,34.063 220.5,19.719 256,19.703 c 35.516,0.016 67.563,14.359 90.844,37.625 23.281,23.297 37.625,55.344 37.625,90.859 0,30.282 -10.422,58.016 -27.906,79.969 z"
             class="st0" />
          <path
             id="path5390"
             style="fill:#808080"
             d="m 256,512 c 19.063,0 34.5,-15.438 34.5,-34.5 h -69 c 0,19.063 15.438,34.5 34.5,34.5 z"
             class="st0" />
          <path
             id="path5392"
             style="fill:#808080"
             d="M 317.438,382.234 H 194.531 c -6.219,0 -11.25,5.047 -11.25,11.266 0,6.219 5.031,11.281 11.25,11.281 h 122.906 c 6.234,0 11.281,-5.063 11.281,-11.281 0,-6.218 -5.046,-11.266 -11.28,-11.266 z"
             class="st0" />
          <path
             id="path5394"
             style="fill:#808080"
             d="M 317.438,429.578 H 194.531 c -6.219,0 -11.25,5.047 -11.25,11.266 0,6.234 5.031,11.281 11.25,11.281 h 122.906 c 6.234,0 11.281,-5.047 11.281,-11.281 10e-4,-6.219 -5.046,-11.266 -11.28,-11.266 z"
             class="st0" />
        </g>
      </g>
    </g>
    <g
       id="text6340"
       style="font-style:normal;font-variant:normal;font-weight:bold;font-stretch:normal;font-size:7.76111126px;line-height:1.25;font-family:'Noto Sans CJK JP';-inkscape-font-specification:'Noto Sans CJK JP, Bold';font-variant-ligatures:normal;font-variant-caps:normal;font-variant-numeric:normal;font-feature-settings:normal;text-align:start;letter-spacing:0px;word-spacing:0px;writing-mode:lr-tb;text-anchor:start;fill:#ffffff;fill-opacity:1;stroke:none;stroke-width:0.26458332"
       aria-label="有害ごみ">
      <path
         id="path6342"
         style="fill:#ffffff;stroke-width:0.26458332"
         d="m 86.175259,199.9352 h -2.801761 v -0.49671 h 2.801761 z m -2.801761,1.27282 v -0.50447 h 2.801761 v 0.50447 z m 4.571294,-3.18981 v -0.86925 H 84.15737 c 0.09313,-0.24059 0.170745,-0.48119 0.248356,-0.72178 l -0.954617,-0.21731 c -0.07761,0.31044 -0.178506,0.62089 -0.302683,0.93909 h -2.087739 v 0.86925 h 1.699683 c -0.465667,0.90029 -1.109839,1.7152 -1.932517,2.26624 0.178506,0.17075 0.473428,0.50447 0.605367,0.70626 0.380295,-0.25611 0.714022,-0.56656 1.024467,-0.90805 v 3.37609 h 0.915811 v -1.48238 h 2.801761 v 0.46567 c 0,0.10866 -0.04657,0.14746 -0.178505,0.15522 -0.131939,0 -0.582084,0 -0.977901,-0.0233 0.116417,0.24835 0.240595,0.63641 0.2794,0.89253 0.628651,0 1.071034,-0.008 1.373717,-0.15523 0.318206,-0.1397 0.403578,-0.38805 0.403578,-0.84596 v -3.83399 h -3.593395 c 0.116417,-0.20178 0.217312,-0.40357 0.310445,-0.61312 z" />
      <path
         id="path6344"
         style="fill:#ffffff;stroke-width:0.26458332"
         d="m 93.788909,201.93757 v 0.58984 h -3.019072 v -0.58984 z m -3.9116,1.52894 h 0.892528 v -0.21731 h 3.019072 v 0.20955 h 0.939095 v -2.24297 h -4.850695 z m 0.01552,-5.34741 v -0.43462 h 4.703234 v 0.43462 h -1.909234 v -0.40358 h -0.923572 v 0.40358 z m 2.794,2.04117 v -0.34149 h 2.343856 v -0.68297 h -2.343856 v -0.31821 h 1.979084 v -0.34925 h 0.877005 v -1.59103 h -2.840566 v -0.65969 h -0.946856 v 0.65969 h -2.762956 v 1.59103 h 0.892528 v 0.34925 h 1.878189 v 0.31821 h -2.204155 v 0.68297 h 2.204155 v 0.34149 h -2.949222 v 0.74507 h 6.907389 v -0.74507 z" />
      <path
         id="path6346"
         style="fill:#ffffff;stroke-width:0.26458332"
         d="m 97.312454,200.40863 c -0.06209,0.29492 -0.147461,0.66745 -0.147461,1.10984 0,1.05551 0.877005,1.64535 2.638777,1.64535 1.07879,0 2.00237,-0.10089 2.66982,-0.25611 l -0.008,-1.08656 c -0.68298,0.18627 -1.66088,0.30268 -2.700865,0.30268 -1.109839,0 -1.567745,-0.35701 -1.567745,-0.84596 0,-0.25611 0.05433,-0.49671 0.124178,-0.77611 z m 4.291896,-3.7331 c 0.10865,0.15523 0.22507,0.35702 0.33373,0.5588 -0.58985,0.0543 -1.43581,0.1009 -2.173115,0.1009 -0.807156,0 -1.521178,-0.031 -2.087739,-0.0931 v 1.02446 c 0.620889,0.0466 1.288344,0.0854 2.0955,0.0854 0.729544,0 1.684164,-0.0543 2.219674,-0.0931 v -0.92357 c 0.0776,0.15522 0.15523,0.30268 0.21731,0.42686 l 0.62865,-0.27164 c -0.14746,-0.28716 -0.42686,-0.77611 -0.62088,-1.06327 z m 0.91581,-0.34925 c 0.21731,0.29493 0.46567,0.74507 0.62865,1.07104 l 0.61313,-0.26388 c -0.13194,-0.27164 -0.4191,-0.76835 -0.62865,-1.05551 z" />
      <path
         id="path6348"
         style="fill:#ffffff;stroke-width:0.26458332"
         d="m 105.91953,201.30892 c -0.1397,0.19403 -0.24836,0.26388 -0.40358,0.26388 -0.15522,0 -0.28716,-0.14747 -0.28716,-0.36478 0,-0.48119 0.46566,-1.00118 1.31939,-1.13312 -0.21732,0.47343 -0.43463,0.94686 -0.62865,1.23402 z m 5.38621,-0.61313 c -0.22508,-0.14746 -0.50448,-0.33373 -0.82268,-0.51223 0.0776,-0.43463 0.11642,-0.91581 0.14746,-1.42805 l -1.00894,-0.11641 c 0.031,0.24835 0.0233,0.54327 0.008,0.8382 -0.008,0.0854 -0.0155,0.17074 -0.0233,0.26387 -0.49671,-0.21731 -1.05551,-0.40357 -1.65311,-0.49671 0.27164,-0.65193 0.55104,-1.31939 0.75282,-1.64535 0.0621,-0.10866 0.14747,-0.20955 0.25612,-0.32597 l -0.61313,-0.48119 c -0.13194,0.0543 -0.33372,0.1009 -0.51999,0.11642 -0.35701,0.031 -1.17969,0.0621 -1.61431,0.0621 -0.17075,0 -0.43462,-0.008 -0.63641,-0.031 l 0.0388,0.99342 c 0.19403,-0.031 0.46567,-0.0621 0.62865,-0.0699 0.34925,-0.0233 1.00895,-0.0466 1.31163,-0.0543 -0.17851,0.36477 -0.39582,0.88476 -0.61313,1.38147 -1.54446,0.0699 -2.62325,0.98567 -2.62325,2.17312 0,0.77611 0.50447,1.24177 1.17969,1.24177 0.52775,0 0.89252,-0.20955 1.19521,-0.67521 0.27164,-0.42686 0.60536,-1.18745 0.89252,-1.84715 0.65194,0.0931 1.2573,0.32597 1.80058,0.62089 -0.25611,0.6985 -0.79163,1.43581 -1.9558,1.93252 l 0.82268,0.66745 c 1.02447,-0.53551 1.60655,-1.21073 1.94804,-2.07997 0.23283,0.17074 0.4579,0.35701 0.65969,0.53551 z" />
    </g>
  </g>
</svg>
