<?xml version="1.0" encoding="UTF-8" standalone="no"?>
<svg
   xmlns:dc="http://purl.org/dc/elements/1.1/"
   xmlns:cc="http://creativecommons.org/ns#"
   xmlns:rdf="http://www.w3.org/1999/02/22-rdf-syntax-ns#"
   xmlns:svg="http://www.w3.org/2000/svg"
   xmlns="http://www.w3.org/2000/svg"
   id="svg5036"
   version="1.1"
   viewBox="0 0 30.477882 7.3885779"
   height="7.3885779mm"
   width="30.477882mm">
  <defs
     id="defs5030" />
  <metadata
     id="metadata5033">
    <rdf:RDF>
      <cc:Work
         rdf:about="">
        <dc:format>image/svg+xml</dc:format>
        <dc:type
           rdf:resource="http://purl.org/dc/dcmitype/StillImage" />
        <dc:title></dc:title>
      </cc:Work>
    </rdf:RDF>
  </metadata>
  <g
     transform="translate(-66.741122,-114.90567)"
     id="layer1">
    <g
       id="text5040"
       style="font-style:normal;font-variant:normal;font-weight:bold;font-stretch:normal;font-size:7.76111126px;line-height:1.25;font-family:'Noto Sans CJK JP';-inkscape-font-specification:'Noto Sans CJK JP, Bold';font-variant-ligatures:normal;font-variant-caps:normal;font-variant-numeric:normal;font-feature-settings:normal;text-align:start;letter-spacing:0px;word-spacing:0px;writing-mode:lr-tb;text-anchor:start;fill:#000000;fill-opacity:1;stroke:none;stroke-width:0.26458332"
       aria-label="有害ごみ">
      <path
         id="path5042"
         style="fill:#ffffff;stroke-width:0.26458332"
         d="m 72.088528,118.76294 h -2.801761 v -0.49671 h 2.801761 z m -2.801761,1.27283 v -0.50448 h 2.801761 v 0.50448 z m 4.571294,-3.18982 v -0.86924 h -3.787422 c 0.09313,-0.2406 0.170745,-0.48119 0.248356,-0.72179 l -0.954617,-0.21731 c -0.07761,0.31045 -0.178505,0.62089 -0.302683,0.9391 h -2.087739 v 0.86924 h 1.699683 c -0.465667,0.90029 -1.109839,1.71521 -1.932517,2.26624 0.178506,0.17075 0.473428,0.50448 0.605367,0.70627 0.380295,-0.25612 0.714022,-0.56657 1.024467,-0.90805 v 3.37608 h 0.915811 v -1.48237 h 2.801761 v 0.46566 c 0,0.10866 -0.04657,0.14746 -0.178505,0.15523 -0.131939,0 -0.582084,0 -0.9779,-0.0233 0.116416,0.24836 0.240594,0.63641 0.2794,0.89253 0.62865,0 1.071033,-0.008 1.373716,-0.15522 0.318206,-0.1397 0.403578,-0.38806 0.403578,-0.84596 v -3.83399 h -3.593394 c 0.116416,-0.20179 0.217311,-0.40358 0.310444,-0.61313 z" />
      <path
         id="path5044"
         style="fill:#ffffff;stroke-width:0.26458332"
         d="m 79.702178,120.76531 v 0.58985 h -3.019072 v -0.58985 z m -3.9116,1.52894 h 0.892528 v -0.21731 h 3.019072 v 0.20955 h 0.939095 v -2.24296 h -4.850695 z m 0.01552,-5.34741 v -0.43462 h 4.703234 v 0.43462 H 78.6001 v -0.40357 h -0.923572 v 0.40357 z m 2.794,2.04118 v -0.34149 h 2.343856 v -0.68298 H 78.6001 v -0.31821 h 1.979084 v -0.34925 h 0.877005 v -1.59102 h -2.840566 v -0.6597 h -0.946856 v 0.6597 h -2.762955 v 1.59102 h 0.892527 v 0.34925 h 1.878189 v 0.31821 h -2.204155 v 0.68298 h 2.204155 v 0.34149 h -2.949222 v 0.74506 h 6.907389 v -0.74506 z" />
      <path
         id="path5046"
         style="fill:#ffffff;stroke-width:0.26458332"
         d="m 83.225723,119.23637 c -0.06209,0.29492 -0.147461,0.66746 -0.147461,1.10984 0,1.05551 0.877005,1.64536 2.638777,1.64536 1.078795,0 2.002367,-0.1009 2.669823,-0.25612 l -0.0078,-1.08656 c -0.682978,0.18627 -1.660878,0.30269 -2.700867,0.30269 -1.109839,0 -1.567745,-0.35701 -1.567745,-0.84596 0,-0.25612 0.05433,-0.49671 0.124178,-0.77611 z m 4.291894,-3.73309 c 0.108656,0.15522 0.225073,0.35701 0.333728,0.5588 -0.589844,0.0543 -1.435806,0.10089 -2.173111,0.10089 -0.807156,0 -1.521178,-0.031 -2.087739,-0.0931 v 1.02447 c 0.620889,0.0466 1.288344,0.0854 2.0955,0.0854 0.729544,0 1.684161,-0.0543 2.219678,-0.0931 v -0.92357 c 0.07761,0.15522 0.155222,0.30269 0.217311,0.42686 l 0.62865,-0.27164 c -0.147461,-0.28716 -0.426861,-0.77611 -0.620889,-1.06327 z m 0.915811,-0.34925 c 0.217312,0.29492 0.465667,0.74506 0.62865,1.07103 l 0.613128,-0.26388 c -0.131939,-0.27164 -0.4191,-0.76835 -0.62865,-1.05551 z" />
      <path
         id="path5048"
         style="fill:#ffffff;stroke-width:0.26458332"
         d="m 91.832794,120.13666 c -0.1397,0.19403 -0.248355,0.26388 -0.403578,0.26388 -0.155222,0 -0.287161,-0.14746 -0.287161,-0.36477 0,-0.48119 0.465667,-1.00119 1.319389,-1.13313 -0.217311,0.47343 -0.434622,0.94686 -0.62865,1.23402 z m 5.386211,-0.61313 c -0.225072,-0.14746 -0.504472,-0.33372 -0.822677,-0.51223 0.07761,-0.43462 0.116416,-0.91581 0.147461,-1.42804 l -1.008945,-0.11642 c 0.03104,0.24835 0.02328,0.54328 0.0078,0.8382 -0.0078,0.0854 -0.01552,0.17074 -0.02328,0.26388 -0.496711,-0.21731 -1.055511,-0.40358 -1.653117,-0.49671 0.271639,-0.65194 0.551039,-1.31939 0.752828,-1.64536 0.06209,-0.10866 0.147461,-0.20955 0.256117,-0.32597 l -0.613128,-0.48119 c -0.131939,0.0543 -0.333728,0.1009 -0.519994,0.11642 -0.357012,0.0311 -1.179689,0.0621 -1.614312,0.0621 -0.170744,0 -0.434622,-0.008 -0.636411,-0.031 l 0.03881,0.99342 c 0.194028,-0.0311 0.465667,-0.0621 0.62865,-0.0699 0.34925,-0.0233 1.008944,-0.0466 1.311628,-0.0543 -0.178506,0.36477 -0.395817,0.88477 -0.613128,1.38148 -1.544461,0.0698 -2.623256,0.98566 -2.623256,2.17311 0,0.77611 0.504473,1.24178 1.179689,1.24178 0.527756,0 0.892528,-0.20955 1.195211,-0.67522 0.271639,-0.42686 0.605367,-1.18745 0.892528,-1.84714 0.651933,0.0931 1.2573,0.32596 1.800578,0.62088 -0.256117,0.6985 -0.791633,1.43581 -1.9558,1.93252 l 0.822678,0.66746 c 1.024466,-0.53552 1.60655,-1.21074 1.948039,-2.07998 0.232833,0.17074 0.457905,0.35701 0.659694,0.53552 z" />
    </g>
  </g>
</svg>
