<?xml version="1.0" encoding="UTF-8" standalone="no"?>
<svg
   xmlns:dc="http://purl.org/dc/elements/1.1/"
   xmlns:cc="http://creativecommons.org/ns#"
   xmlns:rdf="http://www.w3.org/1999/02/22-rdf-syntax-ns#"
   xmlns:svg="http://www.w3.org/2000/svg"
   xmlns="http://www.w3.org/2000/svg"
   width="41.258465mm"
   height="9.715169mm"
   viewBox="0 0 41.258465 9.715169"
   version="1.1"
   id="svg923">
  <defs
     id="defs917" />
  <metadata
     id="metadata920">
    <rdf:RDF>
      <cc:Work
         rdf:about="">
        <dc:format>image/svg+xml</dc:format>
        <dc:type
           rdf:resource="http://purl.org/dc/dcmitype/StillImage" />
        <dc:title></dc:title>
      </cc:Work>
    </rdf:RDF>
  </metadata>
  <g
     id="layer1"
     transform="translate(-69.37044,-130.95624)">
    <g
       id="text927"
       style="font-style:normal;font-weight:normal;font-size:10.58333302px;line-height:1.25;font-family:sans-serif;letter-spacing:0px;word-spacing:0px;fill:#000000;fill-opacity:1;stroke:none;stroke-width:0.26458332"
       aria-label="有害ごみ">
      <path
         id="path1516"
         style="fill:#f7f9f9;fill-opacity:1;stroke-width:0.26458332"
         d="m 69.37044,136.9507 q 2.439128,-1.36425 3.141927,-3.51399 H 69.74251 v -0.78549 h 2.976563 q 0.124023,-0.49609 0.206706,-1.48828 l 1.074869,0.20671 q 0.165365,0.16536 -0.124023,0.20671 l -0.206706,1.07486 h 4.960938 v 0.78549 h -5.126302 q -0.165365,0.57877 -0.372071,0.95084 h 4.092774 v 5.49838 q 0,0.66145 -0.661459,0.66145 h -0.950846 l -0.206706,-0.78548 h 0.826823 q 0.165365,0 0.165365,-0.16536 v -1.11621 h -3.59668 v 2.19108 h -0.826823 v -4.54753 q -0.992187,1.03353 -2.108398,1.69499 z m 3.431315,-0.16536 v 0.9095 h 3.59668 v -0.9095 z m 3.59668,-0.78548 v -0.82683 h -3.59668 v 0.82683 z" />
      <path
         id="path1518"
         style="fill:#f7f9f9;fill-opacity:1;stroke-width:0.26458332"
         d="m 81.359372,135.50376 v -0.66145 h 2.852539 v -0.66146 h -2.728515 v -0.66146 h 2.728515 v -0.53744 h 0.785482 q 0.330729,0.0413 0.04134,0.24805 v 0.28939 h 2.769857 v 0.66146 h -2.769857 v 0.66146 h 2.89388 v 0.66145 h -2.89388 v 0.66146 h 4.216797 v 0.66146 h -9.219076 v -0.66146 h 4.175456 v -0.66146 z m 5.539713,4.75424 h -4.506184 v 0.41341 h -0.826823 v -3.30729 h 6.15983 v 3.18326 h -0.826823 z m 0,-2.1084 h -4.506184 v 1.32291 h 4.506184 z m -2.728515,-6.24252 v -0.82682 h 0.909505 q 0.37207,0.0413 0.04134,0.33073 v 0.49609 h 3.886068 v 2.06706 h -0.826823 v -1.28157 h -7.110677 v 1.28157 h -0.826823 v -2.06706 z" />
      <path
         id="path1520"
         style="fill:#f7f9f9;fill-opacity:1;stroke-width:0.26458332"
         d="m 98.763994,138.8524 v 0.9095 h -4.547526 q -1.281575,0 -1.777669,-0.49609 -0.496094,-0.4961 -0.496094,-1.32292 0,-0.45475 0.165365,-1.07487 l 0.950846,0.12403 q -0.206706,0.66145 -0.206706,0.95084 0,0.37207 0.248047,0.62012 0.289388,0.28939 1.157552,0.28939 z m -6.201172,-5.16765 v -0.9095 h 5.374349 v 0.9095 z m 6.159831,-2.72851 q 0.702799,0.37207 1.570967,1.03353 l -0.372074,0.57877 q -0.909505,-0.66146 -1.570963,-1.03353 z m -0.578776,0.95084 q 0.702799,0.37207 1.570963,1.03353 l -0.37207,0.57878 q -0.909505,-0.66146 -1.570964,-1.03353 z" />
      <path
         id="path1522"
         style="fill:#f7f9f9;fill-opacity:1;stroke-width:0.26458332"
         d="m 108.64453,137.15741 q -0.41341,1.86035 -1.61231,3.18327 l -0.86816,-0.4961 q 1.28158,-1.19889 1.69499,-2.97656 -1.44694,-0.53743 -2.93522,-0.74414 -1.11622,2.39779 -1.48829,2.76986 -0.49609,0.49609 -1.15755,0.49609 -0.49609,0 -0.82682,-0.33073 -0.37207,-0.37207 -0.37207,-1.11621 0,-0.86816 0.82682,-1.69499 0.90951,-0.9095 2.43913,-0.9095 0.49609,-1.28158 0.9095,-2.39779 -1.15755,0.28939 -2.3151,0.53744 l -0.37207,-0.82683 q 1.36426,-0.16536 2.60449,-0.45475 l 0.4961,-0.2067 0.7028,0.53743 q 0.41341,0.24805 -0.0413,0.37207 -0.53743,0.95085 -1.15755,2.48047 1.32292,0.16537 2.8112,0.66146 0.0827,-0.99219 0.0413,-2.43913 l 0.78548,0.16537 q 0.45476,0.0827 0.0827,0.33073 0,1.36425 -0.0827,2.23242 0.78548,0.28938 1.81901,0.82682 l -0.41341,0.82682 q -0.86816,-0.49609 -1.57096,-0.82682 z m -4.58887,-1.03353 q -0.95084,0 -1.52962,0.57878 -0.66146,0.66146 -0.66146,1.24023 0,0.24805 0.16537,0.41341 0.12402,0.12403 0.37207,0.12403 0.37207,0 0.66145,-0.45476 0.24805,-0.37207 0.99219,-1.90169 z" />
    </g>
  </g>
</svg>
